<?xml version="1.0" encoding="UTF-8"?>
<svg id="Layer_1" xmlns="http://www.w3.org/2000/svg" version="1.1" viewBox="0 0 106 148.1">
  <!-- Generator: Adobe Illustrator 29.3.1, SVG Export Plug-In . SVG Version: 2.1.0 Build 151)  -->
  <defs>
    <style>
      .st0 {
        fill: #212d44;
      }
    </style>
  </defs>
  <path class="st0" d="M13.7,35.3h-.4c0,0-.1-.1-.1-.2v-.8c0,0,0-.2-.1-.2l-2.1-.7c0,0,0,0,0,0h2.7c0,0,.1.1.1.2v1.8ZM15.1,42.9h.9s0-7.1,0-7.1c-.2,0-.5,0-1.2-.4-1-.6-.3-2.4-.3-2.4,0,0,0-.1-.2-.1h-7.2c0,0-.1,0-.1.1v2.4c0,0,0,.1,0,.1h3.6c0,0,.1.1,0,.2l-1.4,2.4c0,0,0,.2,0,.2l1.1.6c0,0,.2,0,.2,0l1.4-1.7c0,0,.1,0,.2,0,0,0,.4.5,1,1,.6.5,1.7.5,1.7.5,0,0,.1.1.1.2v3.9c0,0,0,.1.1.1M20.8,34.3c.6-1.5,0-3.5,0-3.5,0,0,0,0,0,0,0,0,1,1.4.7,3.1-.6,2.7-2.5,3-2.5,3,0,0,0,0,0,0,0,0,1-.7,1.7-2.6M20.3,24.1c0,.7-.6,1.3-1.3,1.3s-1.3-.6-1.3-1.3.6-1.3,1.3-1.3,1.3.6,1.3,1.3M21.4,23.9c0,0,0-.2,0-.2,0,0-1.4-1.3-1.6-1.7-.2-.4.4-.8.4-.8,0,0,0-.2,0-.2l-.8-.5c0,0-.2,0-.2,0l-3,4.4c0,0,0,.2,0,.2,0,0,3.4,1.3,4.1,5,.7,3.6-1.8,5.5-2.7,5.6-.3,0-.6,0-.8,0v7.1s3.1,0,3.1,0c0,0,.1,0,0-.1l-.2-.7h-2c0,0-.1,0-.1-.1v-3.2c0,0,.1-.2.2-.2,0,0,3.6-.9,4.5-3.8,1-3.5-1.5-8.4-1.5-9s.6-1.9.6-1.9"/>
  <polygon class="st0" points="8.3 45.2 21.4 45.2 20.3 43.6 9.5 43.7 8.3 45.2"/>
  <polygon class="st0" points="9.7 42.9 10.3 42.2 14.2 42.2 14.1 43 9.7 42.9"/>
  <polygon class="st0" points="10.7 41.5 14.2 41.5 14.2 40.6 11.1 40.6 10.7 41.5"/>
  <path class="st0" d="M18.9,24.6c.3,0,.5-.2.5-.5s-.2-.5-.5-.5-.5.2-.5.5.2.5.5.5"/>
  <path class="st0" d="M12,23.8l-.6.9c0,0,0,.2,0,.2l3.8,2.6c0,0,.2,0,.2,0l.5-.8c0,0,0-.2,0-.2l-3.9-2.6Z"/>
  <path class="st0" d="M14.1,27.2l-.4-.3s0,0,0,0l-1-.7s0,0,0,0l-.4-.3c-.1,0-.3,0-.4,0v.2c-.2.1-.2.3,0,.4h.2c0,.1-1.9,3-1.9,3,0,.1,0,.3,0,.4l1,.7c.1,0,.3,0,.4,0l1.9-2.8h.2c.1.2.3.2.4,0v-.2c.2-.1.2-.3,0-.4"/>
  <path class="st0" d="M13.5,24.3l1.5,1c0,0,.2,0,.2,0l5.3-7.8c0,0,0-.2,0-.2l-1.3-.9c0,0-.2,0-.2,0l-5.4,7.9Z"/>
  <path class="st0" d="M27.1,73.5c0,.2-.2.3-.3.3s-.3-.2-.3-.3.2-.3.3-.3.3.2.3.3M25.1,73.5c0,.2-.2.3-.3.3s-.3-.2-.3-.3.2-.3.3-.3.3.2.3.3M22.7,73.5c0,.2-.2.3-.3.3s-.3-.2-.3-.3.2-.3.3-.3.3.2.3.3M19.8,73.3c0,.2-.2.3-.3.3s-.3-.2-.3-.3.2-.3.3-.3.3.2.3.3M16.3,73c0,.2-.2.3-.3.3s-.3-.2-.3-.3.2-.3.3-.3.3.2.3.3M12.9,72.2c0,.2-.2.3-.3.3s-.3-.2-.3-.3.2-.3.3-.3.3.2.3.3M30.2,75.2c-.1-.1-.8-.7-1.1-.5-.8.5-1.4.4-1.4.4,0,0-.1,0,0-.1l1.5-2.8c0,0,0-.1,0-.1,0,0-8.5-.2-10.4-.4-1.9-.1-5.5-.7-7.6-1.7-.2-.1-.6-.2-.6-.2,0,0-.1,0,0,0l1.7,5.4c0,0,.1.1.2,0,0,0,1.5.2,1.7-.7,0,0,.2.8,1,.9.5,0,.6,0,1-.3.5-.3.4-.4.5-.4,0,0,.7.5,1.3.4.6-.1.8-.3.8-.3,0,0,.2-.2.2-.1,0,0,0,.8,1,.9,1,0,1.3-.2,1.7-.3.4-.1.6-.4.7-.4,0,0,.4.3,1.2.4,1.3,0,1.3-.4,1.4-.4s.2.4,1.1.4.9-.3.9-.3c0,0,.3.3.8.4.5,0,1.1-.2,1.1-.2,0,0,.2,0,.3,0,0,0,.4-.2.8,0,.4.1.6.2.5,0"/>
  <path class="st0" d="M9.6,69.7s-3.2.5-2.7,1.4c.5.9,2.4,3.4,2.4,3.4,0,0,0,.3-.3.3s-1.6-.4-1.6-.4c0,0,.5,0,.5.4,0,.4,0,.4,0,.4,0,0,1.3,0,2.1,0,.8,0,1.5.1,1.5.1l-2-5.7Z"/>
  <path class="st0" d="M26.3,71.5h-.7v-1.1h.6c0,.1,0,1.1,0,1.1ZM24,71.4h-.8v-1.4h.8c0,.1,0,1.4,0,1.4ZM21.6,71.2l-1-.2v-1.5l1,.2v1.5ZM18.9,71l-1.1-.2v-1.6l1.1.2v1.7ZM15.5,70.4l-1.1-.2v-1.6l1.1.2v1.7ZM27.7,70.6c0,0,0-.2-.1-.2l-15-2.5c0,0-.1,0-.1.1v1.8c0,0,0,.2.1.2,0,0,4.1,1,7.4,1.3,3.3.2,7.6.2,7.6.2,0,0,.1,0,.1-.1v-.8Z"/>
  <path class="st0" d="M8.2,69.7l1.6-.4s.4,0,.8,0c.4.2,1.3.6,1.3.6v-2h-3.8c0,0,0,1.8,0,1.8Z"/>
  <path class="st0" d="M8.8,67.1v.3c0,0,0,.1.1.1h2.6c0,0,.1,0,.1-.1v-.2c0,0,0-.1-.1-.1h-2.8Z"/>
  <path class="st0" d="M12.5,67.2v.2c0,0,0,.2,0,.2l14.9,2.5c0,0,.2,0,.2-.1h0c0-.2,0-.2-.1-.3l-15-2.5Z"/>
  <path class="st0" d="M24,68.1c0,.1,0,.2-.2.2s-.2,0-.2-.2v-2.8c0-.1,0-.2.2-.2s.2,0,.2.2v2.8ZM24.4,68.8v-3.8s-.8-.9-1.8-1c-1,0-2,.4-2,.4v3.7c0,0,3.8.7,3.8.7Z"/>
  <path class="st0" d="M18.9,67.1c0,.1,0,.2-.2.2s-.2,0-.2-.2v-3.1c0-.1,0-.2.2-.2s.2,0,.2.2v3.1ZM19.3,67.9v-4.3s-.9-1.1-2-1.1c-1.1,0-2.3.4-2.3.4v4.2c0,0,4.3.8,4.3.8Z"/>
  <path class="st0" d="M26.4,66.4c0,0,0-.1.1,0l2,1.3c0,0,0,0,0,0l-1.6-.3c0,0-.1,0-.1.1v1.5s-.3,0-.3,0c0,0-.1,0-.1-.2v-2.4Z"/>
  <path class="st0" d="M9.5,62.3c0,0-.1,0-.1,0l.8,4.3h.4c0,0,.1,0,.1-.2l-.8-4.1h-.4Z"/>
  <path class="st0" d="M91.4,20c.9-.3,1.1-.5,1-1.3-.4.4-.8.6-1,1.3"/>
  <path class="st0" d="M90.8,21.4c.1-.5,0-.9-.4-1.3-.2,1-.2,1.1.4,1.3"/>
  <path class="st0" d="M91.8,18.2c.5-.4.5-.9.3-1.4-.2.4-.4.8-.3,1.4"/>
  <path class="st0" d="M91.4,18.1c-.4.7-.4.7,0,1.1.2-.4.1-.7,0-1.1"/>
  <path class="st0" d="M92.5,17.9c0,.8,0,.8-.7.9,0-.4.3-.7.7-.9"/>
  <path class="st0" d="M92,20.1c-.4.2-.7.3-.7.8.6,0,.6,0,.7-.8"/>
  <path class="st0" d="M90.9,19.1c-.2.8-.2.8.1,1.3q.2-.6-.1-1.3"/>
  <path class="st0" d="M92,20.8q-.9.6-1.1,1.2c.6-.2,1-.4,1.1-1.2"/>
  <path class="st0" d="M91.9,21.9q-1,.3-1.3.9c.6,0,1.1-.2,1.3-.9"/>
  <path class="st0" d="M90.1,21.1c-.2.7,0,1.1.4,1.4.4-.7,0-.9-.4-1.4"/>
  <path class="st0" d="M93.4,21.4c.9,0,1.2-.2,1.3-.9-.5.2-1,.3-1.3.9"/>
  <path class="st0" d="M92.4,22.6c.3-.4.2-.9,0-1.3-.5.9-.5.9,0,1.3"/>
  <path class="st0" d="M94.3,19.9c.7-.2.8-.7.8-1.2-.3.3-.7.7-.8,1.2"/>
  <path class="st0" d="M94,19.6c-.5.5-.6.6-.3,1.1.3-.3.3-.6.3-1.1"/>
  <path class="st0" d="M95,19.7c-.3.7-.3.7-.9.7.2-.4.5-.5.9-.7"/>
  <path class="st0" d="M93.9,21.7c-.4,0-.8,0-.9.5.6.1.6.1.9-.5"/>
  <path class="st0" d="M93.2,20.5c-.5.7-.5.7-.3,1.3q.3-.5.3-1.3"/>
  <path class="st0" d="M93.7,22.4q-1,.3-1.4.8c.6,0,1.1,0,1.4-.8"/>
  <path class="st0" d="M93.3,23.4q-1.1,0-1.5.4c.6.2,1.1.2,1.5-.4"/>
  <path class="st0" d="M91.8,22c-.4.6-.4,1,0,1.5.6-.5.2-.9,0-1.5"/>
  <path class="st0" d="M95.7,21.4c.9,0,1.2-.2,1.3-.9-.5.2-1,.3-1.3.9"/>
  <path class="st0" d="M94.7,22.6c.3-.4.2-.9,0-1.3-.5.9-.5.9,0,1.3"/>
  <path class="st0" d="M96.6,19.8c.7-.2.8-.7.8-1.2-.3.3-.7.7-.8,1.2"/>
  <path class="st0" d="M96.3,19.5c-.5.5-.6.6-.3,1.1.3-.3.3-.6.3-1.1"/>
  <path class="st0" d="M97.3,19.7c-.3.7-.3.7-.9.7.2-.4.5-.5.9-.7"/>
  <path class="st0" d="M96.2,21.6c-.4,0-.8,0-.9.5.6.1.6.1.9-.5"/>
  <path class="st0" d="M95.5,20.4c-.5.7-.5.7-.3,1.3q.3-.5.3-1.3"/>
  <path class="st0" d="M96,22.4q-1,.3-1.4.8c.6,0,1.1,0,1.4-.8"/>
  <path class="st0" d="M95.6,23.3q-1.1,0-1.5.4c.6.2,1.1.2,1.5-.4"/>
  <path class="st0" d="M94.1,22c-.4.6-.4,1,0,1.5.6-.5.2-.9,0-1.5"/>
  <path class="st0" d="M98,22.1c.9.2,1.2,0,1.4-.7-.5.2-1,.2-1.4.7"/>
  <path class="st0" d="M96.9,23.1c.3-.4.4-.8.2-1.3-.7.8-.7.8-.2,1.3"/>
  <path class="st0" d="M99.1,20.6c.7-.1.9-.6,1-1.1-.4.3-.8.6-1,1.1"/>
  <path class="st0" d="M98.9,20.3c-.6.4-.7.5-.5,1.1.3-.3.4-.6.5-1.1"/>
  <path class="st0" d="M99.9,20.6c-.4.7-.4.7-1,.5.2-.3.6-.5,1-.5"/>
  <path class="st0" d="M98.5,22.4c-.4,0-.8,0-.9.4.5.2.5.2.9-.4"/>
  <path class="st0" d="M98,21.1c-.6.6-.6.6-.5,1.2q.4-.5.5-1.2"/>
  <path class="st0" d="M98.2,23.1q-1.1,0-1.5.6c.6.1,1.1,0,1.5-.6"/>
  <path class="st0" d="M97.7,24q-1-.2-1.6.2c.5.2,1,.3,1.6-.2"/>
  <path class="st0" d="M96.3,22.4c-.4.5-.5.9-.3,1.4.7-.4.4-.9.3-1.4"/>
  <path class="st0" d="M98.7,24.7c.8.4,1.1.4,1.6-.2-.5,0-1-.2-1.6.2"/>
  <path class="st0" d="M97.3,25.2c.4-.3.6-.6.6-1.2-.9.5-.9.6-.6,1.2"/>
  <path class="st0" d="M100.2,23.7c.7,0,1-.2,1.3-.7-.4.1-.9.3-1.3.7"/>
  <path class="st0" d="M100.1,23.3c-.7.2-.8.2-.8.8.4-.1.6-.4.8-.8"/>
  <path class="st0" d="M101,23.9c-.6.5-.6.5-1.1.2.3-.2.7-.3,1.1-.2"/>
  <path class="st0" d="M99.1,25.1c-.4-.2-.7-.3-1,0,.4.4.4.4,1,0"/>
  <path class="st0" d="M99,23.7c-.7.4-.7.4-.8,1q.5-.3.8-1"/>
  <path class="st0" d="M98.6,25.7q-1-.3-1.6,0c.5.3,1,.4,1.6,0"/>
  <path class="st0" d="M97.7,26.3q-.9-.5-1.5-.3c.4.4.9.6,1.5.3"/>
  <path class="st0" d="M97,24.4c-.6.3-.8.7-.7,1.3.8-.2.6-.7.7-1.3"/>
  <path class="st0" d="M98,28c.7.6,1.1.6,1.6,0-.5,0-1-.3-1.6,0"/>
  <path class="st0" d="M96.5,28.3c.5-.2.7-.5.8-1-.9.4-1,.4-.8,1"/>
  <path class="st0" d="M99.7,27.2c.7.2,1.1,0,1.4-.5-.5,0-.9.1-1.4.5"/>
  <path class="st0" d="M99.6,26.8c-.8,0-.8.1-.9.7.4,0,.6-.3.9-.7"/>
  <path class="st0" d="M100.4,27.6c-.6.4-.7.4-1.1,0,.4-.2.7-.2,1.1,0"/>
  <path class="st0" d="M98.3,28.5c-.4-.2-.7-.4-1-.1.4.4.4.4,1,.1"/>
  <path class="st0" d="M98.5,27.1c-.8.3-.8.3-1,.8q.6-.2,1-.8"/>
  <path class="st0" d="M97.7,28.9q-1-.4-1.6-.2c.5.4.9.6,1.6.2"/>
  <path class="st0" d="M96.8,29.5q-.8-.6-1.5-.6c.4.5.8.8,1.5.6"/>
  <path class="st0" d="M96.4,27.5c-.6.2-.9.5-.9,1.1.8,0,.7-.6.9-1.1"/>
  <path class="st0" d="M58,72.1c0-.2,0-.3,0-.3-.5-1.9-1.4-3.4-3.2-4.3-.8-.3-1.6-.5-2.4-.5-1,0-2,0-2.9.2-1.1.2-2.2.3-3.3.5-.4,0-.4,0-.4.5,0,.4,0,.8,0,1.2,0,.3,0,.4.4.4,0,0,.2,0,.3,0,.9,0,1.3.4,1.5,1.3.1.5.2,1.1.2,1.6,0,2,0,3.9,0,5.9,0,.5,0,.6.5.7.6.2,1.3.3,1.9.5.1,0,.3,0,.5,0,.5-.3,1-.2,1.6-.3.4,0,.8.1,1.1.4.5.4.8,1,1,1.5.4,1,.7,2.1.9,3.2.4,2.5.6,5,.5,7.6,0,1.2-.2,2.5-.5,3.7-.2.8-.5,1.6-1.1,2.2-.5.5-1.2.7-1.9.6-.7-.2-1.1-.7-1.2-1.4-.1-.8-.3-1.7-.3-2.6,0-1.5,0-2.9,0-4.4s0-2.4,0-3.6c0-.5,0-.5-.5-.7-.6-.2-1.3-.3-1.9-.5-.1,0-.2,0-.4,0,0,.3,0,.5,0,.7,0,3.1,0,6.2,0,9.3,0,.7,0,1.4-.3,2.1-.3.7-.8,1.2-1.5,1.4,0,0-.2,0-.3,0-.4,0-.4.1-.4.5,0,.3,0,.6,0,.9,0,.6,0,.6.6.6,2.6,0,5.2,0,7.9,0,.9,0,1.6-.3,2.3-.9.7-.5,1.2-1.2,1.6-2,.9-1.8,1.3-3.6,1.4-5.6.1-2.4,0-4.8-.4-7.1-.3-1.8-.7-3.6-1.5-5.3-.3-.6-.6-1.2-1.1-1.6-.1-.1-.2-.2-.3-.3,0,0,0,0,.1-.1,0,0,.2,0,.2-.1,1-.4,1.6-1.2,1.9-2.2.1-.4,0-.5-.3-.6-.5-.2-1-.3-1.6-.4-.3,0-.6,0-.9-.1,0,.4-.2.8-.3,1.1-.3,1.1-1,1.7-2.2,1.8-.4,0-.9,0-1.3,0-.6,0-.6,0-.6-.7v-4.1c0-1,0-1.9,0-2.9,0-.5,0-.6.6-.7.5,0,1,0,1.5,0,1,.1,1.7.7,2,1.7,0,.2,0,.3.1.5q.1.6.7.6c.5,0,.9.1,1.4.2.2,0,.4,0,.7,0"/>
  <path class="st0" d="M43,73.5c-.2,0-.4,0-.5.1-.8.4-1.5.7-2.3,1.1-.7.4-1.3,1-1.8,1.7-.7,1.2-.8,2.4,0,3.6.2.4.6.8.9,1.1.9.8,1.9,1.3,3,1.8,1.5.7,3.1,1.2,4.7,1.6,2.6.7,5.2,1.3,7.8,2,0,0,.2,0,.4,0,0-.3,0-.6,0-.8-.2-1.4-.5-2.7-.9-4.1-.2-.4-.4-.7-.9-.8-1.8-.4-3.6-.9-5.4-1.3-1.1-.3-2.2-.7-3.2-1.1-.6-.2-1.2-.6-1.7-1.1-.5-.6-.5-1.2,0-1.8.1-.1.2-.2.3-.4,0-.6,0-1.2-.2-1.8"/>
  <path class="st0" d="M58.8,82.5c0,0,0,.1,0,.2,0,.2,0,.3,0,.5.2,1.3.5,2.7.7,4,.2,1.1,0,.9,1,1.3.7.3,1.4.7,2,1.2.8.7,1,1.6.5,2.5,0,.1-.1.3-.1.4,0,.8,0,1.5,0,2.3,0,.3.2.4.4.3,1.6-.6,3-1.4,4.2-2.7,1.4-1.5,1.5-3.6.2-5.3-.8-1-1.8-1.8-3-2.4-1.7-.9-3.5-1.6-5.3-2.2-.2,0-.4,0-.6-.1"/>
  <path class="st0" d="M43.9,84.1c0,.3,0,.5,0,.8,0,3,0,6,0,9,0,.6-.1,1.1-.2,1.7,0,.3-.3.6-.6.7-.2,0-.3.2-.3.4,0,.2,0,.4,0,.5,0,.5,0,.5.5.5.9,0,1.8,0,2.7,0s1.1,0,1-1.1c0-.2,0-.3-.3-.4-.4,0-.6-.4-.7-.8,0-.2-.1-.4-.1-.7,0-.7,0-1.4,0-2.1,0-2.4,0-4.9,0-7.3s0-.3,0-.5c0-.2,0-.3-.3-.4-.4-.2-.9-.3-1.5-.5"/>
  <path class="st0" d="M37.6,89.3c0,.2,0,.3,0,.4.2.9.4,1.8.6,2.7.3,1.1.5,2.2.8,3.3,0,.4.1.4.5.4.3,0,.6,0,.9,0,.2,0,.4,0,.6-.2.4-.3.9-.4,1.3-.4s.5,0,.6-.5c0-.6,0-1.1.1-1.7,0-.5-.1-.9-.6-1.2-.7-.5-1.4-1.2-1.9-2-.5-.8-1-1-1.9-.9-.4,0-.8,0-1.3,0"/>
  <path class="st0" d="M62.3,83.1v-.7c0-2.5,0-5,0-7.4,0-.5.1-1,.2-1.5,0-.3.3-.5.6-.6.4-.2.4-.2.5-.7,0-.1,0-.2,0-.4,0-.4,0-.5-.5-.5-1.1,0-2.2,0-3.3,0s-.2,0-.2,0c-.1,0-.3.2-.3.3,0,.4,0,.7,0,1.1.7.1,1,.6,1.1,1.2,0,.3,0,.7,0,1,0,2.3,0,4.5,0,6.8,0,.2,0,.3,0,.5,0,.1.1.3.2.3.5.2,1,.4,1.6.6"/>
  <path class="st0" d="M59.2,96.4c0,.3,0,.5,0,.8,0,.5,0,.6.6.6.9,0,1.8,0,2.7,0s1.1,0,1-1.1c0-.2,0-.3-.3-.3-.4,0-.6-.3-.7-.7-.1-.4-.2-.8-.2-1.2,0-1.2,0-2.5,0-3.7,0-.2,0-.4-.1-.5-.4-.5-1-.8-1.7-1.1,0,.3,0,.5,0,.6,0,1.5,0,3.1,0,4.6,0,.3,0,.6,0,.8,0,.6-.3,1.2-1.1,1.3"/>
  <path class="st0" d="M45.6,78.3c0-.3,0-.4,0-.6,0-.7,0-1.4,0-2.1,0-.7.1-1.3.2-2,0-.4.3-.8.7-.9.3,0,.4-.3.4-.5,0-.1,0-.3,0-.4,0-.5,0-.5-.5-.5-1.1,0-2.1,0-3.2,0-.1,0-.3,0-.4,0-.3.3-.1.6-.1,1,0,.2,0,.4.2.4.6.1.8.6.8,1.2,0,.5,0,1,.1,1.5,0,.6,0,1.2,0,1.7s0,.4.2.6c.5.3.9.5,1.5.7"/>
  <path class="st0" d="M62.7,76.4h0c0,.3,0,.6,0,.9,0,.2,0,.3.1.5.1.3.3.5.5.7.1.2.3.3.6.3.6,0,1.2,0,1.8,0,.4,0,.5-.1.4-.5-.4-1.7-.7-3.4-1.1-5.1,0-.5-.6-.6-.9-.3-.2.2-.4.3-.6.3-.3,0-.5.2-.6.4,0,.2-.1.4-.1.6,0,.7,0,1.4-.1,2.2"/>
  <path class="st0" d="M59.8,75.4c0-.6,0-1.1,0-1.6,0-.3-.2-.5-.5-.5-.2,0-.4,0-.5-.2-.1-.3-.4-.3-.6-.4-.3,0-.5,0-.8,0-1.6-.1-3.2-.3-4.8-.4-1.1,0-1.1-.2-1.1,1.1,0,.4,0,.5.5.5.6,0,1.2,0,1.7,0,1.4,0,2.8.3,4.1.7.7.2,1.3.5,2,.7"/>
  <path class="st0" d="M55.2,94.9c-.2,0-.4,0-.5,0-.9,0-1.8,0-2.7.1,0,0,0,0-.1,0-.2,0-.3.1-.3.3,0,.3,0,.6,0,.8,0,.5,0,.5.5.5.8,0,1.5,0,2.3,0,.2,0,.3-.1.4-.3.2-.5.3-1,.4-1.6"/>
  <path class="st0" d="M47.5,96c0-.3,0-.7,0-1.1,0-.1,0-.4-.2-.4-.3-.2-.7-.3-1.2-.3,0,.4,0,.8.2,1.1,0,.3.3.5.6.5.2,0,.4,0,.6.1"/>
  <path class="st0" d="M59.1,95.8c0-.4,0-.8.2-1.2,0-.2,0-.4.1-.5.2-.2.4-.3.6-.3,0,.5-.2.9-.2,1.3,0,.4-.2.5-.4.5,0,0-.2,0-.3.1"/>
  <path class="st0" d="M47.5,72.7c0,.3-.2.5-.5.5-.7,0-.9.4-.8,1.1.3,0,.7,0,1-.1.2,0,.3-.2.3-.4,0-.4,0-.8,0-1.2"/>
  <path class="st0" d="M65.4,26.1c-.8,0-1.5.2-2.3.2-.2,0-.4,0-.4.3,0,.2,0,.3-.1.5,0,.2,0,.4.1.5.1-.4.2-.7.3-1,.8,0,1.5.4,2.3,0-.2-.2-.1-.4,0-.6.1,0,.2,0,.3,0,.4-.2.7-.2,1.1,0,0,0,0,0,0,0-.4-.8-.9-1-1.5-.6.1.2.4.4,0,.6"/>
  <path class="st0" d="M69.4,26.7c-.2.5-.2,1-.4,1.4-.2.5-.6.7-1.1.8.1.1.3.2.4.2.1,0,.3,0,.4.1-.2.8-.6,1.1-1.2,1-.5,0-.6,0-.7.5-.1.4-.3.8-.5,1.3-.7,0-1.3-.5-2-.4.2.1.3.2.5.3.3.1.6.2.9.3.4.2.5.4.3.8-.4.7-1.5,1.6-2.7,1.3-.1,0-.2,0-.4,0,.3.5,0,.9-.3,1.1-.2.2-.4.1-.6.1-.4,0-.6,0-.7.4-.2.8-.6,1.4-1.2,1.8-.4.3-.4.5,0,.9,0,0,0,0,0,0,0,.3-.4.6-.3,1.1.2-.2.3-.4.4-.5.1-.2.2-.4.3-.7.2-.5.5-.8,1.1-.7.4,0,.7-.1,1-.4.1-.2.3-.3.4-.5.3-.6.8-.9,1.4-1,.4-.1.8,0,1.1.2.5.4.9.7,1.4,1,1,.8,1.9,1.6,2.6,2.7,0,.1.1.2.2.4-.5,0-.8-.6-1.2-.6,0,0,0,0,0,0,0,0,0,.1.1.2.9.7,1.4,1.6,1.7,2.8.1.7.2,1.5,0,2.2-.2,1.1-.7,1.9-1.6,2.4-.7.5-1.5.5-2.3.2-.1,0-.3-.2-.5,0,1.3.6,2.5.8,3.7-.1.2-.1.3-.2.5-.4.7-.6,1.1-1.3,1.3-2.2.2-1.3,0-2.5-.5-3.7-.7-1.5-1.8-2.7-3.1-3.7-.9-.7-1.1-1.6-1-2.6,0-.4.3-.8.5-1.2-.2-.2-.4-.5-.7-.7,0,0,0,0,0-.1.2,0,.4.2.6.3.4.2.7.4,1.1.6.2.1.4,0,.5-.1.3-.4.6-.8.8-1.1.1-.1.1-.3,0-.4-.2-.3,0-.4.2-.5.2-.1.4-.2.6-.3,0-.1,0-.2,0-.2-.2-.3,0-.6.2-.8.4-.3.4-.3.2-.8-.1-.2-.2-.5,0-.7.2-.2.2-.4,0-.6-.2-.2-.2-.5-.1-.8.2-.5.2-.5-.3-.8-.4-.2-.6-.4-.4-.8,0,0,0,0,0-.1,0,0-.2,0-.3,0-.5,0-.8-.2-1.1-.6-.1-.2-.2-.4-.3-.7,0-.2-.2-.4-.3-.7-.1.6-.2,1-.3,1.5.4.2.9.4,1.3.7.4.3.8.7,1.2,1.1-.2.5-.3.9.4,1.2-.5.6-.6,1.1,0,1.6-.2.2-.5.3-.6.5-.1.2,0,.5-.1.7-.4.1-.8.3-1.2.4.5-.7,1-1.3,1.1-2.1.1-.8.2-1.6-.3-2.4"/>
  <path class="st0" d="M36.5,23.7s0,0-.1,0c0,.6,0,1.2-.1,1.7,0,.3,0,.6-.2.8-.5,1.2-.4,2.3.3,3.3,0,0,0,.1,0,.2-.1.2-.2.4-.4.6.5.2,1,.3,1.3.5.4.3.7.7,1,1,.2-.1.4-.2.6-.3,0,.1,0,.2-.1.3-.3.3-.3.7-.1,1.1.1.2.3.5.4.7.2.2.2.5,0,.7-.4.9-.6,1.9-1.4,2.5.2,0,.3.2.4.2.4,0,.7.2,1,.5.5.3,1,.3,1.6,0-.2-.2-.6-.1-.7-.4.4,0,.8,0,1.1-.2.3,0,.7-.2,1-.6-.3,0-.4,0-.6.1-.5,0-.9,0-1.3-.2-.6-.3-.7-.9-.3-1.4.7-.8,1.9-.7,2.5.2,0,0,.1.2.1.3.2.5.5.7,1,.6.4,0,.7.2,1,.5.3.4.3.9.3,1.3,0,.5,0,.6.6.6.2-.2.2-.5,0-.7-.1-.2-.2-.5,0-.7,0-.2,0-.4-.1-.5-.1-.2-.4-.3-.6-.4-.3-.1-.5-.3-.6-.5,0-.1-.1-.2-.2-.3-.2-.2-.4-.5-.4-.8-.1-.6-.5-1-1.1-1.2-.5-.2-1-.2-1.4,0-.3,0-.5,0-.6-.2-.6-.7-.6-2.4.6-2.7.3,0,.6-.3.9-.4,0,0,.2-.1.2-.2,0,0,0,0,0-.1-.2,0-.3,0-.5.1-.6.2-1.2.4-1.8.6-.1,0-.3,0-.5.1,0-.4.2-.6.6-.7.7-.2.9-.5.9-1.1-.7-.2-.9-.3-1.1-.8.4-.3.9-.3,1.3-.3.4,0,.9,0,1.4,0-.1-.3-.2-.6-.3-.9-.7,0-1.4,0-2.1.3.3,0,.7,0,1,0,.8,0,.8,0,1,.3-.2,0-.4,0-.6,0-.7,0-1.4.2-2.1.3-.6,0-1.1.2-1.5-.3,0,0,0,0-.1,0,0,.3,0,.5.2.8,0,.1.3.2.3.4,0,.3.3.4.5.4.3,0,.5,0,.8,0,.3,0,.6,0,.8.4-.2.2-.4.2-.6.2-.4,0-.4,0-.6.3-.3.6-.8.8-1.3.6-.2,0-.5-.2-.4-.5,0-.3.2-.4.5-.5.1,0,.3,0,.5,0-.3-.2-.6-.3-.8-.4-.7-.4-1.4-1.4-.8-2.3.1-.2.1-.4.2-.6,0-.2,0-.4.1-.5,0-.1.3-.1.4-.1-.3-.5-.7-1-1-1.5"/>
  <path class="st0" d="M47.6,23.1c-.2,0-.4-.1-.5-.2-.6-.2-1.2-.5-1.7-.9-.5-.4-.8-.8-.8-1.4,0-.8.3-1.4,1-1.9.1,0,.2-.2.3-.3-.5-.7-1.1-.4-1.6,0-.1-.7,0-1.5-.8-2-.6.5-.7,1.1-.8,1.9-.3,0-.5-.1-.6-.2-.7-.2-1.4-.5-2.1-.6-.9-.2-1.8-.3-2.7.2-.2.1-.5.3-.6.5-.3.4-.2,1,.2,1.3,0,0,0-.2,0-.3,0-.5.3-.8.7-.9.3,0,.5-.2.8-.2.4,0,.9,0,1.3.1,1.1.2,2.1.6,2.8,1.4,0,0,.1,0,.2.1.2-.3.4-.6.7-.9.2-.2.3-.2.6,0,.1.1.3.2.4.3-.1.4-.3.8-.4,1.2,0,.2-.2.3-.5.2,0,0-.2,0-.4,0,.5.9.9,1.8,1.6,2.5.3.4.7.7,1.2.9.3.1,1.3,0,1.5-.4,0,0,0-.1.1-.2"/>
  <path class="st0" d="M66.2,42c-.5.6-1,1.1-1.2,1.8.3.1.3.4.3.7,0,.8.4,1.4,1,1.8.2.1.3.2.6,0-.1,0-.2-.2-.3-.2-1.3-.9-1.4-2.7,0-3.6.3-.2.5-.2.8,0,.5.3,1,.7,1.3,1.2.3.5.5,1,.3,1.6,0,0,0,.2,0,.2.2-.2.3-.5.3-.8,0-.8-.3-1.4-.6-2.1-.4-.7-1-1.3-1.7-1.7-.7-.5-1.4-.9-2.1-1.3-.7-.5-1.1-1.1-1.2-2,0-.1,0-.3,0-.4-.4.2-.7.3-.8.7,0,.1-.1.3-.2.3-.2,0-.3.1-.3.4,0,.2,0,.4.2.5.5.5.9,1,1.5,1.5.6.4,1.2.7,1.8,1.1.2,0,.3.2.5.3"/>
  <path class="st0" d="M69.8,38.1c0,.6.3,1,.9,1.1,0,0,.2.2.2.2,0,.4.2.8.4,1,.3.3.4.5.3.9,0,.5.1.8.6,1,0,0,0,0,0,.1-.3.2-.5.4-.5.8,0,.4,0,.6.5.8-.4.1-.6.3-.8.7-.2.5.3.5.5.7-.1,0-.2.2-.3.2-.3,0-.5.2-.6.4-.2.2,0,.5,0,.7-.3,0-.5,0-.7,0-.2,0-.3.3-.5.4.1.1.2.2.3.4-.1.1-.2.2-.3.3.3,0,.6,0,.6-.3,0-.3.2-.3.4-.4.2,0,.4-.1.6-.2,0,0,.2-.2.2-.3,0-.3.1-.4.3-.6.1,0,.2-.2.3-.3.4-.4.4-.6-.1-.8,0,0,0,0-.1-.2.2-.2.4-.3.6-.5.2-.2.4-.4.3-.7-.2,0-.3,0-.5,0-.2,0-.3-.2-.2-.4,0-.1.2-.2.3-.4,0-.1.2-.3.3-.4-.2-.1-.4-.3-.5-.4-.5-.3-.5-.6-.1-1,0,0,.1-.2.2-.3-.2,0-.3,0-.4-.1-.6,0-.7-.2-.7-.8,0-.3,0-.6.1-.9-.2,0-.3,0-.4,0-.2,0-.3,0-.5,0-.4,0-.4-.2-.3-.6,0-.2,0-.4.1-.5-.2-.2-.4,0-.6,0-.5.1-.6,0-.6-.5,0-.1,0-.2,0-.3,0-.2,0-.3-.3-.4-.4-.1-.4-.1-.3-.5,0,0,0-.1,0-.2-.2-.3-.6-.2-.7-.6,0-.4.4-.5.5-.9-.3-.2-.6-.4-.8-.7,0,0,0,0-.1,0,0,.2,0,.4.1.7-.5,0-.6.4-.6.8,0,.6.6.4.8.7,0,.3-.2.5-.3.8.1,0,.2.1.2.1,0,0,.1,0,.2,0,.5.1.5.1.6.6,0,.4.3.6.6.7.1,0,.2,0,.4,0"/>
  <path class="st0" d="M45.8,44.4c.3-.5.4-1.2.2-1.5-.2-.3-.3-.3-.6,0-.3.2-.5.4-.8.6-.2.1-.4,0-.5-.1-.1-.2-.3-.4-.5-.6-.2-.2-.3-.4-.2-.7.1-.4.2-.9.2-1.3,0-.7-.3-1.3-1-1.7-.1,0-.2-.2-.4-.3.3-.3.5-.5.8-.8.2-.3.5-.6.4-1.1-.3.3-.5.5-.8.8-.4.4-.9.7-1.5.8-.2,0-.3,0-.5.1-.5.2-.8.4-.8,1,0,.6-.2,1.1-.6,1.6,0,0,0,.1,0,.3.2,0,.3,0,.4-.1.3-.3.7-.6.9-1,.1-.4.3-.7.6-1,.4-.3.6-.3,1,0,.5.4.6,1,.5,1.6,0,.4-.2.8-.2,1.2,0,.2,0,.4,0,.5.4.3.6.8.9,1.2.3.4.5.4.9.2.2,0,.3-.2.4-.3.5-.3.6-.3.8.2,0,.2.2.3.3.5"/>
  <path class="st0" d="M34.8,48.4s0,0,0,0c-.2,0-.4,0-.6,0-.5,0-.7-.1-.8-.7,0-.2,0-.5-.1-.7-.1-.4,0-.7.2-1,.5-.6,1-1.2,1.5-1.8.5-.5.7-1.1.8-1.7,0-.6,0-1.2,0-1.8,0-1,0-2,.9-2.7.1,0,.3-.2.2-.4-.1-.2-.3,0-.5,0,0,0-.1,0-.2.1-.4.4-.8.7-1.1,1.2-.6.7-.7,1.5-.3,2.3.2.4.3.8.4,1.2.2.7,0,1.2-.4,1.7-.4.4-.9.7-1.3,1-.3.2-.6.3-.8.5-.3.2-.3.4,0,.6.4.5.6,1.1.7,1.8,0,.4.2.6.6.5.4,0,.8-.1,1.1-.2"/>
  <path class="st0" d="M57.4,24.2c-.5,0-1,.2-1.5-.2-.2-.2-.5-.2-.8-.4.8-.3,1.9,0,2.3.6M58,23.5c-.3-.3-.6-.5-1.1-.4-.5,0-1.1,0-1.7,0-.7,0-1.4-.1-2.1-.2-.5,0-.6,0-.7.7.7,0,1.3.5,1.9.8.5.2,1,.4,1.5.5.2,0,.5.2.7.3.3.2.3.3.2.7,0,0,0,.2,0,.4.4-.2.4-.5.4-.7,0-.3,0-.5,0-.8,0,0,.1,0,.2,0,.4.1.5.4.5.8s0,.7.4,1c.3-.3.3-.3.3-.7,0-.2,0-.4,0-.5.3-.7,0-1.3-.3-1.8"/>
  <path class="st0" d="M61.1,19.7c.8.5.8,1.2.1,1.6-.2.1-.4.3-.5.5-.3.5-.3.5-.8.3,0,0-.1,0-.2,0-.2.2-.3.4-.5.5-.2.2-.3.3-.6.5.2,0,.3,0,.3,0,.9.2,1.9,0,2.2-.9.1-.3.4-.5.8-.5.4,0,.8,0,1.1.2.2,0,.4.1.6.2,0-.6-.1-.9-.8-1.1-.4,0-.5-.3-.6-.7,0-1-.6-1.7-1.4-2.1-.4-.3-.7-.1-.8.4,0,.3,0,.6,0,.8,0,.2,0,.3,0,.5-.4,0-.8-.2-1.2.2.3.3.5.5.8.8.2-.3.4-.4.7-.4.1,0,.3-.2.4-.3.1-.1.2-.3.3-.5"/>
  <path class="st0" d="M54.7,28.5h0c0,.1.1.2.2.2.6.1,1.2.3,1.8.4.4,0,.8,0,1.1-.3-.1-.4-.3-.5-.6-.8-.5-.4-1.1-.6-1.8-.7-1.3-.3-2.6-.2-3.8,0-.6.2-1.2.4-1.9.6-.2,0-.3.2-.2.5,0,.2.3.4.5.3.5,0,1.1-.2,1.6-.5.3-.2.6-.3.9-.4.9-.2,1.8,0,2.7.1.2,0,.4.1.4.4-.3,0-.6,0-.8.1"/>
  <path class="st0" d="M33.9,40.5s0,0,0-.1c-.2,0-.3-.1-.5-.2-.6-.2-.8-.5-.7-1.1,0-.4.2-.8.4-1.1.3-.6.7-1.3.9-1.9.5-1.3.5-2.6,0-3.9-.2-.5-.6-.8-1.1-1.1-.2,0-.4-.1-.6,0,0,.1.2.2.3.3.4.5.7,1.2.8,1.8,0,.3,0,.7.1,1,.1.7,0,1.3-.2,1.9-.3.6-.6,1.1-.8,1.7-.2.4-.3.8-.4,1.2,0,.4,0,.8.4,1,.4.3.8.4,1.2.5,0,0,.1,0,.2,0"/>
  <path class="st0" d="M62.7,20.5c.2-.1.3-.2.5-.3.3-.2.6-.3,1-.3,1.3,0,2.5-.3,3.2-1.5.3-.5.7-.6,1.3-.5.3,0,.5.3.8.4,0,0,.2.1.3.2.2-.4,0-.6-.2-.9-.5-.5-1.2-.6-1.8-.4-.3,0-.5,0-.8,0-.4,0-.9-.2-1.3,0-.2,0-.5.2-.5.5.8,0,1.1.1,1.4.6-.5.4-1.1.2-1.6.4.2.5,0,.7-.5.7-.3,0-.7,0-1,.1-.5,0-.6,0-.7-.5,0,0,0-.1,0-.3-.2,0-.3.1-.4.2.1.5.2,1,.3,1.5"/>
  <path class="st0" d="M54.7,20.8c0-.2.1-.3.2-.5.3-1.1.2-2-.6-2.8-.2-.2-.4-.4-.5-.6-.2-.5-.5-.6-.9-.5-.1,0-.3,0-.4,0-.5,0-1,.5-1,1,0,.9.4,1.5,1.3,1.8.2,0,.4.1.6.2.2,0,.3.2.2.5,0,.2-.2.4-.4.4-.3,0-.7-.2-.8-.5,0,0,0-.2-.2-.3-.2.4,0,.6,0,.8.2.3.8.5,1.1.3.4-.2.5-.7.3-1.1,0-.2-.2-.3-.3-.5-.3-.3-.6-.5-.9-.7-.2-.1-.5-.3-.7-.5-.2-.2-.1-.4,0-.5.3-.2.6-.3.9-.5.4-.1.4,0,.6.2.2.4.5.7.7,1.1.2.4.3.7.4,1.1.2.6-.2,1.3-.7,1.7-.4.3-.8.4-1.4,0,.5.5.9.6,1.5.3.2-.1.4-.2.7,0,.3.1.5,0,.6-.2-.2,0-.4-.2-.6-.2"/>
  <path class="st0" d="M53.4,11.2c0,.4.1.6.4.8.5.3.7.8.6,1.4,0,.3-.2.5-.3.8,0,.1-.1.3,0,.4q.3-.2.8-.9c0,.6-.4,1.1-1,1.3,0-.1-.1-.2-.2-.4-.1.1-.2.2-.3.3-.4.4-.5.4-.9.2-.3-.2-.4-.3-.3-.5.2-.3.4,0,.6,0,.1,0,.3.1.4-.1-.2-.2-.5-.4-.7-.5q-.4.2-.7,0v.9s0,0,0,0c.6.3,1.2.6,1.8.9.2.1.5,0,.7-.1.3-.2.6-.5.9-.7-.1-.4.3-.5.5-.8,0-.2-.2-.4-.2-.6,0-.2.2-.4.3-.6-.3-.1-.5-.2-.7-.4,0-.2,0-.3.1-.5-.2,0-.5,0-.6-.2-.2-.1-.2-.3-.4-.5-.1.1-.2.2-.3.3-.1-.1-.2-.2-.3-.3"/>
  <path class="st0" d="M63.8,30c-.2.5-.3.9-.5,1.2-.1.3-.3.5-.6.6-.4.2-.7.4-1.1.6-1.3.8-1.6,2.2-1.1,3.8,0,0,0,0,0-.1.2-.4.4-.8.8-1,0,0,.1-.2.1-.4,0-.3,0-.5.2-.8.2-.4.6-.7,1-1,0,0,.2-.1.3-.2-.4-.3-.7,0-1.2-.1.2-.2.4-.2.5-.3.2,0,.4-.2.6-.2.5-.1.7-.5.7-1,0-.4,0-.7,0-1.2"/>
  <path class="st0" d="M64.9,28.1c-.4-.2-1.1,0-1.3.2-.1.1-.1.3,0,.4.2,0,.3,0,.5,0,.5,0,1,0,1.5,0,.3,0,.6,0,.9.3-.7.4-1.5.4-2.1.6,0,.1,0,.2,0,.2.1.5.3.5.6.2.1-.1.3-.2.5-.1.3.1.7.1.8.6,0-.1.1-.2.1-.2,0-.4.1-.6.5-.8.1,0,.2-.3.3-.5.1-.3,0-.5-.3-.5-.3,0-.6-.1-.9-.2-.5,0-1,0-1.6,0,.2,0,.3-.2.4-.2"/>
  <path class="st0" d="M42.2,26.1c.2-.4.1-.8,0-1.2-.7,0-1.3.2-2,.2,0-.2,0-.3.1-.4-.3-.1-.6,0-.9,0-.6,0-.8,0-1-.7,0-.2,0-.5-.1-.8-.4.6-.4,1.1-.2,1.6.1.3.1.5,0,.7,0,0,0,0,0,.1.4,0,.8-.2,1.2-.2.5,0,1.1,0,1.6,0,.9,0,.9,0,1.5.6"/>
  <path class="st0" d="M35.3,48.3c.1-.6-.5-.8-.7-1.2,0,0,0-.2.1-.3.2-.4.4-.7.9-.8.2,0,.4-.2.6-.3,1.1-.8,2-1.9,2.7-3.1,0-.1,0-.3.1-.4,0,0,0,0-.1,0-.1,0-.2.2-.3.3-.5.6-1,1.2-1.4,1.9-.5.6-1.1,1-1.9,1.2-.1,0-.3,0-.4.2-.2.3-.4.6-.6.9-.2.4-.2.7.1.9.3.3.7.5.9.9"/>
  <path class="st0" d="M48.8,24.8s0,0,0,0c.1,0,.3.2.4.2.4.2.7.5.9.9,0,.2.2.4.2.6.2.5.2.5.7.4.8-.3,1.7-.4,2.5-.3,0,0,0,0,.2,0-.1,0-.2-.1-.3-.1-.5,0-1.1-.1-1.7-.1-.4,0-.7-.1-.9-.4-.2-.3-.4-.5-.7-.7,0,0-.1-.2-.2-.2.3-.2.8,0,1-.4-.8,0-1.5,0-2.3.1"/>
  <path class="st0" d="M44.8,34.6s0,0,.1,0c0-.2.1-.3.1-.5,0-.8,0-1.6,0-2.3,0-.2,0-.4-.2-.6-.4-.4-.9-.7-1.3-1,0,0-.2,0-.2,0,0,0,0,0,0,0,.6.7,1.2,1.4,1.1,2.5-.3-.2-.6-.3-.9-.4,0,0,0,0,0,0,.1.1.2.3.3.4.5.5,1.1,1,1.1,1.9"/>
  <path class="st0" d="M54.1,24.6s0,0,0,0c.1.5.2,1,.4,1.6.1.6.5.7,1,.6.3-.5.5-1,.8-1.6-.8,0-1.5-.2-2.1-.7"/>
  <path class="st0" d="M40.6,41.6c0,0,.1.2.2.3.2.2.4.4.5.6.4.5.7,1,.2,1.6-.1.2-.2.4,0,.6.2.2.4.3.6.2.4,0,.7-.1,1.1-.2,0,0,.2,0,.3,0-.2-.4-.5-.4-.8-.5-.2,0-.4-.1-.4-.4,0-.9-.5-1.5-1.2-2.1-.1-.1-.2-.2-.4,0"/>
  <path class="st0" d="M65.4,42c-.8,0-1.4,1.3-1.3,2.5,0,1.2,1,2.4,1.9,2.4-.1-.1-.2-.2-.3-.3-.2-.2-.5-.5-.6-.7-.7-1.1-.7-2.2,0-3.3,0-.1.2-.3.2-.4,0,0,0-.2,0-.3"/>
  <path class="st0" d="M52.4,22.9c-.4,0-.6,0-.8,0-.5,0-.9.3-1.2.6-.2.2-.2.4,0,.6.5.4,1.3.3,1.6-.3.2-.2.2-.5.4-.9"/>
  <path class="st0" d="M52.2,13c.3-.3.8-.4.9-1-.6.3-1.1.6-1.7.9.1.3.4.5.7.5.4,0,.8,0,1.2.2.1,0,.3,0,.5,0,.2,0,.4-.2.4-.5,0-.2,0-.4-.2-.4-.2.2-.3.4-.4.4-.4,0-.9,0-1.3,0s0,0-.1,0"/>
  <path class="st0" d="M51.4,15.1c-.5,0-.5,0-.8-.6-.2-.3-.3-.7-.5-1-.3-.4-1.4-.7-1.8-.4,0,0-.1.2-.1.2,0,0,.1.2.2.2.1,0,.3,0,.4,0,.5,0,.8,0,1,.5.1.3.3.5.5.7.1.2.3.4.5.5.2.2.4.2.6-.2"/>
  <path class="st0" d="M51.8,16s0,0,0-.1c-.2,0-.3,0-.5,0-.4.1-.6,0-.9-.3-.2-.3-.4-.5-.7-.8-.1-.1-.3-.2-.4-.3,0,0-.2,0-.3,0,0,0,0,.2,0,.3.5.3.9.9,1.2,1.4,0,.1.2.2.4,0,.3-.1.6-.2.9-.4,0,0,.2-.1.2-.2"/>
  <path class="st0" d="M48.7,23.7c-.3,0-.6-.1-.8-.1-.2,0-.6.2-.6.4,0,.3,0,.5.2.7.2.2.4.1.6,0,.5-.1.5-.5.7-1"/>
  <path class="st0" d="M50.1,23.3c-.8,0-1.3.6-1.2,1.2.3,0,.6-.1.9-.2,0,0,.2-.2.2-.3,0-.2,0-.5.1-.7"/>
  <path class="st0" d="M32.6,36.2c.4-.5.2-1.8-.3-2.4-.2.3-.1.6,0,.8,0,.5.1,1,.4,1.6"/>
  <path class="st0" d="M71.8,35.6c.2.3,0,.6,0,1,0,.2,0,.5,0,.7,0,.2.3.3.5.3,0-.3,0-.6,0-.9,0-.4,0-.8-.5-1"/>
  <path class="st0" d="M73.4,37.3c.2.2.4.4.5.5.2.2.4.3.6.2.3,0,.5-.4.5-.7,0,0,0,0,0,0-.4.3-.7.2-1,0-.2-.2-.4-.1-.6,0"/>
  <path class="st0" d="M73,37.1c.4,0,.7-.1.7-.4,0-.5-.2-1-.8-1.1,0,.3.2.5.2.8,0,.3,0,.5-.1.8"/>
  <path class="st0" d="M67.6,27.6c-.2-.6.2-.9.7-1.1,0,0,0,0,.1-.2-.5-.2-.8,0-1.2.3-.2.1-.3.3-.2.6,0,.2.2.4.5.4"/>
  <path class="st0" d="M56.9,22.4c0,.3.2.5.4.5.3,0,.5.2.8,0,0,0,.2-.2.1-.3,0,0-.2-.2-.3-.2-.3,0-.7,0-1.1,0"/>
  <path class="st0" d="M47.9,22.6c.4.5.6.5,1.4.2-.3-.4-.8-.4-1.4-.2"/>
  <path class="st0" d="M56,15.7c-.3.4-.3.7-.2,1.2,0,.3,0,.5-.3.7,0,0-.1.1-.2.2,0,0,.1.1.2.1.4,0,.8-.5.7-.9-.2-.4-.2-.8-.1-1.3"/>
  <path class="st0" d="M56.3,17.7c-.1.3,0,.4.2.5.4.2.8.4,1.2.5,0-.3-.1-.5-.3-.6-.2-.1-.4-.2-.7-.3-.1,0-.3,0-.4-.1"/>
  <path class="st0" d="M55.1,22.3c.2.5.7.6,1.3.4,0-.2,0-.4-.3-.4-.3,0-.6,0-1,0"/>
  <path class="st0" d="M49.9,22.3c.3.5.6.5,1.4.2-.4-.5-.9-.2-1.4-.2"/>
  <path class="st0" d="M41.5,28.5s0,0,0,.1c.2,0,.4,0,.7,0,.1.2.2.3.4.6,0-.5.1-.8.1-1.1-.4.1-.8.2-1.2.4"/>
  <path class="st0" d="M51.8,22.1c0,.2,0,.3.1.3,0,0,.2.1.3.1.4,0,.8.1,1.3,0-.5-.5-1.1-.4-1.6-.5"/>
  <path class="st0" d="M45.2,44.8c0-.2,0-.2,0-.3,0,0-.1-.2-.2-.3,0,0-.2,0-.3.2,0,.1-.1.2-.2.4,0,.1,0,.3,0,.3,0,0,.2,0,.3,0,.1,0,.2-.2.3-.3"/>
  <path class="st0" d="M49,28.9c0-.2,0-.4,0-.6,0,0-.1-.2-.2-.2-.1,0-.3,0-.3.1,0,.2,0,.4,0,.5,0,.2.3.2.5.1"/>
  <path class="st0" d="M73.1,37.8c.3.7.6.9,1,.8-.4-.7-.6-.9-1-.8"/>
  <path class="st0" d="M31.9,32c.2.3.3.5.4.7.2.2,0,.6.3.7.3-.6,0-1.2-.7-1.5"/>
  <path class="st0" d="M57,16c0,.3-.1.5-.2.7,0,.2-.2.4-.4.6.7-.2.9-.7.6-1.3"/>
  <path class="st0" d="M71.4,38.6c.3.2.7,0,1-.2.1-.1.2-.3,0-.4-.4.2-.7.4-1.1.6"/>
  <path class="st0" d="M70.8,38.1c.6,0,.9-.1,1-.5-.4,0-.6.2-1,.5"/>
  <path class="st0" d="M54.6,16.2c-.2.2-.4.3-.4.6.4,0,.5,0,.4-.6"/>
  <path class="st0" d="M55.2,16.8c-.4.3-.5.4-.2.7.2-.2.3-.4.2-.7"/>
  <path class="st0" d="M55.9,19.2c-.2,0-.4,0-.6.2.1,0,.2.2.3.2.2,0,.3-.2.3-.4"/>
  <path class="st0" d="M55.9,20.2c-.2,0-.2,0-.3,0-.1,0-.2,0-.4.1,0,0,0,.2,0,.2.1,0,.3,0,.4,0,0,0,0-.1.2-.2"/>
  <path class="st0" d="M54.6,22.7c-.3-.3-.4-.3-.7,0,.2.2.4.2.7,0"/>
  <path class="st0" d="M55.7,18.2c-.2.1-.4.2-.2.5q.3-.2.2-.5"/>
  <path class="st0" d="M67.3,24.9s0,0,0-.1c-.2,0-.4,0-.6.1,0,0,0,0,0,.1.2,0,.4,0,.6-.1"/>
  <path class="st0" d="M66.2,26.9c.2,0,.3-.1.3-.3s-.1-.3-.3-.3-.3.1-.3.3.1.3.3.3"/>
  <path class="st0" d="M39.1,26.5c.2,0,.3-.1.3-.3s-.1-.3-.3-.3-.3.1-.3.3.1.3.3.3"/>
  <path class="st0" d="M83.8,37.2c0,0,0,.2,0,.2h.1c0,.1.2.1.2,0l6-8c0,0,0-.2,0-.2h-.1c0-.1-.2-.1-.2,0l-6,8Z"/>
  <path class="st0" d="M91.8,26.2c0,0,0,.2,0,.2h.1c0,.1.2.1.2,0l1.8-2.4c0,0,0-.2,0-.2h-.1c0-.1-.2-.1-.2,0l-1.8,2.4Z"/>
  <path class="st0" d="M93,27.1c0,0,0,.2,0,.2h.1c0,.2.2.1.2,0l2.4-2.9c0,0,0-.1,0-.2h-.1c0-.2-.2-.2-.2,0l-2.4,2.9Z"/>
  <path class="st0" d="M94.1,29.4c0,0,0,.1,0,.2h0c0,.2.1.2.2.2l.8-.6c0,0,0-.1,0-.2h0c0-.2-.1-.2-.2-.2l-.8.6Z"/>
  <rect class="st0" x="93.5" y="27" width="3" height=".4" rx=".1" ry=".1" transform="translate(8.6 75.1) rotate(-45)"/>
  <path class="st0" d="M90.5,25.3c0,0,0,.2,0,.2h.1c0,.1.2.1.2,0l.9-1.4c0,0,0-.2,0-.2h-.1c0-.1-.2-.1-.2,0l-.9,1.4Z"/>
  <path class="st0" d="M84.2,38.2c0,0,0,.2,0,.2h.1c0,.2.2.1.2,0l6.4-8.1c0,0,0-.2,0-.2h-.1c0-.2-.2-.1-.2,0l-6.4,8.1Z"/>
  <path class="st0" d="M84.2,39.4c0,0,0,.2,0,.2h.1c0,.2.2.2.2,0l7.1-8.3c0,0,0-.2,0-.2h-.1c0-.2-.1-.2-.2,0l-7.1,8.3Z"/>
  <path class="st0" d="M91.5,32.2c0,0,0-.1,0-.1s0,0,0,0l-7.9,9.2c0,0,0,.2,0,.2h.1c0,.2.2.2.2,0l7.6-8.9v-.6Z"/>
  <path class="st0" d="M83.4,36.3c0,0,0,.2,0,.2h.1c0,.1.2.1.2,0l5.7-8.2c0,0,0-.2,0-.2h-.1c0-.1-.2-.1-.2,0l-5.7,8.2Z"/>
  <path class="st0" d="M90.5,22.9c0,0-.2,0-.2,0l-1.5,3.8-6.3,9.2.3.2c0,0,.2,0,.2,0l6.3-9.1h0s0,0,0-.1l1.6-3.9h-.3Z"/>
  <path class="st0" d="M82.4,38.5c.2,0,.3-.1.3-.3s-.1-.3-.3-.3-.3.1-.3.3.1.3.3.3"/>
  <path class="st0" d="M82.7,39.8c.2,0,.3-.1.3-.3s-.1-.3-.3-.3-.3.1-.3.3.1.3.3.3"/>
  <path class="st0" d="M83.7,39.5c.2,0,.3-.1.3-.3s-.1-.3-.3-.3-.3.1-.3.3.1.3.3.3"/>
  <path class="st0" d="M83.4,38.2c.2,0,.3-.1.3-.3s-.1-.3-.3-.3-.3.1-.3.3.1.3.3.3"/>
  <path class="st0" d="M82.7,37.3c.2,0,.3-.1.3-.3s-.1-.3-.3-.3-.3.1-.3.3.1.3.3.3"/>
  <path class="st0" d="M83.3,40.7c.2,0,.3-.1.3-.3s-.1-.3-.3-.3-.3.1-.3.3.1.3.3.3"/>
  <path class="st0" d="M94.6,39c.3,1.3-.4,2.7-1.7,3.2-.5.2-.7.5-.7,1,0,.4,0,.9,0,1.3,0,.7-.3,1.2-1,1.4-.3,0-.6.2-1,.2-.7,0-1.4,0-2.1,0-.1,0-.3,0-.4,0-.6-.2-.9-.5-.8-1.1,0-.7.2-1.4.3-2,0-.7,0-1.5,0-2.2,0-.5,0-1,.4-1.4.2-.2.4-.5.8-.8,0,.3,0,.5.1.7.1,1.4.7,2.6,2,3.3.1,0,.4.2.7.6,0,0,.4,2.4.3,2.4-.7.1-3,.5-4.1,0,0,0,.3-2.3.2-2.3.1-.3,0-1.4.2-1.5.4-.2.2-.6,0-.9-.1-.3.7.8.5.6-.2-.2-.4-.1-.4.2,0,.4-.1.9-.2,1.3-.1.7-.2,1.4-.3,2,0,.4,0,.4.3.6.9.3,1.5.3,2.4,0,.3,0,.9.3,1.2.1.4-.2.5-.8.5-1.2,0-.4,0-.8,0-1.2,0-.3-.1-.6-.4-.8-1.1-.6-1.8-1.7-2.3-2.8-.3-.8-.3-1.6,0-2.4.3-.7.7-1.4,1.4-1.9.4-.3.9-.5,1.4-.8,0,0,0-.1,0-.3-.2-.8-.2-1.6,0-2.4,0-.2,0-.3,0-.5,0-.5,0-.9-.5-1.2-.9-.7-1.5-1.6-1.8-2.7,0-.4,0-.8.2-1.2.2-.2.4-.2.7,0,.7.5,1.4,1.1,2.1,1.6.3.2.5.5.6.9.2.8.4,1.6.6,2.5,0,.3.2.6.4.8.7,1,.9,2.1.6,3.3l-.3,3.6Z"/>
  <path class="st0" d="M88.6,27.6c.3-.4.2-1-.3-1.3-.4-.3-1.3-.4-1.6,0-.3.4.1,1.2.5,1.5.4.3,1,.2,1.3-.2"/>
  <path class="st0" d="M87.4,29.2c.2-.3.1-.8-.2-1-.3-.2-1-.3-1.3,0-.2.3,0,1,.4,1.2.3.2.8.1,1-.2"/>
  <path class="st0" d="M52.9,47.7l-6.1-3.2s-.7-.4-.7-1.1v-13.3c0-.5.4-.9.9-.9h11.9c.5,0,.9.4.9.9v13.3c0,.7-.7,1.1-.7,1.1l-6.1,3.2ZM47,29.8c-.1,0-.3.1-.3.3v13.3c0,.4.4.6.4.6l5.8,3,5.8-3s.4-.2.4-.6v-13.3c0-.1-.1-.3-.3-.3h-11.9Z"/>
  <rect class="st0" x="46.7" y="37.5" width="12.7" height=".6"/>
  <polygon class="st0" points="53 38.1 48.5 29.7 49 29.4 53 36.8 56.9 29.4 57.4 29.7 53 38.1"/>
  <path class="st0" d="M47.9,36.7c0,.1,1.1-.3,1.7-.7.6-.4,1.4-1.1,1.3-1.3-.1-.1-1.1.3-1.7.7-.6.4-1.4,1.1-1.3,1.3M47.6,33.7s0-.3.1-.4c.1,0,.4,0,.4,0,0,0,.6-.2,1.1.2.4.4,1.1.7,1.5,1,0,0,.2,0,.2,0,.2.2-.4.9-1.3,1.5-.9.6-1.7.9-1.9.6,0,0,0-.1,0-.2,0-.5,0-1.3-.3-1.8-.2-.6.1-1.1.2-1.1"/>
  <path class="st0" d="M48.3,36.3c.1.1.3.2.4,0,.2-.1.2-.3,0-.5,0,0,0,0,0,0-.2.2-.4.3-.5.5"/>
  <path class="st0" d="M51.4,33h.5s0,0,0,0c0,.1.1.2.2.2s.2-.1.2-.2,0,0,0,0h.4c0,0,.1,0,.1-.1-.1-.1-.3-.3-.3-.8s-.2-.4-.4-.4c0,0,0,0,0,0,0,0,0,0,0,0s0,0,0,0,0,0,0,0c-.3,0-.4.2-.4.4,0,.5-.2.7-.3.8,0,0,0,.1.1.1"/>
  <path class="st0" d="M50.5,31.4h.5s0,0,0,0c0,.1.1.2.2.2s.2-.1.2-.2,0,0,0,0h.4c0,0,.1,0,.1-.1-.1-.1-.3-.3-.3-.8s-.2-.4-.4-.4c0,0,0,0,0,0,0,0,0,0,0,0s0,0,0,0,0,0,0,0c-.3,0-.4.2-.4.4,0,.5-.2.7-.3.8,0,0,0,.1.1.1"/>
  <path class="st0" d="M53.2,33h.5s0,0,0,0c0,.1.1.2.2.2s.2-.1.2-.2,0,0,0,0h.4c0,0,.1,0,.1-.1-.1-.1-.3-.3-.3-.8s-.2-.4-.4-.4c0,0,0,0,0,0,0,0,0,0,0,0s0,0,0,0,0,0,0,0c-.3,0-.4.2-.4.4,0,.5-.2.7-.3.8,0,0,0,.1.1.1"/>
  <path class="st0" d="M52.3,31.4h.5s0,0,0,0c0,.1.1.2.2.2s.2-.1.2-.2,0,0,0,0h.4c0,0,.1,0,.1-.1-.1-.1-.3-.3-.3-.8s-.2-.4-.4-.4c0,0,0,0,0,0,0,0,0,0,0,0s0,0,0,0,0,0,0,0c-.3,0-.4.2-.4.4,0,.5-.2.7-.3.8,0,0,0,.1.1.1"/>
  <path class="st0" d="M52.3,34.8h.5s0,0,0,0c0,.1.1.2.2.2s.2-.1.2-.2,0,0,0,0h.4c0,0,.1,0,.1-.1-.1-.1-.3-.3-.3-.8s-.2-.4-.4-.4c0,0,0,0,0,0,0,0,0,0,0,0s0,0,0,0,0,0,0,0c-.3,0-.4.2-.4.4,0,.5-.2.7-.3.8,0,0,0,.1.1.1"/>
  <path class="st0" d="M54.2,31.4h.5s0,0,0,0c0,.1.1.2.2.2s.2-.1.2-.2,0,0,0,0h.4c0,0,.1,0,.1-.1-.1-.1-.3-.3-.3-.8s-.2-.4-.4-.4c0,0,0,0,0,0,0,0,0,0,0,0s0,0,0,0,0,0,0,0c-.3,0-.4.2-.4.4,0,.5-.2.7-.3.8,0,0,0,.1.1.1"/>
  <path class="st0" d="M33.1,60.2s0,0-.1,0c0,0-.1,0-.2-.2,0,0-.5-1.2-1.2-1.8-1-.9-2.1-.9-2.1-.9-.1,0-.2,0-.3-.2,0-.1,0-.3.1-.3,0,0,1.3-1,3.6-1.6l.2.6c-1.3.3-2.2.8-2.7,1.1.5.1,1.1.4,1.7,1,.6.5,1,1.3,1.3,1.8.5-.2,1.4-.6,2.2-.7.4,0,.7,0,.9,0l-.2-1.4h.6c0,0,.2,1.7.2,1.7,0,.1,0,.2-.1.3,0,0-.2,0-.3,0,0,0-.3,0-1.1,0-.9.1-2.2.7-2.3.7,0,0,0,0-.1,0"/>
  <path class="st0" d="M72.8,60.1s0,0-.1,0c0,0-1.3-.6-2.3-.7-.8,0-1,0-1.1,0,0,0-.2,0-.3,0,0,0-.1-.2-.1-.3l.2-1.8h.6c0,0-.2,1.5-.2,1.5.2,0,.5,0,.9,0,.7,0,1.7.5,2.2.7.2-.4.7-1.2,1.3-1.8.6-.5,1.2-.8,1.7-1-.6-.3-1.5-.7-2.7-1.1l.2-.6c2.3.6,3.5,1.5,3.6,1.6.1,0,.1.2.1.3,0,.1-.2.2-.3.2s-1,0-2.1.9c-.7.7-1.2,1.8-1.2,1.8,0,0,0,.1-.2.2,0,0,0,0-.1,0"/>
  <path class="st0" d="M34.6,57.1c0,0,0,0-.1,0,0,0-.1-.1-.1-.2l-1.2-4.3c0-.2,0-.3.2-.4,0,0,10-2.9,19.5-2.9s19.7,2.8,19.8,2.8c0,0,.1,0,.2.1,0,0,0,.2,0,.2l-1.3,4.2c0,.2-.2.2-.4.2,0,0-8.3-2.3-18.3-2.3s-18.1,2.4-18.2,2.4c0,0,0,0,0,0M33.7,52.8l1,3.7c1.6-.4,9.1-2.4,18-2.4s16.6,1.8,18.2,2.2l1.1-3.6c-1.7-.5-10.8-2.7-19.3-2.7s-17.4,2.3-19.1,2.7"/>
  <path class="st0" d="M55.7,38.7c.5.7,1,.8,1.3.3"/>
  <path class="st0" d="M60.8,48.2c-.2,0-.3,0-.4-.1-.5-.5-1.1-.6-1.7-.8-.3,0-.5-.2-.8-.3.5-.3.9-.2,1.4,0,.5.2.9.4,1.4.6,0,0,.2,0,.2.1.2,0,1.8,0,2.1,0-.6-.3-1.2-.6-1.8-.4-.3,0-.3,0-.4-.3,0,0,0-.1,0-.2,0,0,0-.1,0-.1.2,0,.4,0,.6,0,.2,0,.4,0,.5,0,.6.3,1.2.5,1.8.8.2,0,.3.1.5.1.5,0,1.1,0,1.6,0,.1,0,.3,0,.4,0,.1,0,.3.1.3.2,0,.1,0,.3-.2.3,0,0-.2,0-.4,0"/>
  <path class="st0" d="M47.3,41.5c0-.3.1-.4.3-.6.9-.9,2-1.6,3.3-2,.3,0,.6-.2.9-.3.2,0,.3,0,.6,0,0,.4,0,.7,0,1,.5.2,1-.4,1.4.2-.4,0-.8,0-1.2.2-.4.1-.7.4-1.2.6.1-.5.3-.8.4-1.3-.3,0-.5,0-.7,0-.8.2-1.4.5-2,1-.5.3-1,.7-1.5,1.1,0,0,0,0-.2,0"/>
  <path class="st0" d="M49.4,44.4c.2-.2.8-.2,1-.2.1,0,.4.2.6.2.3,0,.8.1,1.3,0,0,.2-.5.5-.6.5-.2,0-.6,0-.8,0-.4,0-.9-.4-1.4-.5"/>
  <path class="st0" d="M52.8,44.6c.2-.2.8-.2,1-.2.1,0,.4.2.6.2.3,0,.8.1,1.3,0,0,.2-.5.5-.6.5-.2,0-.6,0-.8,0-.4,0-.9-.4-1.4-.5"/>
  <path class="st0" d="M51.8,45.6c.2-.2.6-.2.9-.2.1,0,.4.2.5.2.3,0,.7.1,1.1,0,0,.2-.4.4-.5.4-.2,0-.5,0-.7,0-.3,0-.8-.4-1.2-.5"/>
  <path class="st0" d="M52.7,40.4c-.9.3-1.3,2.1-.5,2.6"/>
  <path class="st0" d="M56.8,42.1c-.6.2-.9,1.6-.4,1.9"/>
  <path class="st0" d="M56.1,39.5c-1.2.5-1.8,3-.7,3.6"/>
  <path class="st0" d="M54.6,39.4c-1.2.5-1.8,3-.7,3.6"/>
  <path class="st0" d="M50.7,42.6c-.2-.1-.4-.2-.7-.3-.2,0-.4-.2-.7-.3.2-.2.4-.1.6,0,.5.1.5.1.8-.3.2-.2.4-.5.6-.7,0,0,.2,0,.3-.1"/>
  <path class="st0" d="M48.6,42.3s.8,1.3,1.8,1.5c1,.3,2.7.2,3.4.2s2.8,0,2.8,0v-.6s-3.7,0-3.9,0c-.2,0-.6,0-1.6,0-1.2-.1-2.4-1.1-2.4-1.1"/>
  <path class="st0" d="M96.9,62h-14.8c-.2,0-.3-.1-.3-.3s.1-.3.3-.3h14.8c.2,0,.3.1.3.3s-.1.3-.3.3"/>
  <path class="st0" d="M95.6,79.6h-15c-.2,0-.3-.1-.3-.3s.1-.3.3-.3h15c.2,0,.3.1.3.3s-.1.3-.3.3"/>
  <path class="st0" d="M94.8,79.6c-.2,0-.3-.1-.3-.3v-6.5c0-.2.1-.3.3-.3s.3.1.3.3v6.5c0,.2-.1.3-.3.3"/>
  <path class="st0" d="M84,72.7c0,0-.2,0-.2,0l-3.3-3.3c0,0,0-.1,0-.2v-2.8c0-.2.1-.3.3-.3h0c.2,0,.3.1.3.3v2.7s3.2,3.2,3.2,3.2c.1.1.1.3,0,.4,0,0-.1,0-.2,0"/>
  <path class="st0" d="M93.2,72.1c0,0-.2,0-.2,0-.1-.1-.1-.3,0-.4l1.9-1.9v-1c0,0-13.5-1.7-13.5-1.7-.2,0-.3-.2-.3-.3,0-.2.2-.3.3-.3l13.7,1.7c.1,0,.2.1.3.3v1.3c.1,0,.1.2,0,.2l-2,2c0,0-.1,0-.2,0"/>
  <path class="st0" d="M87.4,71.4c-.2,0-.3-.1-.3-.3v-9.4c0-.2.1-.3.3-.3s.3.1.3.3v9.4c0,.2-.1.3-.3.3"/>
  <rect class="st0" x="84.2" y="61.7" width=".6" height="17.6" transform="translate(-.3 .4) rotate(-.3)"/>
  <rect class="st0" x="92.2" y="61.7" width=".6" height="17.6"/>
  <path class="st0" d="M92.2,72.1h-6.9c-.2-.1-.3-.3-.3-.4,0-.2.1-.3.3-.3h6.9c.2.1.3.3.3.4,0,.2-.1.3-.3.3"/>
  <path class="st0" d="M87.4,75.5c-.2,0-.3-.1-.3-.3v-2.8c0-.2.1-.3.3-.3s.3.1.3.3v2.8c0,.2-.1.3-.3.3"/>
  <path class="st0" d="M88.8,76.5c-.2,0-.3-.1-.3-.3,0-.2,0-.3.3-.3l2.9-.3c.2,0,.3,0,.3.3,0,.2,0,.3-.3.3l-2.9.3s0,0,0,0"/>
  <path class="st0" d="M93.1,75.8c-.1,0-.3-.1-.3-.3,0-.2,0-.3.3-.3l1.1-.2c.2,0,.3,0,.3.3,0,.2,0,.3-.3.3l-1.1.2s0,0,0,0"/>
  <path class="st0" d="M94.2,75.5s0,0,0,0l-1.1-.3-1.4-.3-4.1-1c-.2,0-.3-.2-.2-.4,0-.2.2-.3.4-.2l4.1,1,1.4.3,1.1.3c.2,0,.3.2.2.4,0,.1-.2.2-.3.2"/>
  <path class="st0" d="M87.6,68.3c0,0-.1,0-.2,0-.1-.1-.1-.3,0-.4l4.2-4.8c.1-.1.3-.1.4,0,.1.1.1.3,0,.4l-4.2,4.8c0,0-.1.1-.2.1"/>
  <path class="st0" d="M82.4,69.2c-.7,0-1.2-.5-1.2-1.2s.5-1.2,1.2-1.2,1.2.5,1.2,1.2-.5,1.2-1.2,1.2M82.4,67.4c-.3,0-.6.3-.6.6s.3.6.6.6.6-.3.6-.6-.3-.6-.6-.6"/>
  <path class="st0" d="M87.4,77.7c-.7,0-1.2-.5-1.2-1.2s.5-1.2,1.2-1.2,1.2.5,1.2,1.2-.5,1.2-1.2,1.2M87.4,75.8c-.3,0-.6.3-.6.6s.3.6.6.6.6-.3.6-.6-.3-.6-.6-.6"/>
  <path class="st0" d="M91.2,71.8c-.7,0-1.2-.5-1.2-1.2s.5-1.2,1.2-1.2,1.2.5,1.2,1.2-.5,1.2-1.2,1.2M91.2,70c-.3,0-.6.3-.6.6s.3.6.6.6.6-.3.6-.6-.3-.6-.6-.6"/>
  <path class="st0" d="M52.8,108.5c-13.2,0-23.9-10.7-23.9-23.9s10.7-23.9,23.9-23.9,23.9,10.7,23.9,23.9-10.7,23.9-23.9,23.9M52.8,63.5c-11.6,0-21,9.4-21,21s9.4,21,21,21,21-9.4,21-21-9.4-21-21-21"/>
  <rect class="st0" x="3.7" y="49.6" width="22.5" height="2.8"/>
  <rect class="st0" x="80.3" y="49.6" width="22.1" height="2.8"/>
  <path class="st0" d="M38,68l-11.7-8.6c-.9-.6-1.5-1.9-1.5-2.9V11.2h2.8v45.3c0,.2.2.6.3.7l11.7,8.6-1.7,2.3Z"/>
  <path class="st0" d="M68.1,68.2l-1.7-2.3,11.7-8.6c.1-.1.3-.5.3-.7V11.3h2.8v45.3c0,1.1-.6,2.3-1.5,2.9l-11.7,8.6Z"/>
  <path class="st0" d="M52.9,115.9c-.6,0-1.3-.2-1.8-.5L3.6,81.9c-.9-.6-1.5-1.9-1.5-3V12.3c0-1.4,1.2-2.6,2.6-2.6h31.1C40.1,3.9,45.5,1.2,52.8,1.2s13,2.7,17.4,8.5h31.1c1.4,0,2.6,1.2,2.6,2.6v66.6c0,1.1-.6,2.3-1.5,3l-47.7,33.5c-.5.4-1.1.5-1.8.5M5,12.6v66.3c0,.2.2.5.3.6l47.5,33.5s.2,0,.2,0l47.6-33.5c.1,0,.3-.5.3-.6V12.6h-32.3l-.4-.6c-3.8-5.4-8.8-7.9-15.5-7.9s-11.3,2.4-15.2,7.9l-.4.6H5Z"/>
  <path class="st0" d="M32.1,143.1s-5.8-1.5-12.3-2c-6.5-.5-13.6,1.7-13.6,1.7l2-8.8s3.4-1.3,10.2-1.7c3.2-.2,6.4.2,8.9.6v-.5c-2.5-.4-5.7-.8-8.9-.6-6.7.4-10.2,1.7-10.3,1.8-.2,0-.3.2-.3.4l-2,8.8c0,.2,0,.4.2.5.1.1.3.2.5.1,0,0,7-2.2,13.4-1.7,6.4.5,12.2,2,12.2,2,0,0,0,0,.1,0,.1,0,.2,0,.3-.1.1,0,.2-.2.2-.4v-4.9c-.2,0-.4.1-.5.2v4.7Z"/>
  <path class="st0" d="M31.6,142.5c-1.7-.4-6.5-1.5-11.8-1.9-.7,0-1.4,0-2,0-4.6,0-9.1,1.1-10.9,1.6l1.8-7.7c.9-.3,4.2-1.3,9.8-1.6,3.1-.2,6.4.2,8.9.7v-.5c-2.5-.4-5.7-.8-8.9-.6-6.7.4-10.1,1.7-10.1,1.7l-2,8.8s7-2.2,13.6-1.7c6.5.5,12.3,2,12.3,2v-4.7c-.2,0-.4.2-.5.2v3.8Z"/>
  <path class="st0" d="M100.4,142.7l-2-8.8c0-.2-.2-.3-.3-.4-.1,0-3.6-1.4-10.3-1.8-3.2-.2-6.5.2-9,.6v.5c2.5-.5,5.8-.8,9-.7,6.7.4,10.2,1.7,10.2,1.7l2,8.8s-7.1-2.2-13.6-1.7c-6.5.5-12.3,2-12.3,2v-4.9c-.1,0-.3-.1-.5-.2v5.1c0,.2,0,.3.2.4,0,0,.2.1.3.1s0,0,.1,0c0,0,5.8-1.5,12.2-2,6.3-.5,13.3,1.7,13.4,1.7.2,0,.4,0,.5-.1.1-.1.2-.3.1-.5"/>
  <path class="st0" d="M87.7,132.8c5.6.3,8.9,1.3,9.8,1.6l1.8,7.7c-2.1-.6-7.6-1.9-12.9-1.5-5.2.4-10.1,1.5-11.8,1.9v-4c-.1,0-.3-.1-.5-.2v4.9s5.8-1.5,12.3-2c6.5-.5,13.6,1.7,13.6,1.7l-2-8.8s-3.4-1.4-10.2-1.7c-3.2-.2-6.5.2-9,.7v.5c2.5-.5,5.8-.8,9-.7"/>
  <path class="st0" d="M28.1,128.3s9.4-6.7,24.7-6.7,25,6.8,25,6.8v4.1c.3,0,.6-.1.9-.2v-4c0-.3-.2-.6-.4-.7-.4-.3-9.9-6.9-25.5-6.9s-24.8,6.5-25.2,6.8c-.2.2-.4.5-.4.7v4.1c.4,0,.7.1.9.2v-4.2Z"/>
  <path class="st0" d="M52.8,133.4c-9.2,0-16.2,2.1-20.3,3.9v1c4-1.7,11-3.9,20.3-3.9s16.8,2.1,20.8,3.8v-1c-4.1-1.7-11.2-3.7-20.8-3.7"/>
  <path class="st0" d="M28.2,133.1v-.5c-.3,0-.6-.1-.9-.2v.5c.3,0,.6.1.9.2"/>
  <path class="st0" d="M28.2,133.1v-.5c-.3,0-.6-.1-.9-.2v.5c.3,0,.6.1.9.2"/>
  <path class="st0" d="M32,137.4v1c.2,0,.3-.1.5-.2v-1c-.2,0-.3.1-.5.2"/>
  <path class="st0" d="M32,137.4v1c.2,0,.3-.1.5-.2v-1c-.2,0-.3.1-.5.2"/>
  <path class="st0" d="M28.2,133.6v-.5c-.3,0-.6-.1-.9-.2v.5c.3,0,.6.1.9.2"/>
  <path class="st0" d="M28.2,133.6v-.5c-.3,0-.6-.1-.9-.2v.5c.3,0,.6.1.9.2"/>
  <path class="st0" d="M31.6,138.6c.2,0,.3-.2.5-.2v-1c-.2,0-.3.1-.5.2v1Z"/>
  <path class="st0" d="M31.6,138.6c.2,0,.3-.2.5-.2v-1c-.2,0-.3.1-.5.2v1Z"/>
  <path class="st0" d="M74.6,138.5c1.8.8,2.8,1.4,2.8,1.4.3.2.6.2.9,0,.3-.2.5-.5.5-.8v-5.7c-.4,0-.7.1-1,.2v-.5s0-.5,0-.5v-4.1s-9.5-6.8-25.1-6.8-24.7,6.7-24.7,6.7v4.2s0,.5,0,.5v.5c-.3,0-.6-.1-.9-.2v5.9c0,.3.2.6.5.8.1,0,.3.1.4.1s.3,0,.5-.2c0,0,1-.6,2.8-1.5v-1c.2,0,.3-.1.5-.2.2,0,.3-.1.5-.2,4.1-1.7,11.1-3.9,20.3-3.9s16.6,2,20.8,3.7c.2,0,.3.1.5.2.2,0,.3.1.5.2v1ZM52.8,132.4c-12.3,0-20.5,3.7-23.7,5.4v-9c1.8-1.2,10.6-6.2,23.7-6.2s22.2,5.2,24.1,6.4v8.6c-3.1-1.6-11.4-5.2-24.1-5.2"/>
  <path class="st0" d="M77.9,133.1c.3,0,.6-.1.9-.2v-.5c-.3,0-.6.1-.9.2v.5Z"/>
  <path class="st0" d="M77.9,133.1c.3,0,.6-.1.9-.2v-.5c-.3,0-.6.1-.9.2v.5Z"/>
  <path class="st0" d="M74.1,137.3c-.2,0-.3-.1-.5-.2v1c.2,0,.3.1.5.2v-1Z"/>
  <path class="st0" d="M74.1,137.3c-.2,0-.3-.1-.5-.2v1c.2,0,.3.1.5.2v-1Z"/>
  <path class="st0" d="M74.6,137.5c-.2,0-.3-.1-.5-.2v1c.2,0,.3.1.5.2v-1Z"/>
  <path class="st0" d="M74.6,137.5c-.2,0-.3-.1-.5-.2v1c.2,0,.3.1.5.2v-1Z"/>
  <path class="st0" d="M77.9,133.6c.3,0,.6-.1.9-.2v-.5c-.3,0-.6.1-.9.2v.5Z"/>
  <path class="st0" d="M77.9,133.6c.3,0,.6-.1.9-.2v-.5c-.3,0-.6.1-.9.2v.5Z"/>
  <path class="st0" d="M41.9,138.6v1.3c.5-.2,1-.5,1.5-.8v4.5h1.7v-6h-1.4c-.5.4-1.1.8-1.7,1"/>
  <path class="st0" d="M62.9,137.7h-2l-2.6,3.7v1.1h2.9v1.2h1.7v-1.2h.9v-1.1h-.9v-3.7ZM61.2,141.4h-1.4l1.4-2.2h0v2.2Z"/>
  <path class="st0" d="M50.5,140.5h0c.7-.1,1.4-.7,1.4-1.5,0-1.2-1.3-1.5-2.4-1.5s-2.4.3-2.4,1.5.7,1.3,1.4,1.4h0c-.9.1-1.6.6-1.6,1.6s1.4,1.7,2.5,1.7,2.8-.3,2.8-1.7-.7-1.5-1.6-1.5M49.5,138.5c.5,0,.8.3.8.8s-.3.7-.8.7-.8-.3-.8-.7.3-.8.8-.8M49.5,142.7c-.5,0-.9-.3-.9-.8s.4-.8.9-.8.9.3.9.8-.4.8-.9.8"/>
  <path class="st0" d="M55.9,139.6c-.6,0-1.1.2-1.4.8h0s.1-1.5.1-1.5h2.8v-1.1h-4.4v3.6c-.1,0,1.6,0,1.6,0,0-.3.3-.5.6-.5.6,0,.8.4.8.9s-.2,1.1-.8,1.1-.8-.3-.8-.7h-1.7c0,1.5,1.4,1.9,2.6,1.9s2.3-.8,2.3-2.2-.7-2-1.9-2"/>
  <path class="st0" d="M55.2,123.9c-1.1,0-1.6.4-1.7,1.6,0,1,.4,1.6,1,2.2,1,1.1,1,1.3,1,1.9,0,.5-.2.8-.7.8-.4,0-.6-.3-.5-.8v-.6s-1,0-1,0v.8c0,.9.5,1.3,1.4,1.3,1.2,0,1.6-.6,1.7-1.7,0-.9-.1-1.2-1-2.3-.9-1-.9-1.3-.9-1.8,0-.5.2-.8.6-.7.4,0,.5.3.5.7v.6s.9,0,.9,0v-.7c0-.5,0-.8-.2-.9-.2-.2-.6-.4-1.1-.5"/>
  <rect class="st0" x="43.3" y="124.4" width="1" height="7.1" transform="translate(-13.2 5.3) rotate(-6)"/>
  <path class="st0" d="M48.7,124h-1.6c0,0,.4,7.2.4,7.2h1c0,0-.2-3.1-.2-3.1h.6c1.3-.1,1.6-.5,1.5-2.1,0-1.6-.4-2-1.7-1.9M48.7,127.2h-.5s-.1-2.3-.1-2.3h.5c.7,0,.7,0,.8,1.1,0,1.1,0,1.2-.7,1.2"/>
  <polygon class="st0" points="59 131.3 61.6 131.5 61.7 130.7 60 130.6 60.3 128.2 61.9 128.3 61.9 127.5 60.3 127.3 60.6 125.1 62.2 125.3 62.3 124.5 59.7 124.2 59 131.3"/>
  <polygon class="st0" points="85.6 138.5 85.5 138.1 84.8 138.2 84.6 135.2 84.1 135.2 84.3 138.6 85.6 138.5"/>
  <polygon class="st0" points="91 138.5 91.4 138.6 91.6 135.6 92.1 135.7 92.1 135.3 90.6 135.2 90.6 135.6 91.1 135.6 91 138.5"/>
  <path class="st0" d="M86.9,138.5c.6,0,.8-.4.8-.8v-2.6c0,0-.6,0-.6,0v2.7c.1.2,0,.3-.2.4-.2,0-.3-.1-.3-.3v-2.7c0,0-.6,0-.6,0v2.6c.1.4.3.8.9.7"/>
  <path class="st0" d="M92.5,138.6l.2-.8h.7c0,0,0,.9,0,.9h.5s-.4-3.3-.4-3.3h-.5s-1,3.2-1,3.2h.5ZM93.2,135.8h0l.2,1.6h-.6s.4-1.6.4-1.6Z"/>
  <path class="st0" d="M95.2,138.9c.5,0,.8-.2.8-.7,0-.4,0-.6-.4-1.1-.4-.5-.4-.6-.4-.9,0-.3.1-.4.3-.3.2,0,.2.1.2.3v.3s.4,0,.4,0v-.3c0-.2,0-.4,0-.4-.1-.1-.3-.2-.5-.2-.5,0-.8.2-.8.7,0,.5.2.7.4,1.1.4.5.4.6.4.9,0,.2,0,.4-.3.4-.2,0-.3-.2-.2-.4v-.3s-.4,0-.4,0v.4c0,.4.2.6.6.7"/>
  <path class="st0" d="M88.9,137h.3c.6,0,.8-.1.8-.9,0-.8,0-.9-.7-1h-.8s-.1,3.3-.1,3.3h.5s0-1.4,0-1.4ZM89,135.5h.2c.3,0,.3,0,.3.6,0,.5,0,.6-.4.5h-.2s0-1.1,0-1.1Z"/>
  <path class="st0" d="M82,137.9c0,.5.3.8.8.8.6,0,.8-.5.7-.9v-1.7c-.2-.5-.4-.8-1-.8-.6,0-.7.5-.7.9v1.7ZM82.6,135.7c.2,0,.3.1.4.5v1.7c.2.3,0,.4-.2.5-.2,0-.3-.1-.4-.4v-1.7c-.2-.3,0-.5.1-.5"/>
  <polygon class="st0" points="80.9 138.8 81.3 135.5 80.8 135.5 80.6 138.2 80.6 138.2 79.8 135.6 79.4 135.7 80.4 138.9 80.9 138.8"/>
  <polygon class="st0" points="13.4 138.3 13.1 135.4 12.7 135.5 12.9 138.8 14.2 138.7 14.1 138.3 13.4 138.3"/>
  <path class="st0" d="M19.3,135.1h-.8s-.1,3.3-.1,3.3h.7c.7,0,.8-.2.8-.9,0-.6,0-.7-.4-.8h0c.3,0,.4-.1.4-.8,0-.6,0-.8-.6-.8M19.4,137.5c0,.5,0,.6-.3.6h-.3s0-1.2,0-1.2h.3c.3,0,.3,0,.3.6M19.5,135.9c0,.5,0,.6-.3.6h-.3s0-1.1,0-1.1h.2c.3,0,.4.1.3.5"/>
  <path class="st0" d="M15.8,135.2l-.6,3.4h.5s.1-.9.1-.9h.7s.2.8.2.8h.5s-.9-3.3-.9-3.3h-.5ZM15.8,137.3l.2-1.6h0l.4,1.6h-.6Z"/>
  <path class="st0" d="M24.5,137.2h.2c.3,0,.4.1.3.4v.8c0,.1,0,.2,0,.3h.4c0-.1,0-.3,0-.4v-.7c0-.3,0-.5-.3-.5h0c.4,0,.5-.3.5-.7,0-.7,0-.9-.7-1h-.7c0,0-.2,3.3-.2,3.3h.5s.1-1.4.1-1.4ZM24.6,135.7h.2c.3,0,.3,0,.3.6,0,.5,0,.6-.5.5h-.1s0-1.1,0-1.1Z"/>
  <path class="st0" d="M21.9,138.5c.6,0,.8-.4.8-.8v-1.7c.1-.5,0-.8-.7-.9-.6,0-.8.4-.8.8v1.7c-.1.5,0,.8.6.9M21.7,136c0-.3.1-.5.3-.5.2,0,.3.2.3.5v1.7c-.1.3-.2.4-.4.4-.2,0-.3-.2-.3-.5v-1.7Z"/>
  <path class="st0" d="M69.1,55c-.1.3,0,.5.4.6.4.1.7,0,.8-.5,0-.3,0-.5-.2-.9-.2-.5-.2-.6-.2-.8,0-.2.2-.3.3-.2.1,0,.2.2.1.3v.2c0,0,.3.1.3.1v-.2c.1-.2.1-.3,0-.4,0-.1-.2-.2-.4-.3-.4-.1-.7,0-.8.4-.1.4,0,.6.2.9.3.5.2.6.2.8,0,.2-.1.3-.3.2-.1,0-.2-.2-.1-.3v-.2c0,0-.3-.1-.3-.1v.3ZM69.5,52.7h-.4c0,0-.5,2-.5,2,0,.2-.1.3-.3.2-.2,0-.2-.2-.2-.3l.5-2.1h-.4c0,0-.5,2-.5,2,0,.3,0,.7.5.8.5.1.7-.2.8-.5l.5-2.1ZM65.4,54.6h.3c0,0,.5-2.4.5-2.4h0s0,2.5,0,2.5h.4c0,0,.9-2.3.9-2.3h0l-.5,2.4h.4c0,0,.5-2.6.5-2.6h-.6c0-.1-.7,1.9-.7,1.9h0s0-2.1,0-2.1h-.6c0-.1-.5,2.6-.5,2.6ZM64.8,52.1h0v1.3s-.4,0-.4,0l.4-1.3ZM63.6,54.3h.4c0,0,.2-.6.2-.6h.6c0,0,0,.8,0,.8h.4c0,0-.1-2.7-.1-2.7h-.4c0,0-1,2.6-1,2.6ZM63.9,51.6h-.4s-.3,2.1-.3,2.1c0,.2-.1.3-.3.2-.2,0-.3-.1-.2-.3l.3-2.2h-.4s-.3,2.1-.3,2.1c0,.3,0,.7.6.7.5,0,.7-.2.7-.6l.3-2.1ZM61.4,51.6h.2c.2,0,.3.1.2.4,0,.4,0,.5-.3.5h-.2s0-.9,0-.9ZM61.3,52.8h.2c.2,0,.2.1.2.5,0,.4,0,.5-.3.5h-.2s.1-1,.1-1ZM60.8,54h.6c.5.1.6,0,.7-.6,0-.5,0-.6-.3-.7h0c.3,0,.4,0,.4-.6,0-.5,0-.7-.5-.7h-.7c0,0-.3,2.7-.3,2.7ZM60.1,53.9h.4s.3-2.7.3-2.7h-.4s-.3,2.7-.3,2.7ZM59.3,51.4h.2c.2,0,.3,0,.2.5,0,.4,0,.5-.4.4h0s0-.9,0-.9ZM58.7,53.8h.4s0-1.2,0-1.2h.1c.2,0,.3.1.3.4v.6c0,.1,0,.2,0,.2h.4c0,0,0-.2,0-.3v-.6c0-.3,0-.4-.3-.4h0c.3,0,.4-.2.4-.6,0-.6,0-.8-.5-.8h-.6c0,0-.2,2.7-.2,2.7ZM57.4,51.3h.5s-.2,2.5-.2,2.5h.4s.2-2.4.2-2.4h.5s0-.3,0-.3h-1.3c0,0,0,.2,0,.2ZM56.1,53.6h1c0,0,0-.3,0-.3h-.7s0-1,0-1h.6s0-.3,0-.3h-.6s0-.9,0-.9h.7s0-.3,0-.3h-1c0,0-.2,2.7-.2,2.7ZM55.1,51.2h.2c.2,0,.3,0,.2.5,0,.4,0,.5-.4.5h0s0-.9,0-.9ZM54.7,53.6h.4s0-1.2,0-1.2h.1c.2,0,.3,0,.3.3v.6c0,.1,0,.2,0,.2h.4c0,0,0-.2,0-.3v-.6c0-.3,0-.4-.3-.4h0c.3,0,.4-.2.4-.6,0-.6,0-.8-.6-.8h-.6s-.1,2.7-.1,2.7ZM52.4,53.5h.6c.6,0,.7-.2.8-.9v-.8c0-.8,0-1-.6-1h-.6s0,2.7,0,2.7ZM52.8,51.1h.2c.3,0,.4.2.4.6v.9c0,.5,0,.6-.4.6h-.2s0-2.1,0-2.1ZM51.7,53.5h.4s-.1-2.8-.1-2.8h-.4s.1,2.8.1,2.8ZM51.3,50.8h-.4s.1,2.2.1,2.2c0,.2,0,.3-.2.3-.2,0-.3,0-.3-.3v-2.2c-.1,0-.5,0-.5,0v2.1c.1.3.3.6.8.6.5,0,.6-.4.6-.7v-2.1ZM48.5,53.1c0,.4.2.7.7.6.2,0,.6,0,.9,0v-.3c-.2,0-.3,0-.4,0h0c0-.1.1-.3.1-.6v-1.3c-.1-.4-.3-.7-.8-.6-.5,0-.6.4-.6.8v1.4ZM48.8,51.6c0-.3,0-.4.2-.4.2,0,.3.1.3.4v1.4c.1.2,0,.4-.2.4-.2,0-.3-.1-.3-.3v-1.4ZM46.3,53.3c0,.4.2.7.7.6.5,0,.6-.4.6-.8v-1.4c-.2-.4-.3-.7-.8-.6-.5,0-.6.4-.6.8v1.4ZM46.5,51.8c0-.3,0-.4.2-.4.2,0,.3.1.3.4v1.4c.1.2,0,.4-.1.4-.2,0-.3-.1-.3-.3v-1.4ZM44.7,51.6h.5s.3,2.4.3,2.4h.4s-.3-2.5-.3-2.5h.5s0-.4,0-.4h-1.3c0,.1,0,.5,0,.5ZM43.4,54.2h.3s-.3-2.4-.3-2.4h0l.7,2.3h.5c0,0-.3-2.8-.3-2.8h-.4s.3,2.3.3,2.3h0l-.7-2.2h-.5c0,0,.3,2.8.3,2.8ZM42.1,52.1h0s.4,1.3.4,1.3h-.5c0,0,0-1.3,0-1.3ZM41.7,54.5h.4c0,0,0-.8,0-.8h.6c0,0,.2.6.2.6h.4c0,0-.9-2.7-.9-2.7h-.4c0,0-.2,2.9-.2,2.9ZM40.2,52.3h.5c0,0,.4,2.3.4,2.3h.4c0,0-.4-2.5-.4-2.5h.5c0,0,0-.4,0-.4l-1.3.2v.3ZM38.5,54.4c0,.4.3.6.8.5.5-.1.6-.5.5-.8l-.3-1.4c0-.4-.3-.6-.8-.5-.5.1-.6.5-.5.8l.3,1.4ZM38.6,52.9c0-.3,0-.4.2-.4.2,0,.3,0,.3.3l.3,1.4c0,.2,0,.4-.2.4-.2,0-.3,0-.3-.3l-.3-1.4ZM37,53h.2c.2,0,.3,0,.4.3,0,.4,0,.5-.2.5h0s-.2-.9-.2-.9ZM37.2,55.4h.4c0,0-.3-1.3-.3-1.3h.1c.2,0,.3,0,.4.2l.2.6c0,.1,0,.2.1.2h.3c0-.2,0-.3-.1-.4v-.6c-.2-.3-.3-.4-.6-.3h0c.3-.2.3-.3.2-.7-.1-.6-.2-.7-.8-.6h-.6c0,.1.7,2.8.7,2.8ZM35.8,55.8h.4c0-.1-.3-1.3-.3-1.3h.2c.5-.2.6-.4.4-1-.2-.6-.3-.7-.8-.6l-.6.2.8,2.6ZM35.5,53.4h.2c.2-.1.3,0,.4.3s.1.4-.1.5h-.2c0,0-.3-.8-.3-.8Z"/>
</svg>