<?xml version="1.0" encoding="UTF-8"?>
<svg id="Layer_1" xmlns="http://www.w3.org/2000/svg" version="1.1" viewBox="0 0 106 148.1">
  <!-- Generator: Adobe Illustrator 29.3.1, SVG Export Plug-In . SVG Version: 2.1.0 Build 151)  -->
  <defs>
    <style>
      .st0 {
        fill: none;
      }

      .st1, .st2 {
        fill: #202234;
      }

      .st2 {
        stroke: #fff;
        stroke-linejoin: round;
        stroke-width: 3px;
      }
    </style>
  </defs>
  <g>
    <path class="st1" d="M20.1,26.1c0-.6.7-1.9.7-1.9,0,0,0-.2,0-.2,0,0-1.4-1.3-1.6-1.7-.2-.4.4-.8.4-.8,0,0,0-.2,0-.2l-.8-.5c0,0-.2,0-.2,0l-3.1,4.5c0,0,0,.2,0,.2,0,0,3.5,1.4,4.2,5.1.8,3.7-1.8,5.6-2.7,5.8-.3,0-.6,0-.9,0v7.3s3.2,0,3.2,0c0,0,.1,0,0-.1l-.2-.7h-2c0,0-.1,0-.1-.1v-3.3c0,0,.1-.2.2-.2,0,0,3.7-1,4.6-3.9,1.1-3.6-1.6-8.6-1.6-9.3ZM18.3,25.7c-.8,0-1.4-.6-1.4-1.4s.6-1.4,1.4-1.4,1.4.6,1.4,1.4-.6,1.4-1.4,1.4ZM21,34.4c-.6,2.8-2.5,3.1-2.5,3.1,0,0,0,0,0,0,0,0,1-.7,1.7-2.6.6-1.5,0-3.6,0-3.6,0,0,0,0,0,0,0,0,1.1,1.4.7,3.1Z"/>
    <path class="st1" d="M9.8,36.3l-1.5,2.4c0,0,0,.2,0,.2l1.1.7c0,0,.2,0,.2,0l1.4-1.8c0,0,.1,0,.2,0,0,0,.4.5,1.1,1,.6.5,1.7.5,1.7.5,0,0,.1.1.1.2v4c0,0,0,.1.1.1h.9s0-7.2,0-7.2c-.2,0-.5,0-1.3-.5-1-.6-.3-2.5-.3-2.5,0,0-.1-.1-.2-.1h-7.3c0,0-.1,0-.1.1v2.5c0,0,0,.1,0,.1h3.7c0,0,.1.1,0,.2ZM9.9,33.9h2.8c0,0,.1.1.1.2v1.8h-.4c0,0-.1-.1-.1-.2v-.8c0,0,0-.2-.1-.2l-2.2-.7c0,0,0,0,0,0Z"/>
    <polygon class="st1" points="8.6 44.4 7.3 45.9 20.8 45.9 19.6 44.3 8.6 44.4"/>
    <polygon class="st1" points="8.8 43.7 13.3 43.7 13.4 42.9 9.4 42.9 8.8 43.7"/>
    <polygon class="st1" points="13.4 41.3 10.2 41.3 9.8 42.2 13.4 42.2 13.4 41.3"/>
    <path class="st1" d="M18.3,23.9c-.3,0-.5.2-.5.5s.2.5.5.5.5-.2.5-.5-.2-.5-.5-.5Z"/>
    <path class="st1" d="M14.4,27.8c0,0,.2,0,.2,0l.6-.8c0,0,0-.2,0-.2l-4-2.7-.6.9c0,0,0,.2,0,.2l3.9,2.6Z"/>
    <path class="st1" d="M9.2,30.3l1.1.7c.1,0,.3,0,.4,0l2-2.9h.2c.1.2.3.2.4,0v-.2c.2-.1.2-.3,0-.4l-.4-.3s0,0,0,0l-1.1-.7s0,0,0,0l-.4-.3c-.1,0-.3,0-.4,0v.2c-.2.1-.2.3,0,.4h.2c0,.1-2,3-2,3,0,.1,0,.3,0,.4Z"/>
    <path class="st1" d="M14.4,25.5l5.5-8c0,0,0-.2,0-.2l-1.4-.9c0,0-.2,0-.2,0l-5.6,8.1,1.5,1c0,0,.2,0,.2,0Z"/>
  </g>
  <g>
    <path class="st1" d="M29.8,76.7c-.1-.1-.8-.7-1.2-.5-.8.5-1.4.4-1.4.4,0,0-.1,0,0-.1l1.6-2.8c0,0,0-.1,0-.1,0,0-8.7-.2-10.6-.4-1.9-.1-5.7-.7-7.8-1.8-.2-.1-.6-.2-.6-.2,0,0-.1,0,0,0l1.7,5.6c0,0,.1.1.2,0,0,0,1.6.2,1.7-.7,0-.1.2.8,1,.9.5,0,.6,0,1.1-.3.5-.3.5-.4.5-.4,0,0,.7.5,1.4.4.7-.1.9-.3.9-.3,0,0,.2-.2.2-.1,0,0,0,.9,1,.9,1,0,1.4-.2,1.8-.3.4-.2.6-.4.7-.4,0,0,.5.3,1.3.4,1.4,0,1.3-.4,1.4-.4s.2.4,1.1.4.9-.3.9-.3c0,0,.3.3.8.4.6,0,1.1-.2,1.1-.2,0,0,.2,0,.3,0,0,0,.5-.2.8,0,.4.1.7.2.5,0ZM11.7,74c-.2,0-.3-.2-.3-.3s.2-.3.3-.3.3.2.3.3-.2.3-.3.3ZM15.2,74.8c-.2,0-.4-.2-.4-.4s.2-.4.4-.4.4.2.4.4-.2.4-.4.4ZM18.7,75.2c-.2,0-.4-.2-.4-.4s.2-.4.4-.4.4.2.4.4-.2.4-.4.4ZM21.8,75.3c-.2,0-.4-.2-.4-.4s.2-.4.4-.4.4.2.4.4-.2.4-.4.4ZM24.2,75.3c-.2,0-.4-.2-.4-.4s.2-.4.4-.4.4.2.4.4-.2.4-.4.4ZM26.3,75.4c-.2,0-.4-.2-.4-.4s.2-.4.4-.4.4.2.4.4-.2.4-.4.4Z"/>
    <path class="st1" d="M6,72.5c.5.9,2.4,3.5,2.4,3.5,0,0,0,.3-.3.3s-1.1-.2-1.5-.3c.1,0,.3.2.3.4,0,.4,0,.4,0,.4,0,0,1.3,0,2.2,0,.8,0,1.5.1,1.5.1l-2-5.8s-3.3.5-2.7,1.4Z"/>
    <path class="st1" d="M6.7,76c-.1,0-.2,0-.2,0,0,0,0,0,.2,0Z"/>
    <path class="st1" d="M11.7,71.5s4.2,1.1,7.6,1.3c3.4.2,7.8.3,7.8.3,0,0,.1,0,.1-.1v-.8c0,0,0-.2-.1-.2l-15.4-2.6c0,0-.1,0-.1.1v1.9c0,0,0,.2.1.2ZM25.2,71.8h.7c0,.1,0,1.1,0,1.1h-.7v-1.1ZM22.6,71.4h.8c0,.1,0,1.4,0,1.4h-.9v-1.4ZM20,71l1,.2v1.5s-1-.2-1-.2v-1.5ZM17.1,70.5l1.1.2v1.7s-1.1-.2-1.1-.2v-1.7ZM13.6,70l1.1.2v1.7s-1.1-.2-1.1-.2v-1.7Z"/>
    <path class="st1" d="M9.8,70.7c.4.2,1.4.6,1.4.6v-2.1h-3.8c0,0,0,1.8,0,1.8l1.7-.4s.4,0,.8.1Z"/>
    <path class="st1" d="M8,68.9h2.7c0,0,.1,0,.1-.1v-.2c0,0,0-.1-.1-.1h-2.9v.3c0,0,0,.1.1.1Z"/>
    <path class="st1" d="M11.8,69l15.3,2.6c0,0,.2,0,.2-.1h0c0-.2,0-.3-.1-.3l-15.4-2.6v.2c0,0,0,.2,0,.2Z"/>
    <path class="st1" d="M23.9,70.2v-3.9s-.8-1-1.9-1c-1,0-2.1.4-2.1.4v3.8c0,0,3.9.7,3.9.7ZM23.1,66.7c0-.1,0-.2.2-.2s.2,0,.2.2v2.8c0,.1,0,.2-.2.2s-.2,0-.2-.2v-2.8Z"/>
    <path class="st1" d="M18.6,69.2v-4.4s-.9-1.1-2.1-1.1c-1.2,0-2.3.4-2.3.4v4.3c0,0,4.4.8,4.4.8ZM17.8,65.3c0-.1.1-.2.2-.2s.2.1.2.2v3.2c0,.1-.1.2-.2.2s-.2-.1-.2-.2v-3.2Z"/>
    <path class="st1" d="M26,70.4h.2c0,0,0-1.5,0-1.5,0,0,0-.1.1-.1l1.6.3c0,0,0,0,0,0l-2.1-1.3c0,0-.1,0-.1,0v2.5c0,0,0,.2.1.2Z"/>
    <path class="st1" d="M9.7,68c0,0,.1,0,.1-.2l-.8-4.2-.4-.2c0,0-.1,0-.1,0l.8,4.4h.4Z"/>
  </g>
  <path class="st1" d="M58.3,73.5c0-.2,0-.3,0-.3-.5-1.9-1.4-3.5-3.3-4.4-.8-.4-1.6-.5-2.5-.5-1,0-2,0-3,.2-1.1.2-2.3.3-3.4.5-.4,0-.4.1-.4.5,0,.4,0,.8,0,1.2,0,.3,0,.4.4.4,0,0,.2,0,.3,0,.9,0,1.3.4,1.5,1.3.1.5.2,1.1.2,1.7,0,2,0,4,0,6.1,0,.5,0,.6.5.7.6.2,1.3.3,1.9.5.2,0,.4,0,.5,0,.5-.3,1.1-.3,1.6-.3.4,0,.8.1,1.1.4.5.4.8,1,1,1.6.4,1.1.7,2.2.9,3.3.5,2.6.6,5.2.5,7.8,0,1.3-.2,2.5-.5,3.7-.2.8-.5,1.7-1.2,2.3-.5.6-1.2.8-2,.6-.8-.2-1.1-.8-1.2-1.5-.1-.9-.3-1.7-.3-2.6,0-1.5,0-3,0-4.5,0-1.2,0-2.5,0-3.7,0-.5,0-.6-.5-.7-.7-.2-1.3-.3-2-.5-.1,0-.2,0-.4,0,0,.3,0,.5,0,.7,0,3.2,0,6.4,0,9.6,0,.7,0,1.4-.3,2.1-.3.8-.8,1.2-1.6,1.4,0,0-.2,0-.3,0-.4,0-.4.1-.4.5,0,.3,0,.6,0,.9,0,.6,0,.6.6.6,2.7,0,5.4,0,8.1,0,.9,0,1.7-.3,2.3-.9.7-.6,1.2-1.2,1.6-2,.9-1.8,1.3-3.7,1.5-5.7.1-2.5,0-4.9-.4-7.3-.3-1.9-.7-3.7-1.5-5.4-.3-.6-.6-1.2-1.1-1.7-.1-.1-.2-.2-.3-.4,0,0,0,0,.1-.1,0,0,.2,0,.2-.1,1-.4,1.6-1.2,1.9-2.3.1-.4,0-.5-.3-.6-.5-.2-1.1-.3-1.6-.4-.3,0-.6,0-.9-.2,0,.4-.2.8-.3,1.1-.3,1.2-1,1.8-2.3,1.8-.4,0-.9,0-1.3,0-.6,0-.6,0-.6-.7,0-1.4,0-2.8,0-4.2s0-2,0-3c0-.5,0-.6.6-.7.5,0,1,0,1.6,0,1,.1,1.7.7,2,1.7,0,.2,0,.3.1.5.1.6.1.6.7.7.5,0,.9.1,1.4.2.2,0,.5,0,.7,0"/>
  <path class="st1" d="M43,75c-.2,0-.4,0-.5.1-.8.4-1.6.7-2.3,1.2-.7.4-1.4,1-1.8,1.7-.8,1.2-.8,2.4,0,3.7.2.4.6.8.9,1.1.9.8,2,1.4,3.1,1.9,1.6.7,3.2,1.2,4.8,1.6,2.6.7,5.3,1.4,8,2.1.1,0,.2,0,.4,0,0-.3,0-.6,0-.9-.2-1.4-.5-2.8-1-4.2-.2-.5-.4-.7-.9-.8-1.8-.4-3.7-.9-5.5-1.4-1.1-.3-2.2-.7-3.3-1.1-.7-.2-1.3-.6-1.7-1.1-.6-.6-.5-1.2,0-1.8.1-.1.3-.2.3-.4,0-.6,0-1.2-.2-1.8"/>
  <path class="st1" d="M59.1,84.2c0,0,0,.1,0,.2,0,.2,0,.3,0,.5.2,1.4.5,2.8.7,4.1.2,1.2,0,.9,1,1.3.7.3,1.4.7,2,1.3.9.8,1,1.6.5,2.6,0,.1-.2.3-.2.5,0,.8,0,1.6,0,2.4,0,.3.2.4.4.3,1.6-.6,3.1-1.5,4.3-2.8,1.4-1.6,1.5-3.7.3-5.4-.8-1.1-1.9-1.8-3-2.5-1.7-1-3.6-1.7-5.5-2.3-.2,0-.4,0-.6-.1"/>
  <path class="st1" d="M43.8,85.9c0,.3,0,.6,0,.8,0,3.1,0,6.2,0,9.3,0,.6-.1,1.1-.2,1.7,0,.3-.3.6-.7.7-.2,0-.3.2-.3.4,0,.2,0,.4,0,.5,0,.5,0,.5.5.5.9,0,1.9,0,2.8,0,1,0,1.1,0,1-1.1,0-.2,0-.3-.3-.4-.4,0-.6-.4-.7-.8,0-.2-.1-.5-.1-.7,0-.7,0-1.4,0-2.2,0-2.5,0-5,0-7.5,0-.2,0-.3,0-.5,0-.2,0-.3-.3-.4-.5-.2-.9-.3-1.5-.5"/>
  <path class="st1" d="M37.4,91.2c0,.2,0,.3,0,.4.2.9.4,1.8.7,2.7.3,1.1.6,2.3.9,3.4.1.4.2.4.5.5.3,0,.6,0,1,0,.2,0,.4,0,.6-.2.4-.3.9-.4,1.4-.4.5,0,.5,0,.6-.5,0-.6,0-1.1.1-1.7,0-.5-.1-.9-.6-1.2-.8-.6-1.5-1.2-1.9-2-.5-.8-1.1-1.1-1.9-.9-.4,0-.9,0-1.4,0"/>
  <path class="st1" d="M62.7,84.8c0-.3,0-.5,0-.8,0-2.5,0-5.1,0-7.6,0-.5.1-1,.2-1.5,0-.3.3-.5.6-.7.5-.2.5-.2.5-.7,0-.1,0-.3,0-.4,0-.4,0-.5-.5-.5-1.1,0-2.3,0-3.4,0,0,0-.2,0-.2,0-.1,0-.3.2-.3.3,0,.4,0,.7,0,1.1.7.1,1,.6,1.1,1.2,0,.4,0,.7,0,1.1,0,2.3,0,4.7,0,7,0,.2,0,.3,0,.5,0,.1.1.3.2.3.5.2,1,.4,1.7.6"/>
  <path class="st1" d="M59.6,98.4c0,.3,0,.5,0,.8,0,.6,0,.6.6.6.9,0,1.9,0,2.8,0s1.1,0,1-1.1c0-.2,0-.3-.3-.4-.4,0-.6-.3-.7-.7-.1-.4-.2-.8-.2-1.3,0-1.3,0-2.5,0-3.8,0-.2,0-.4-.1-.6-.5-.5-1-.9-1.8-1.2,0,.3,0,.5,0,.7,0,1.6,0,3.1,0,4.7,0,.3,0,.6,0,.9,0,.6-.3,1.2-1.1,1.3"/>
  <path class="st1" d="M45.6,79.9c0-.3,0-.5,0-.6,0-.7,0-1.4,0-2.1,0-.7.1-1.4.2-2,0-.4.3-.8.7-.9.3,0,.4-.3.4-.5,0-.1,0-.3,0-.4,0-.5,0-.5-.5-.5-1.1,0-2.2,0-3.3,0-.1,0-.3,0-.4,0-.3.3-.1.6-.1,1,0,.2,0,.4.2.4.6.1.8.7.8,1.2,0,.5.1,1,.1,1.5,0,.6,0,1.2,0,1.8,0,.2,0,.4.2.6.5.3.9.5,1.6.7"/>
  <path class="st1" d="M63.1,78s0,0,0,0c0,.3,0,.6,0,.9,0,.2,0,.4.1.5.1.3.3.5.5.8.1.2.3.3.6.3.6,0,1.2,0,1.8,0,.4,0,.5-.1.4-.5-.4-1.7-.7-3.5-1.1-5.2-.1-.5-.7-.6-1-.3-.2.2-.4.3-.6.3-.3,0-.5.2-.6.5,0,.2-.1.4-.1.6,0,.7,0,1.5-.1,2.2"/>
  <path class="st1" d="M60.1,76.9c0-.6,0-1.1,0-1.6,0-.3-.2-.5-.6-.5-.2,0-.4,0-.5-.2-.1-.3-.4-.3-.7-.4-.3,0-.5,0-.8,0-1.6-.1-3.3-.3-4.9-.4-1.2,0-1.1-.2-1.1,1.1,0,.4,0,.5.5.5.6,0,1.2,0,1.8,0,1.4,0,2.9.3,4.2.7.7.2,1.3.5,2.1.8"/>
  <path class="st1" d="M55.4,97c-.2,0-.4,0-.5,0-.9,0-1.8,0-2.8.1,0,0,0,0-.1,0-.2,0-.3.1-.3.3,0,.3,0,.6,0,.9,0,.5,0,.5.5.5.8,0,1.5,0,2.3,0,.2,0,.3-.1.4-.3.2-.5.3-1,.4-1.6"/>
  <path class="st1" d="M47.6,98c0-.3,0-.7,0-1.1,0-.1,0-.4-.2-.4-.4-.2-.7-.3-1.2-.3,0,.4,0,.8.2,1.1,0,.3.3.5.6.5.2,0,.4,0,.6.1"/>
  <path class="st1" d="M59.5,97.9c0-.4,0-.8.2-1.3,0-.2,0-.4.1-.5.2-.2.4-.3.6-.3,0,.5-.2.9-.2,1.3,0,.4-.2.6-.4.6,0,0-.2,0-.3.1"/>
  <path class="st1" d="M47.6,74.2c0,.3-.2.5-.6.5-.7,0-.9.4-.8,1.2.4,0,.7,0,1.1-.1.2,0,.3-.2.3-.4,0-.4,0-.8,0-1.2"/>
  <g>
    <path class="st1" d="M93.5,18.9c-.4.4-.9.6-1,1.3.9-.3,1.1-.5,1-1.3Z"/>
    <path class="st1" d="M92,21.6c.1-.5,0-.9-.4-1.3-.2,1-.2,1.1.4,1.3Z"/>
    <path class="st1" d="M93.3,16.9c-.2.4-.4.9-.4,1.5.6-.4.6-.9.4-1.5Z"/>
    <path class="st1" d="M92.6,19.3c.2-.4.1-.7,0-1.2-.4.7-.4.7,0,1.2Z"/>
    <path class="st1" d="M93,18.9c.6-.1.6-.2.7-1-.4.3-.6.5-.7,1Z"/>
    <path class="st1" d="M93.2,20.2c-.4.2-.7.3-.7.8.6,0,.6,0,.7-.8Z"/>
    <path class="st1" d="M92.1,19.3c-.2.8-.2.8.1,1.3q.2-.6-.1-1.3Z"/>
    <path class="st1" d="M92.1,22.2c.6-.2,1-.4,1.1-1.2q-.9.6-1.1,1.2Z"/>
    <path class="st1" d="M91.6,22.7c.4-.7,0-1-.4-1.4-.2.7,0,1.1.4,1.4Z"/>
    <path class="st1" d="M95.9,20.7c-.5.2-1,.3-1.3.9.9,0,1.2-.2,1.3-.9Z"/>
    <path class="st1" d="M93.6,22.8c.3-.4.3-.9,0-1.4-.5.9-.5,1,0,1.4Z"/>
    <path class="st1" d="M96.3,18.7c-.3.3-.7.7-.8,1.3.7-.3.8-.7.8-1.3Z"/>
    <path class="st1" d="M95.2,19.7c-.6.5-.6.6-.3,1.1.3-.3.3-.7.3-1.1Z"/>
    <path class="st1" d="M96.3,19.9c-.5.1-.8.3-.9.7.6,0,.7,0,.9-.7Z"/>
    <path class="st1" d="M94.2,22.4c.6.1.6.1.9-.5-.4,0-.8,0-.9.5Z"/>
    <path class="st1" d="M94.4,20.6c-.5.7-.5.7-.3,1.3q.3-.5.3-1.3Z"/>
    <path class="st1" d="M94.9,22.6q-1.1.3-1.4.8c.6,0,1.1-.1,1.4-.8Z"/>
    <path class="st1" d="M94.5,23.6q-1.1,0-1.6.4c.6.2,1.1.2,1.6-.4Z"/>
    <path class="st1" d="M93,22.4c0,0,0-.2.1-.3q-1,.3-1.4.9c.4,0,.7,0,.9-.3-.1.4,0,.7.2,1,.6-.5.3-.9,0-1.4Z"/>
    <path class="st1" d="M98.3,20.7c-.5.2-1,.3-1.3.9.9,0,1.2-.2,1.3-.9Z"/>
    <path class="st1" d="M95.9,22.8c.3-.4.3-.9,0-1.4-.5.9-.5,1,0,1.4Z"/>
    <path class="st1" d="M98.6,18.7c-.3.3-.7.7-.8,1.3.7-.3.8-.7.8-1.3Z"/>
    <path class="st1" d="M97.5,19.7c-.6.5-.6.6-.3,1.1.3-.3.3-.7.3-1.1Z"/>
    <path class="st1" d="M98.6,19.8c-.5.1-.8.3-.9.7.6,0,.7,0,.9-.7Z"/>
    <path class="st1" d="M97.5,21.8c-.4,0-.8,0-.9.5.6.1.6.1.9-.5Z"/>
    <path class="st1" d="M96.8,20.6c-.5.7-.5.7-.3,1.3q.3-.5.3-1.3Z"/>
    <path class="st1" d="M95.9,23.4c.6,0,1.1-.1,1.4-.8q-1.1.3-1.4.8Z"/>
    <path class="st1" d="M96.9,23.6q-1.1,0-1.6.4c.6.2,1.1.2,1.6-.4Z"/>
    <path class="st1" d="M95.3,22.2c-.4.6-.4,1,0,1.5.6-.5.2-.9,0-1.5Z"/>
    <path class="st1" d="M100.8,21.6c-.5.2-1.1.2-1.5.7.9.2,1.2,0,1.5-.7Z"/>
    <path class="st1" d="M98.2,23.3c.3-.4.4-.8.2-1.3-.7.8-.7.9-.2,1.3Z"/>
    <path class="st1" d="M101.5,19.7c-.4.3-.8.6-1,1.1.7-.1.9-.6,1-1.1Z"/>
    <path class="st1" d="M100.2,20.5c-.6.4-.7.5-.5,1.1.3-.3.4-.6.5-1.1Z"/>
    <path class="st1" d="M101.3,20.8c-.5,0-.8.2-1,.5.6.2.7.1,1-.5Z"/>
    <path class="st1" d="M98.9,22.9c.5.2.6.2,1-.4-.4,0-.8,0-1,.4Z"/>
    <path class="st1" d="M99.3,21.2c-.6.6-.6.7-.5,1.2q.4-.5.5-1.2Z"/>
    <path class="st1" d="M98,23.9c.6.1,1.1,0,1.5-.6q-1.1,0-1.5.6Z"/>
    <path class="st1" d="M99,24.2q-1.1-.2-1.6.2c.5.3,1.1.3,1.6-.2Z"/>
    <path class="st1" d="M97.3,24.1c.7-.4.4-.9.3-1.5-.5.5-.6.9-.3,1.5Z"/>
    <path class="st1" d="M101.6,24.7c-.5,0-1.1-.2-1.6.2.8.5,1.2.4,1.6-.2Z"/>
    <path class="st1" d="M98.6,25.5c.4-.3.6-.7.7-1.2-.9.5-.9.6-.7,1.2Z"/>
    <path class="st1" d="M101.6,23.9c.7,0,1.1-.2,1.3-.8-.5.1-.9.3-1.3.8Z"/>
    <path class="st1" d="M101.5,23.5c-.7.2-.8.3-.8.9.4-.1.6-.4.8-.9Z"/>
    <path class="st1" d="M102.4,24.2c-.5,0-.8,0-1.2.2.5.3.6.3,1.2-.2Z"/>
    <path class="st1" d="M99.4,25.4c.4.4.5.4,1,0-.4-.2-.7-.3-1,0Z"/>
    <path class="st1" d="M100.4,24c-.7.4-.8.4-.8,1q.5-.3.8-1Z"/>
    <path class="st1" d="M98.3,26c.5.3,1,.4,1.6,0q-1.1-.3-1.6,0Z"/>
    <path class="st1" d="M97.5,26.3c.4.4.9.7,1.6.4q-1-.5-1.6-.4Z"/>
    <path class="st1" d="M97.6,26c.8-.2.7-.7.7-1.3-.6.3-.8.7-.7,1.3Z"/>
    <path class="st1" d="M99.3,28.3c.7.6,1.1.6,1.6,0-.5,0-1-.3-1.6,0Z"/>
    <path class="st1" d="M97.8,28.7c.5-.2.7-.5.8-1.1-1,.4-1,.4-.8,1.1Z"/>
    <path class="st1" d="M102.4,27c-.5,0-1,.1-1.4.5.7.2,1.1,0,1.4-.5Z"/>
    <path class="st1" d="M101,27.1c-.8,0-.8.1-.9.7.4,0,.7-.3.9-.7Z"/>
    <path class="st1" d="M100.6,27.9c.4.4.5.4,1.2,0-.4-.2-.8-.2-1.2,0Z"/>
    <path class="st1" d="M98.6,28.7c.4.4.4.4,1,.1-.4-.2-.7-.4-1-.1Z"/>
    <path class="st1" d="M99.8,27.4c-.8.3-.8.3-1,.9q.6-.2,1-.9Z"/>
    <path class="st1" d="M97.4,29.1c.5.4.9.6,1.6.2q-1-.4-1.6-.2Z"/>
    <path class="st1" d="M96.6,29.3c.4.5.8.8,1.5.6q-.9-.7-1.5-.6Z"/>
    <path class="st1" d="M97.7,27.8c-.6.2-.9.6-.9,1.2.8,0,.8-.6.9-1.2Z"/>
    <rect class="st1" x="82.8" y="33.6" width="10.5" height=".5" rx=".1" ry=".1" transform="translate(8.1 83.8) rotate(-53)"/>
    <rect class="st1" x="92.4" y="25.2" width="3.3" height=".5" rx=".1" ry=".1" transform="translate(17.1 85.3) rotate(-53)"/>
    <rect class="st1" x="93.6" y="25.9" width="4.2" height=".5" rx=".1" ry=".1" transform="translate(14.2 82.6) rotate(-50)"/>
    <rect class="st1" x="95.2" y="29.5" width="1.3" height=".5" rx=".1" ry=".1" transform="translate(.3 60.4) rotate(-35)"/>
    <rect class="st1" x="94.7" y="27.3" width="3.1" height=".5" rx=".1" ry=".1" transform="translate(8.7 76.1) rotate(-45)"/>
    <rect class="st1" x="91.3" y="24.8" width="2" height=".5" rx=".1" ry=".1" transform="translate(22.2 90) rotate(-58)"/>
    <rect class="st1" x="83.2" y="34.5" width="10.9" height=".5" rx=".1" ry=".1" transform="translate(6.2 82.5) rotate(-51.5)"/>
    <path class="st1" d="M83.4,35.7h11.2c0,0,.1,0,.1.1v.2c0,0,0,.1-.1.1h-11.2c0,0-.1,0-.1-.1v-.2c0,0,0-.1.1-.1Z" transform="translate(3.8 80.2) rotate(-49.5)"/>
    <path class="st1" d="M92.7,32.6c0,0,0-.1,0-.1,0,0,0,0,0,0l-8.1,9.5c0,0,0,.2,0,.2h.1c0,.2.2.2.2,0l7.7-9.1v-.6Z"/>
    <rect class="st1" x="82.1" y="32.6" width="10.5" height=".5" rx=".1" ry=".1" transform="translate(10.9 86.3) rotate(-55.5)"/>
    <path class="st1" d="M83.6,36.7c0,0,.2,0,.2,0l6.4-9.3h0s0,0,0-.1l1.6-4h-.3c0-.1-.2-.1-.2,0l-1.5,3.9h0c0-.1-.2-.3-.4-.5-.4-.3-1.3-.4-1.6,0-.3.4.1,1.2.6,1.5.2.1.4.2.7.2l-.4.6c0-.2-.2-.3-.3-.5-.3-.2-1.1-.3-1.3,0-.2.3,0,1,.4,1.2.2.1.3.1.5.1l-4.6,6.7.3.2Z"/>
    <path class="st1" d="M83.6,38.8c0-.2-.1-.3-.3-.3s-.3.1-.3.3.1.3.3.3.3-.1.3-.3Z"/>
    <path class="st1" d="M83.7,39.8c-.2,0-.3.1-.3.3s.1.3.3.3.3-.1.3-.3-.1-.3-.3-.3Z"/>
    <path class="st1" d="M84.6,40.1c.2,0,.3-.1.3-.3s-.1-.3-.3-.3-.3.1-.3.3.1.3.3.3Z"/>
    <path class="st1" d="M84.6,38.5c0-.2-.1-.3-.3-.3s-.3.1-.3.3.1.3.3.3.3-.1.3-.3Z"/>
    <path class="st1" d="M83.6,37.9c.2,0,.3-.1.3-.3s-.1-.3-.3-.3-.3.1-.3.3.1.3.3.3Z"/>
    <path class="st1" d="M84.3,40.8c-.2,0-.3.1-.3.3s.1.3.3.3.3-.1.3-.3-.1-.3-.3-.3Z"/>
    <path class="st1" d="M95.2,31.7c-.2-.8-.5-1.7-.6-2.5,0-.4-.3-.7-.6-.9-.7-.5-1.4-1.1-2.1-1.6-.3-.2-.5-.2-.7,0-.4.3-.4.7-.3,1.2.3,1.1.9,2.1,1.8,2.8.5.3.6.7.6,1.3,0,.2,0,.3,0,.5-.2.8-.2,1.6,0,2.5,0,.1,0,.2,0,.3-.5.3-1,.5-1.4.8-.7.5-1,1.2-1.4,1.9-.4.8-.4,1.6,0,2.4.5,1.2,1.2,2.2,2.4,2.9.3.2.4.4.4.8,0,.4,0,.8,0,1.2,0,.4-.1.9-.4,1.1,0-.5-.3-2.3-.3-2.4-.3-.4-.6-.6-.7-.6-1.3-.8-1.9-1.9-2.1-3.4,0-.2,0-.4-.1-.7-.3.4-.5.6-.8.9-.4.4-.5.8-.4,1.4,0,.8.1,1.5,0,2.3,0,.7-.2,1.4-.3,2.1,0,.7.1,1,.8,1.2.1,0,.3,0,.4,0,.7,0,1.5,0,2.2,0,.3,0,.7,0,1-.2.7-.2,1-.7,1-1.4,0-.5,0-.9,0-1.4,0-.5.2-.8.7-1,1.3-.6,2-2,1.7-3.3l.3-3.7c.3-1.2,0-2.3-.6-3.3-.2-.3-.3-.6-.4-.9ZM89,42.3c0,0,0-.1,0-.2,0,0,0,.1,0,.2,0,0,0,0,0,0Z"/>
  </g>
  <g>
    <path class="st1" d="M63.2,26.9c0,.2,0,.3-.1.5,0,.2,0,.4.2.5.1-.4.2-.7.3-1,.8,0,1.6.4,2.4,0-.2-.2-.1-.4,0-.6-.8,0-1.5.2-2.3.2-.3,0-.4,0-.4.3Z"/>
    <path class="st1" d="M65.9,26.4c.1,0,.2,0,.3,0,.4-.2.8-.2,1.2,0,0,0,0,0,0,0-.4-.8-1-1-1.6-.6.1.2.4.4,0,.7Z"/>
    <path class="st1" d="M65.9,26.4s0,0,0,0c0,0,0,0,0,0,0,0,0,0,0,0,0,0,0,0,0,0Z"/>
    <path class="st1" d="M69.4,25.1c-.1-.2-.2-.4-.3-.7-.1-.2-.2-.4-.3-.7-.1.6-.2,1.1-.3,1.5.4.2.9.4,1.3.7.4.3.8.7,1.2,1.1-.2.5-.3,1,.4,1.2-.5.6-.6,1.1,0,1.7-.2.2-.5.3-.6.5-.1.2,0,.5-.1.7-.4.1-.8.3-1.2.4.5-.7,1-1.3,1.1-2.2.1-.8.2-1.7-.3-2.5-.2.5-.2,1-.4,1.5-.2.5-.6.7-1.1.8.1.1.3.2.4.2.1,0,.3,0,.4.1-.2.8-.6,1.1-1.2,1-.6,0-.6,0-.7.5-.1.4-.3.9-.5,1.3-.7,0-1.3-.5-2.1-.4.2.1.4.2.5.3.3.1.7.2,1,.3.4.2.5.4.3.8-.4.8-1.5,1.6-2.7,1.3-.1,0-.2,0-.4,0,.3.6,0,.9-.4,1.2-.2.2-.4.1-.7.1-.4,0-.6,0-.7.4-.2.8-.6,1.4-1.3,1.8-.2.1-.3.2-.3.4v-8.2c0-.5-.4-.9-.9-.9h-12.2c-.5,0-.9.4-.9.9v13.7c0,.7.7,1.1.7,1.2l6.2,3.3,6.3-3.3s.7-.4.7-1.2v-5.4c0,.1.1.3.3.4,0,0,0,0,0,0,0,.4-.4.6-.3,1.2.2-.2.4-.4.5-.6.1-.2.2-.4.3-.7.2-.5.5-.8,1.1-.7.4,0,.8-.1,1-.5.1-.2.3-.3.4-.5.3-.6.9-.9,1.5-1,.4-.1.8,0,1.2.2.5.4.9.7,1.4,1.1,1,.8,1.9,1.7,2.6,2.7,0,.1.1.2.2.4-.5,0-.8-.6-1.3-.6,0,0,0,0,0,0,0,0,0,.1.1.2.9.7,1.5,1.7,1.7,2.8.1.8.2,1.5,0,2.3-.2,1.1-.7,1.9-1.6,2.5-.8.5-1.6.5-2.4.2-.1,0-.3-.2-.5,0,1.3.7,2.6.8,3.8-.1.2-.1.3-.2.5-.4.7-.6,1.2-1.3,1.3-2.2.3-1.3,0-2.6-.5-3.8-.7-1.6-1.9-2.7-3.1-3.8-.9-.7-1.2-1.6-1-2.7,0-.4.3-.8.5-1.2-.2-.2-.4-.5-.7-.7,0,0,0,0,0-.1.2,0,.4.2.6.3.4.2.7.4,1.1.6.2.1.4,0,.6-.1.3-.4.6-.8.9-1.2.1-.1.1-.3,0-.4-.2-.3,0-.4.2-.6.2-.1.4-.2.6-.3,0-.1,0-.2,0-.3-.2-.4,0-.6.2-.8.4-.3.4-.4.2-.8-.1-.2-.2-.5,0-.7.2-.2.2-.4,0-.6-.2-.2-.2-.5-.1-.8.2-.5.2-.6-.3-.8-.4-.2-.6-.4-.4-.8,0,0,0,0,0-.1,0,0-.2,0-.3,0-.5,0-.8-.2-1.1-.6ZM59.5,30.5v7.6h-6l4.1-7.8h1.6c.2,0,.3.1.3.3ZM53.2,37.4l-3.9-7.2h7.6l-3.8,7.2ZM47,30.2h1.6l4.2,7.8h-6.1v-7.6c0-.2.1-.3.3-.3ZM59.1,44.8l-6,3.1-6-3.1s-.4-.2-.4-.6v-5.5h12.8v5.5c0,.4-.4.6-.4.6Z"/>
    <path class="st1" d="M36.3,30.2c-.1.2-.2.4-.4.6.5.2,1,.3,1.4.6.4.3.7.7,1.1,1,.2-.1.4-.2.6-.3,0,.1,0,.2-.1.3-.3.3-.3.7-.1,1.1.1.3.3.5.4.7.2.2.2.5,0,.7-.4.9-.6,1.9-1.5,2.6.2,0,.3.2.4.2.4,0,.7.3,1.1.5.5.3,1,.3,1.6,0-.3-.2-.6-.1-.8-.4.4,0,.8,0,1.1-.2.4,0,.7-.2,1.1-.6-.3,0-.4.1-.6.1-.5,0-.9,0-1.4-.2-.6-.3-.7-.9-.3-1.5.7-.8,2-.7,2.6.2,0,0,.1.2.1.3.2.5.5.7,1,.6.4,0,.7.2,1,.5.3.4.3.9.3,1.4,0,.6,0,.6.6.7.2-.2.2-.5,0-.7-.1-.3-.2-.5,0-.8,0-.2,0-.4-.1-.5-.2-.2-.4-.3-.6-.4-.3-.1-.5-.3-.6-.5,0-.1-.1-.2-.2-.3-.2-.2-.4-.5-.4-.8-.1-.6-.5-1-1.1-1.2-.5-.2-1-.2-1.5,0-.3,0-.5,0-.7-.2-.6-.7-.6-2.5.6-2.8.3,0,.6-.3.9-.4,0,0,.2-.1.3-.2,0,0,0,0,0-.1-.2,0-.3,0-.5.1-.6.2-1.2.4-1.9.6-.1,0-.3,0-.5.1,0-.4.2-.6.6-.7.7-.2,1-.5.9-1.1-.7-.2-1-.3-1.1-.8.4-.3.9-.3,1.3-.3.5,0,.9,0,1.4,0-.1-.3-.2-.6-.4-.9-.7,0-1.5,0-2.2.3.4,0,.7,0,1,0,.8,0,.8,0,1,.3-.2,0-.4,0-.6,0-.7,0-1.4.2-2.1.3-.6,0-1.1.2-1.6-.3,0,0,0,0-.1,0,0,.3,0,.5.2.8.1.1.3.2.3.4,0,.3.3.4.6.4.3,0,.5,0,.8,0,.3,0,.6,0,.9.4-.2.2-.4.2-.6.2-.4,0-.4,0-.6.3-.3.6-.8.8-1.4.6-.2,0-.5-.2-.4-.5,0-.3.3-.4.5-.5.1,0,.3,0,.5,0-.4-.2-.6-.3-.9-.4-.7-.4-1.4-1.4-.8-2.4.1-.2.1-.4.2-.6,0-.2,0-.4.1-.6,0-.1.3-.1.4-.1-.4-.5-.7-1.1-1.1-1.6,0,0,0,0-.1,0,0,.6,0,1.2-.1,1.8,0,.3,0,.6-.2.8-.5,1.2-.4,2.3.4,3.4,0,0,0,.1,0,.2Z"/>
    <path class="st1" d="M36.7,19.5c0-.1,0-.2,0-.3,0-.5.3-.8.7-1,.3,0,.6-.2.8-.2.5,0,.9,0,1.4.1,1.1.2,2.1.6,2.9,1.5,0,0,.1,0,.2.1.2-.3.4-.6.7-.9.2-.2.3-.2.6,0,.1.1.3.2.4.3-.1.4-.3.8-.4,1.2,0,.2-.2.3-.5.2,0,0-.2,0-.4,0,.5,1,1,1.8,1.6,2.5.4.4.7.7,1.2.9.4.1,1.3,0,1.6-.4,0,0,0-.1.1-.2-.2,0-.4-.2-.6-.2-.6-.2-1.2-.5-1.7-.9-.5-.4-.8-.8-.8-1.5,0-.8.3-1.5,1-2,.1,0,.2-.2.4-.3-.5-.7-1.1-.4-1.7,0-.1-.7,0-1.5-.8-2-.7.5-.8,1.2-.8,1.9-.3,0-.5-.1-.7-.2-.7-.2-1.4-.5-2.1-.6-.9-.2-1.9-.3-2.8.2-.2.1-.5.3-.7.5-.3.4-.2,1,.2,1.3Z"/>
    <path class="st1" d="M69.5,46.3c.2-.2.3-.5.3-.8,0-.8-.3-1.5-.7-2.1-.4-.8-1.1-1.3-1.8-1.8-.7-.5-1.4-.9-2.1-1.4-.7-.5-1.1-1.2-1.2-2,0-.1,0-.3,0-.5-.4.2-.7.3-.8.7,0,.1-.1.3-.2.3-.2,0-.4.1-.3.4,0,.2,0,.4.2.5.5.5.9,1.1,1.5,1.5.6.4,1.2.8,1.9,1.1.2,0,.3.2.5.3-.5.6-1.1,1.1-1.2,1.9.4.1.3.4.3.7,0,.8.4,1.4,1.1,1.9.2.1.3.3.6,0-.1,0-.2-.2-.3-.2-1.4-.9-1.4-2.7-.1-3.7.3-.2.5-.2.8,0,.5.3,1,.7,1.4,1.3.3.5.5,1,.3,1.6,0,0,0,.2,0,.2Z"/>
    <path class="st1" d="M73.4,41.5c-.2,0-.3,0-.5-.1-.6,0-.7-.2-.7-.8,0-.3,0-.6.1-.9-.2,0-.3,0-.4,0-.2,0-.3,0-.5,0-.4,0-.4-.2-.4-.6,0-.2,0-.4.1-.5-.2-.2-.4,0-.6,0-.5.1-.7,0-.6-.6,0-.1,0-.2,0-.3,0-.2,0-.4-.3-.4-.5-.1-.4-.1-.3-.6,0,0,0-.1,0-.2-.2-.3-.7-.2-.7-.7,0-.4.4-.6.5-.9-.3-.2-.6-.5-.8-.7,0,0,0,0-.1,0,0,.2,0,.4.1.7-.5,0-.6.4-.6.8,0,.6.6.4.8.7,0,.3-.2.5-.3.8.1,0,.2.1.2.1,0,0,.1,0,.2,0,.5.1.5.1.6.6,0,.4.3.6.7.7.1,0,.2,0,.4,0,0,.6.3,1.1,1,1.2,0,0,.2.2.2.3,0,.5.2.8.5,1,.3.3.4.6.3.9,0,.5.1.9.6,1,0,0,0,0,0,.1-.3.2-.5.5-.5.9,0,.4,0,.7.6.9-.5.1-.7.3-.8.7-.2.5.3.5.5.8-.1,0-.2.2-.3.2-.3,0-.5.2-.6.4-.2.2,0,.5,0,.8-.3,0-.5,0-.7,0-.2,0-.3.3-.5.4.1.1.2.2.3.4-.1.1-.2.2-.3.3.3,0,.6,0,.6-.3,0-.3.2-.3.4-.4.2,0,.4-.1.6-.2,0,0,.2-.2.2-.3,0-.3.1-.4.3-.6.1,0,.2-.2.4-.3.4-.4.4-.6-.2-.9,0,0,0,0-.1-.2.2-.2.4-.3.6-.5.2-.2.4-.4.3-.8-.2,0-.3,0-.5,0-.3,0-.3-.2-.2-.4,0-.1.2-.2.3-.4,0-.1.2-.3.3-.4-.2-.2-.4-.3-.5-.4-.5-.4-.5-.6-.1-1,0,0,.1-.2.2-.3Z"/>
    <path class="st1" d="M45.5,44.6c0,.2.2.3.3.5.3-.5.4-1.2.2-1.5-.2-.3-.3-.3-.6,0-.3.2-.5.4-.8.6-.2.1-.4,0-.5-.1-.1-.2-.3-.4-.5-.6-.2-.2-.3-.4-.2-.8.1-.4.2-.9.2-1.3,0-.7-.3-1.3-1-1.7-.1,0-.2-.2-.4-.3.3-.3.6-.6.8-.8.2-.3.5-.6.4-1.1-.3.3-.5.6-.8.8-.4.4-.9.7-1.5.9-.2,0-.3,0-.5.1-.5.2-.8.5-.8,1,0,.6-.2,1.2-.6,1.6,0,0,0,.1,0,.3.2,0,.4,0,.4-.1.3-.3.7-.6.9-1.1.1-.4.3-.7.7-1,.4-.3.6-.3,1,0,.5.4.6,1,.5,1.6,0,.4-.2.8-.2,1.3,0,.2,0,.4,0,.5.4.3.6.8.9,1.2.3.4.6.4,1,.2.2,0,.3-.2.4-.3.5-.3.6-.3.8.2Z"/>
    <path class="st1" d="M34.7,43.1c.2.7,0,1.3-.5,1.7-.4.4-.9.7-1.3,1.1-.3.2-.6.3-.9.5-.3.2-.3.4,0,.6.5.5.6,1.2.7,1.8,0,.4.2.6.6.6.4,0,.8-.1,1.2-.2,0,0,0,0,0,0-.2,0-.4,0-.6,0-.6,0-.7-.1-.8-.7,0-.2,0-.5-.1-.7-.1-.4,0-.7.2-1,.5-.6,1-1.3,1.5-1.8.5-.5.7-1.1.8-1.8,0-.6,0-1.2,0-1.9,0-1,0-2,.9-2.8.1-.1.3-.2.2-.4-.1-.2-.3,0-.5,0,0,0-.1,0-.2.1-.4.4-.8.8-1.1,1.2-.6.7-.7,1.5-.3,2.4.2.4.3.8.4,1.3Z"/>
    <path class="st1" d="M57.2,23.3c-.6,0-1.1,0-1.7,0-.7,0-1.5-.1-2.2-.2-.6,0-.6,0-.7.7.7,0,1.3.5,1.9.8.5.2,1,.4,1.5.6.2,0,.5.2.7.3.3.2.3.3.2.7,0,0,0,.2,0,.4.4-.2.4-.5.4-.8,0-.3,0-.6,0-.8,0,0,.1,0,.2,0,.4.1.5.4.5.8,0,.4,0,.7.4,1,.3-.3.3-.3.3-.7,0-.2,0-.4,0-.5.3-.7,0-1.3-.3-1.8-.3-.4-.6-.5-1.1-.4ZM56.2,24.2c-.2-.2-.5-.2-.8-.4.8-.3,2,0,2.3.6-.5,0-1,.2-1.5-.2Z"/>
    <path class="st1" d="M61.6,21.5c-.2.2-.4.3-.5.6-.3.5-.3.5-.8.3,0,0-.1,0-.2,0-.2.2-.4.4-.5.5-.2.2-.3.3-.6.5.2,0,.3,0,.4,0,.9.2,1.9,0,2.2-.9.1-.3.5-.5.8-.5.4,0,.8,0,1.1.2.2,0,.4.1.6.2,0-.6-.1-1-.8-1.1-.4-.1-.5-.3-.6-.7,0-1-.6-1.7-1.4-2.2-.4-.3-.7-.2-.8.4,0,.3,0,.6,0,.9,0,.2,0,.3,0,.5-.4,0-.9-.2-1.2.2.3.3.5.5.8.8.2-.3.4-.4.7-.5.1,0,.3-.2.4-.3.1-.1.2-.3.3-.5.8.5.8,1.2.1,1.7Z"/>
    <path class="st1" d="M51.7,27.7c-.7.2-1.3.4-1.9.7-.2,0-.3.2-.3.5,0,.2.3.4.5.3.6,0,1.1-.2,1.6-.6.3-.2.6-.4.9-.4.9-.2,1.9,0,2.8.1.2,0,.4.1.4.4-.3,0-.6,0-.9.1,0,0,0,0,0,.1,0,0,.1,0,.2,0,.6.1,1.2.3,1.8.4.4,0,.8,0,1.1-.3-.1-.4-.3-.6-.6-.8-.5-.4-1.2-.6-1.8-.8-1.3-.3-2.6-.2-3.9,0Z"/>
    <path class="st1" d="M33,33.8c0,.3,0,.7.1,1,.1.7,0,1.3-.3,1.9-.3.6-.6,1.1-.9,1.7-.2.4-.3.8-.4,1.2,0,.4,0,.8.4,1.1.4.3.8.4,1.3.6,0,0,.1,0,.2,0,0,0,0,0,0-.1-.2,0-.3-.1-.5-.2-.6-.2-.8-.6-.7-1.1,0-.4.2-.8.4-1.1.3-.7.7-1.3.9-2,.5-1.3.6-2.7,0-4-.2-.5-.6-.9-1.1-1.1-.2,0-.4-.1-.6,0,.1.1.2.2.3.4.4.6.7,1.2.8,1.9Z"/>
    <path class="st1" d="M63.7,20.3c.3-.2.6-.3,1-.3,1.4,0,2.5-.3,3.3-1.5.3-.5.7-.7,1.3-.5.3,0,.6.3.8.4.1,0,.2.1.3.2.2-.4,0-.7-.2-.9-.5-.5-1.2-.6-1.9-.4-.3,0-.5,0-.8,0-.4-.1-.9-.2-1.3,0-.2,0-.5.2-.5.5.9,0,1.2.1,1.4.7-.5.5-1.1.2-1.6.4.2.5,0,.7-.5.7-.4,0-.7,0-1.1.1-.5,0-.6,0-.7-.5,0,0,0-.1,0-.3-.2,0-.3.1-.4.2.1.5.2,1,.3,1.6.2-.1.4-.2.5-.4Z"/>
    <path class="st1" d="M54,16.9c-.2-.5-.5-.6-1-.6-.1,0-.3,0-.4,0-.5,0-1,.5-1,1,0,.9.4,1.6,1.3,1.8.2,0,.4.1.6.2.2,0,.3.2.2.5,0,.2-.2.4-.4.4-.3,0-.7-.2-.8-.5,0,0,0-.2-.2-.3-.2.4,0,.6,0,.8.2.3.8.5,1.1.3.4-.2.5-.7.3-1.1,0-.2-.2-.3-.3-.5-.3-.3-.6-.6-1-.7-.2-.1-.5-.3-.7-.5-.2-.2-.1-.4,0-.6.3-.2.6-.3,1-.5.4-.1.5,0,.7.3.2.4.5.7.7,1.1.2.4.4.7.4,1.1.2.6-.2,1.3-.7,1.7-.4.3-.9.4-1.4,0,.5.5,1,.6,1.6.3.2-.1.4-.2.7,0,.3.1.5,0,.7-.2-.2,0-.4-.2-.6-.2,0-.2.1-.3.2-.5.4-1.1.2-2.1-.6-2.9-.2-.2-.4-.4-.5-.7Z"/>
    <path class="st1" d="M54,11.9c.5.3.7.8.7,1.4,0,.3-.2.5-.3.8,0,.2-.1.3,0,.4q.3-.2.8-.9c0,.6-.4,1.2-1,1.3,0-.1-.2-.3-.3-.4-.1.1-.2.2-.3.3-.4.4-.5.4-1,.2-.3-.2-.5-.3-.3-.5.2-.3.4,0,.6,0,.1,0,.3.1.4-.1-.2-.2-.5-.4-.7-.6q-.4.2-.8,0v.9s0,0,0,0c.6.3,1.2.6,1.8.9.3.1.5,0,.7-.1.3-.2.6-.5,1-.7-.1-.4.3-.5.5-.8,0-.2-.2-.4-.2-.7,0-.2.2-.4.3-.6-.3-.1-.5-.2-.7-.4,0-.2,0-.3.1-.5-.2,0-.5,0-.7-.2-.2-.1-.3-.4-.4-.6-.1.1-.2.2-.3.4-.1-.1-.2-.2-.3-.4,0,.4.1.6.4.8Z"/>
    <path class="st1" d="M61,36.8s0,0,.1-.1c.2-.4.4-.8.9-1.1,0,0,.1-.2.1-.4,0-.3,0-.6.2-.8.2-.4.6-.8,1-1,0,0,.2-.1.3-.2-.4-.3-.8,0-1.2-.1.3-.2.4-.3.5-.3.2,0,.4-.2.6-.2.5-.1.7-.5.8-1,0-.4,0-.7,0-1.2-.2.5-.3.9-.5,1.3-.1.3-.3.5-.6.7-.4.2-.7.4-1.1.7-1.4.9-1.6,2.2-1.1,3.9Z"/>
    <path class="st1" d="M64.9,30.3c.1.5.3.5.7.2.1-.1.3-.2.5-.1.3.1.7.1.8.6,0-.1.1-.2.1-.2,0-.4.1-.6.5-.8.1,0,.3-.3.3-.5.1-.3,0-.5-.3-.6-.3,0-.6-.1-.9-.2-.5,0-1,0-1.6,0,.2,0,.3-.2.4-.2-.4-.2-1.1,0-1.3.2-.1.1-.1.3,0,.4.2,0,.3,0,.5,0,.5,0,1,0,1.5,0,.3,0,.7,0,1,.3-.7.4-1.5.4-2.2.6,0,.1,0,.2,0,.2Z"/>
    <path class="st1" d="M40.6,25.8c.9,0,.9,0,1.5.6.2-.4.1-.8,0-1.2-.7,0-1.4.2-2.1.2,0-.2,0-.3.1-.5-.4-.1-.7,0-1,0-.7,0-.9,0-1-.7,0-.2,0-.5-.2-.8-.4.6-.5,1.1-.2,1.6.1.3.1.5,0,.7,0,0,0,.1,0,.1.4,0,.8-.2,1.2-.2.5,0,1.1,0,1.6,0Z"/>
    <path class="st1" d="M35.4,46.8c.2,0,.4-.2.6-.3,1.1-.9,2-1.9,2.8-3.2,0-.1,0-.3.1-.4,0,0,0,0-.1,0-.1,0-.2.2-.3.3-.5.6-1,1.3-1.5,1.9-.5.7-1.1,1.1-1.9,1.2-.1,0-.3,0-.4.2-.2.3-.4.6-.6.9-.2.4-.2.7.1,1,.3.3.7.5.9.9.1-.6-.5-.8-.7-1.3,0,0,0-.2.1-.3.2-.5.4-.8.9-.9Z"/>
    <path class="st1" d="M48.9,25.1c.1,0,.3.2.4.2.4.2.7.5.9,1,0,.2.2.4.3.6.2.5.3.6.7.4.8-.3,1.7-.4,2.6-.3,0,0,0,0,.2,0-.1,0-.2-.1-.3-.1-.6,0-1.1-.1-1.7-.1-.4,0-.7-.1-.9-.4-.2-.3-.5-.5-.7-.8,0,0-.1-.2-.2-.2.4-.2.8,0,1.1-.4-.8,0-1.6,0-2.4.1,0,0,0,0,0,0Z"/>
    <path class="st1" d="M43.3,32.6s0,0,0,0c.1.1.2.3.3.4.5.5,1.1,1,1.2,1.9,0,0,0,0,.1,0,0-.2.1-.3.1-.5,0-.8,0-1.6,0-2.4,0-.2,0-.4-.2-.6-.4-.4-.9-.7-1.3-1.1,0,0-.2,0-.2,0,0,0,0,0,0,0,.6.7,1.2,1.4,1.1,2.5-.3-.2-.6-.3-.9-.5Z"/>
    <path class="st1" d="M55.6,27.2c.3-.6.5-1,.8-1.6-.8,0-1.5-.2-2.1-.7,0,0,0,0,0,0,.1.5.3,1.1.4,1.6.2.6.5.8,1,.6Z"/>
    <path class="st1" d="M41.4,45.5c.2.2.4.3.6.2.4,0,.7-.1,1.1-.2,0,0,.2,0,.3,0-.2-.4-.5-.5-.8-.5-.3,0-.4-.1-.4-.4,0-.9-.6-1.5-1.2-2.1-.1-.1-.2-.2-.5,0,0,.1.1.2.2.3.2.2.4.4.5.6.4.5.7,1,.2,1.7-.1.2-.2.4,0,.6Z"/>
    <path class="st1" d="M65.6,46.8c-.7-1.1-.7-2.2,0-3.4,0-.1.2-.3.2-.4,0,0,0-.2,0-.3-.8,0-1.4,1.3-1.3,2.6,0,1.2,1.1,2.5,1.9,2.5-.1-.1-.2-.2-.3-.3-.2-.2-.5-.5-.7-.7Z"/>
    <path class="st1" d="M52.1,24.1c.2-.2.2-.5.4-1-.4,0-.6,0-.9,0-.5,0-.9.3-1.2.7-.2.2-.2.4,0,.6.5.4,1.3.3,1.7-.3Z"/>
    <path class="st1" d="M52.2,13.4c.4,0,.8,0,1.3.2.1,0,.3,0,.5,0,.2,0,.4-.2.4-.5,0-.2,0-.4-.2-.5-.2.2-.3.4-.4.4-.4,0-.9,0-1.3,0,0,0,0,0-.1-.1.3-.4.8-.4.9-1-.6.3-1.2.6-1.7.9.1.4.4.5.7.5Z"/>
    <path class="st1" d="M48.5,13.6c.1,0,.3,0,.4,0,.5,0,.8,0,1.1.5.1.3.3.5.5.8.1.2.3.4.5.5.3.2.4.2.7-.2-.5,0-.5,0-.8-.6-.2-.3-.3-.7-.5-1-.3-.5-1.4-.7-1.9-.4,0,0-.1.2-.1.2,0,0,.1.2.2.2Z"/>
    <path class="st1" d="M51.5,16c-.4.1-.7,0-.9-.3-.2-.3-.5-.5-.7-.8-.1-.1-.3-.2-.4-.3,0,0-.2,0-.3,0,0,0,0,.2,0,.3.6.4.9.9,1.2,1.4,0,.1.2.2.4.1.3-.1.6-.2.9-.4,0,0,.2-.1.2-.2,0,0,0,0,0-.1-.2,0-.3,0-.5,0Z"/>
    <path class="st1" d="M47.3,24.2c0,.3,0,.5.2.7.2.2.4.1.6,0,.5-.1.5-.6.7-1-.3,0-.6-.1-.9-.1-.2,0-.6.2-.7.4Z"/>
    <path class="st1" d="M49,24.8c.3,0,.6-.1.9-.2,0,0,.2-.2.2-.3,0-.2,0-.5.1-.8-.8,0-1.3.6-1.3,1.2Z"/>
    <path class="st1" d="M32,34.3c-.2.3-.1.6,0,.9.1.5.1,1.1.4,1.6.4-.5.2-1.8-.3-2.5Z"/>
    <path class="st1" d="M73,38.1c0-.4,0-.7,0-1,0-.4,0-.8-.5-1,.2.4.1.7,0,1,0,.2,0,.5,0,.7,0,.2.3.3.5.3Z"/>
    <path class="st1" d="M74.1,37.9c.2.2.4.4.5.5.2.2.4.3.6.2.3,0,.5-.4.5-.7,0,0,0,0,0,0-.4.3-.7.2-1,0-.2-.2-.4-.1-.6,0Z"/>
    <path class="st1" d="M73.7,37.7c.4,0,.7-.1.7-.5,0-.5-.2-1-.8-1.2,0,.3.2.5.2.8,0,.3,0,.5-.1.8Z"/>
    <path class="st1" d="M68.9,26.9s0,0,.1-.2c-.5-.2-.9,0-1.2.3-.2.1-.3.3-.2.6,0,.2.2.4.6.4-.2-.7.2-.9.7-1.1Z"/>
    <path class="st1" d="M57.2,22.6c0,.4.2.5.4.5.3,0,.6.2.8,0,0,0,.2-.2.1-.3,0,0-.2-.2-.3-.2-.3,0-.7,0-1.1,0Z"/>
    <path class="st1" d="M49.4,23c-.3-.4-.8-.4-1.5-.2.4.5.7.6,1.5.2Z"/>
    <path class="st1" d="M55.8,17.7c0,0-.2.1-.2.2,0,0,.1.1.2.1.4,0,.9-.5.7-.9-.2-.4-.2-.8-.1-1.3-.3.4-.3.7-.2,1.2,0,.3,0,.5-.3.7Z"/>
    <path class="st1" d="M56.7,18.3c.4.2.8.4,1.3.6,0-.4-.1-.5-.3-.6-.2-.1-.4-.2-.7-.3-.1,0-.3,0-.4-.1-.1.3,0,.4.2.5Z"/>
    <path class="st1" d="M55.3,22.5c.2.5.7.7,1.4.4,0-.2,0-.4-.3-.4-.3,0-.7,0-1.1,0Z"/>
    <path class="st1" d="M51.4,22.7c-.4-.5-1-.2-1.5-.2.4.5.6.6,1.5.2Z"/>
    <path class="st1" d="M41.4,29c.2,0,.5,0,.7,0,.1.2.2.3.4.6,0-.5.1-.8.2-1.2-.4.1-.8.2-1.2.4,0,0,0,0,0,.1Z"/>
    <path class="st1" d="M53.6,22.9c-.5-.5-1.1-.4-1.7-.5,0,.2,0,.3.1.3,0,0,.2.1.3.1.4,0,.8.1,1.3,0Z"/>
    <path class="st1" d="M45,45c0,0-.2,0-.3.2,0,.1-.1.3-.2.4,0,.1,0,.3,0,.3,0,0,.3,0,.3,0,.1,0,.2-.2.3-.3,0-.2,0-.2,0-.3,0-.1-.1-.2-.2-.3Z"/>
    <path class="st1" d="M48.6,28.6c0,.2,0,.4,0,.6,0,.2.3.2.5.1,0-.2,0-.4,0-.6,0,0-.1-.2-.2-.2-.1,0-.3,0-.3.1Z"/>
    <path class="st1" d="M73.7,38.4c.3.7.6,1,1,.8-.4-.8-.6-.9-1-.8Z"/>
    <path class="st1" d="M32.3,33.9c.3-.6,0-1.2-.7-1.5.2.3.3.5.5.7.2.2,0,.6.3.8Z"/>
    <path class="st1" d="M57.3,16c0,.3-.1.5-.2.7,0,.2-.2.4-.4.6.7-.2,1-.7.6-1.4Z"/>
    <path class="st1" d="M73.1,39c.1-.1.2-.3,0-.4-.4.2-.7.4-1.1.7.3.2.7,0,1-.2Z"/>
    <path class="st1" d="M72.4,38.2c-.4,0-.7.2-1,.5.7,0,.9-.1,1-.5Z"/>
    <path class="st1" d="M54.9,16.2c-.2.2-.4.4-.4.7.4,0,.5,0,.4-.7Z"/>
    <path class="st1" d="M55.4,16.8c-.5.3-.5.4-.2.7.2-.2.3-.4.2-.7Z"/>
    <path class="st1" d="M55.9,19.8c.2,0,.3-.2.3-.4-.2,0-.4,0-.6.2.1,0,.2.2.3.2Z"/>
    <path class="st1" d="M55.5,20.6c.1,0,.3,0,.4,0,0,0,0-.1.2-.2-.2,0-.2,0-.3,0-.1,0-.3,0-.4.1,0,0,0,.2,0,.2Z"/>
    <path class="st1" d="M54.1,22.8c.2.2.4.2.7,0-.3-.3-.4-.3-.7,0Z"/>
    <path class="st1" d="M55.9,18.3c-.2.1-.4.2-.2.5q.3-.2.2-.5Z"/>
    <path class="st1" d="M67.2,25.2s0,0,0,.1c.2,0,.4,0,.6-.1,0,0,0,0,0-.1-.2,0-.4,0-.6.1Z"/>
    <path class="st1" d="M67,26.9c0-.2-.1-.3-.3-.3s-.3.1-.3.3.1.3.3.3.3-.1.3-.3Z"/>
    <path class="st1" d="M38.6,26.5c0,.2.1.3.3.3s.3-.1.3-.3-.1-.3-.3-.3-.3.1-.3.3Z"/>
    <path class="st1" d="M47.8,37.1c0,0,0,.1,0,.2.2.2,1,0,1.9-.7.9-.6,1.5-1.3,1.3-1.6,0,0-.1,0-.2,0-.5-.2-1.1-.5-1.6-1-.4-.4-1.1-.3-1.1-.3,0,0-.3-.1-.4,0-.2.1-.1.4-.1.4,0,0-.4.5-.2,1.1.2.6.3,1.3.3,1.9ZM49.2,35.9c.6-.4,1.6-.8,1.7-.7.1.2-.7.9-1.3,1.3-.6.4-1.6.8-1.7.7-.1-.2.7-.9,1.3-1.3Z"/>
    <path class="st1" d="M48.8,36.9c.2-.1.2-.3,0-.5,0,0,0,0,0,0-.2.2-.4.3-.5.5.1.1.3.2.5,0Z"/>
    <path class="st1" d="M51.8,32.5c0,.5-.2.7-.3.8,0,0,0,.1.1.1h.5s0,0,0,0c0,.1.1.3.3.3s.3-.1.3-.3,0,0,0,0h.4c0,0,.1,0,.1-.1-.2-.1-.3-.4-.3-.8s-.2-.4-.4-.4c0,0,0,0,0,0,0,0,0,0,0,0s0,0,0,0,0,0,0,0c-.3,0-.4.3-.4.4Z"/>
    <path class="st1" d="M50.6,31.8h.5s0,0,0,0c0,.1.1.3.3.3s.3-.1.3-.3,0,0,0,0h.4c0,0,.1,0,.1-.1-.2-.1-.3-.4-.3-.8s-.2-.4-.4-.4c0,0,0,0,0,0,0,0,0,0,0,0s0,0,0,0,0,0,0,0c-.3,0-.4.3-.4.4,0,.5-.2.7-.3.8,0,0,0,.1.1.1Z"/>
    <path class="st1" d="M54,32.1s0,0,0,0c-.3,0-.4.3-.4.4,0,.5-.2.7-.3.8,0,0,0,.1.1.1h.5s0,0,0,0c0,.1.1.3.3.3s.3-.1.3-.3,0,0,0,0h.4c0,0,.1,0,.1-.1-.2-.1-.3-.4-.3-.8s-.2-.4-.4-.4c0,0,0,0,0,0,0,0,0,0,0,0s0,0,0,0Z"/>
    <path class="st1" d="M52.5,31.8h.5s0,0,0,0c0,.1.1.3.3.3s.3-.1.3-.3,0,0,0,0h.4c0,0,.1,0,.1-.1-.2-.1-.3-.4-.3-.8s-.2-.4-.4-.4c0,0,0,0,0,0,0,0,0,0,0,0s0,0,0,0,0,0,0,0c-.3,0-.4.3-.4.4,0,.5-.2.7-.3.8,0,0,0,.1.1.1Z"/>
    <path class="st1" d="M53.7,34.3c0-.2-.2-.4-.4-.4,0,0,0,0,0,0,0,0,0,0,0,0s0,0,0,0,0,0,0,0c-.3,0-.4.3-.4.4,0,.5-.2.7-.3.8,0,0,0,.1.1.1h.5s0,0,0,0c0,.1.1.3.3.3s.3-.1.3-.3,0,0,0,0h.4c0,0,.1,0,.1-.1-.2-.1-.3-.4-.3-.8Z"/>
    <path class="st1" d="M54.4,31.8h.5s0,0,0,0c0,.1.1.3.3.3s.3-.1.3-.3,0,0,0,0h.4c0,0,.1,0,.1-.1-.2-.1-.3-.4-.3-.8s-.2-.4-.4-.4c0,0,0,0,0,0,0,0,0,0,0,0s0,0,0,0,0,0,0,0c-.3,0-.4.3-.4.4,0,.5-.2.7-.3.8,0,0,0,.1.1.1Z"/>
    <path class="st1" d="M35.9,58.4l.2,1.5c-.2,0-.5,0-.9,0-.8,0-1.7.5-2.2.7-.2-.4-.7-1.3-1.3-1.8-.6-.6-1.2-.8-1.7-1,.6-.3,1.5-.8,2.8-1.1l-.2-.6c-2.4.6-3.6,1.6-3.7,1.6-.1,0-.1.2-.1.3,0,.1.2.2.3.2,0,0,1.1,0,2.1,1,.7.7,1.3,1.9,1.3,1.9,0,0,0,.1.2.2,0,0,0,0,.1,0s0,0,.1,0c0,0,1.4-.6,2.3-.7.8,0,1.1,0,1.1,0,0,0,.2,0,.3,0,0,0,.1-.2.1-.3l-.2-1.8h-.6Z"/>
    <path class="st1" d="M77.4,57.7c0,0-1.3-1-3.7-1.6l-.2.6c1.3.4,2.2.8,2.8,1.1-.5.1-1.1.4-1.7,1-.6.5-1.1,1.4-1.3,1.8-.5-.2-1.5-.6-2.2-.7-.4,0-.7,0-.9,0l.2-1.5h-.6c0,0-.2,1.8-.2,1.8,0,.1,0,.2.1.3,0,0,.2,0,.3,0,0,0,.3,0,1.1,0,.9.1,2.3.7,2.3.7,0,0,0,0,.1,0s0,0,.1,0c0,0,.1,0,.2-.2s.5-1.2,1.3-1.9c1.1-.9,2.1-1,2.1-1,.1,0,.2,0,.3-.2,0-.1,0-.3-.1-.3Z"/>
    <path class="st1" d="M72.1,57.8l1.3-4.3c0,0,0-.2,0-.2,0,0-.1-.1-.2-.2-.1,0-10.5-2.9-20.3-2.9s-19.9,2.9-20,2.9c-.2,0-.3.2-.2.4l1.2,4.4c0,0,0,.1.1.2,0,0,0,0,.1,0s0,0,0,0c0,0,8.4-2.5,18.6-2.5s18.7,2.3,18.7,2.3c.2,0,.3,0,.4-.2ZM53,55.1c-9.2,0-16.9,2-18.5,2.4l-1.1-3.8c1.7-.5,10.8-2.8,19.6-2.8s18,2.3,19.8,2.8l-1.2,3.7c-1.6-.4-9.4-2.3-18.6-2.3Z"/>
    <path class="st1" d="M57.3,39.6l-1.4-.3c.5.7,1.1.9,1.4.3Z"/>
    <path class="st1" d="M61.2,48.5c0,0-.2,0-.2-.1-.5-.2-.9-.4-1.4-.6-.4-.2-.9-.3-1.4,0,.3,0,.5.2.8.3.6.2,1.2.3,1.7.8.1,0,.3.1.5.1h5.2c.1.1.3.1.4,0,0,0,.2-.2.2-.3,0,0-.2-.2-.3-.2-.1,0-.2,0-.4,0-.6,0-1.1,0-1.7,0-.2,0-.3,0-.5-.1-.6-.3-1.2-.6-1.9-.8-.2,0-.4,0-.5,0-.2,0-.4,0-.6,0,0,0,0,0,0,.1,0,0,0,.1,0,.2,0,.3.1.3.4.3.7-.2,1.2.1,1.9.4-.4.1-2,.2-2.2,0Z"/>
    <path class="st1" d="M51,40c.2,0,.4,0,.7,0-.2.5-.3.8-.4,1.3.5-.3.8-.5,1.2-.6.4-.1.8-.2,1.2-.2-.4-.6-1,0-1.5-.2,0-.3,0-.6,0-1-.2,0-.4,0-.6,0-.3,0-.6.2-.9.3-1.3.4-2.4,1.1-3.4,2-.2.2-.3.3-.3.6,0,0,.1,0,.2,0,.5-.4,1-.8,1.5-1.1.6-.4,1.3-.8,2.1-1Z"/>
    <path class="st1" d="M52.4,45.3c-.4,0-.9,0-1.3,0-.1,0-.4-.2-.6-.2-.2,0-.8,0-1,.2.4.1,1,.5,1.4.6.2,0,.6,0,.8,0,.1,0,.6-.3.6-.5Z"/>
    <path class="st1" d="M54.6,45.4c-.1,0-.4-.2-.6-.2-.2,0-.8,0-1,.2.4.1,1,.5,1.4.6.2,0,.6,0,.8,0,.1,0,.6-.3.6-.5-.4,0-.9,0-1.3,0Z"/>
    <path class="st1" d="M53.3,46.5c-.1,0-.4-.2-.5-.2-.2,0-.7,0-.9.2.4,0,.9.4,1.2.5.2,0,.5,0,.7,0,.1,0,.6-.3.5-.4-.4,0-.8,0-1.1,0Z"/>
    <path class="st1" d="M52.4,43.7l.5-2.6c-.9.3-1.3,2.2-.5,2.6Z"/>
    <path class="st1" d="M56.4,44.2c-.9,0-3.5,0-3.7,0-.2,0-.6,0-1.7,0-1.2-.1-2.4-1.2-2.4-1.2,0,0,.8,1.3,1.8,1.6,1,.3,2.8.2,3.5.2s2.9,0,2.9,0v-.2l.3-1.7c-.4.2-.7.8-.7,1.4Z"/>
    <path class="st1" d="M55.7,43.9l.7-3.7c-1.3.5-1.8,3.1-.7,3.7Z"/>
    <path class="st1" d="M54.1,43.8l.7-3.7c-1.3.5-1.8,3.1-.7,3.7Z"/>
    <path class="st1" d="M50,42.6c-.2,0-.3-.1-.6,0,.3.1.5.2.7.3.2.1.4.2.7.3l.9-1.9c-.1,0-.2,0-.3.1-.2.2-.4.5-.6.7-.3.4-.3.4-.8.3Z"/>
  </g>
  <path class="st1" d="M98.2,63.2h-15.2c-.2,0-.3-.1-.3-.3s.1-.3.3-.3h15.2c.2,0,.3.1.3.3s-.1.3-.3.3Z"/>
  <path class="st1" d="M96.9,81.2h-15.4c-.2,0-.3-.1-.3-.3s.1-.3.3-.3h15.4c.2,0,.3.1.3.3s-.1.3-.3.3Z"/>
  <path class="st1" d="M96,81.2c-.2,0-.3-.1-.3-.3v-6.7c0-.2.1-.3.3-.3s.3.1.3.3v6.7c0,.2-.1.3-.3.3Z"/>
  <path class="st1" d="M85,74.2c0,0-.2,0-.2,0l-3.4-3.3c0,0,0-.1,0-.2v-2.9c0-.2.1-.3.3-.3h0c.2,0,.3.1.3.3v2.7s3.3,3.2,3.3,3.2c.1.1.1.3,0,.4,0,0-.1,0-.2,0Z"/>
  <path class="st1" d="M94.4,73.5c0,0-.2,0-.2,0-.1-.1-.1-.3,0-.4l1.9-1.9v-1c0,0-13.9-1.7-13.9-1.7-.2,0-.3-.2-.3-.3,0-.2.2-.3.3-.3l14,1.7c.1,0,.3.1.3.3v1.4c.1,0,.1.2,0,.2l-2,2c0,0-.1,0-.2,0Z"/>
  <path class="st1" d="M88.5,72.9c-.2,0-.3-.1-.3-.3v-9.7c0-.2.1-.3.3-.3s.3.1.3.3v9.7c0,.2-.1.3-.3.3Z"/>
  <rect class="st1" x="85.2" y="62.9" width=".6" height="18" transform="translate(-.3 .4) rotate(-.3)"/>
  <rect class="st1" x="93.3" y="62.9" width=".6" height="18"/>
  <path class="st1" d="M93.3,73.6h-7.1c-.2-.1-.3-.3-.3-.4,0-.2.1-.3.3-.3h7.1c.2.1.3.3.3.4,0,.2-.1.3-.3.3Z"/>
  <path class="st1" d="M88.5,77.1c-.2,0-.3-.1-.3-.3v-2.8c0-.2.1-.3.3-.3s.3.1.3.3v2.8c0,.2-.1.3-.3.3Z"/>
  <path class="st1" d="M89.9,78c-.2,0-.3-.1-.3-.3,0-.2,0-.3.3-.3l2.9-.4c.2,0,.3,0,.3.3s0,.3-.3.3l-2.9.4s0,0,0,0Z"/>
  <path class="st1" d="M94.3,77.4c-.2,0-.3-.1-.3-.3,0-.2,0-.3.3-.4l1.1-.2c.2,0,.3,0,.3.3,0,.2,0,.3-.3.4l-1.1.2s0,0,0,0Z"/>
  <path class="st1" d="M95.4,77s0,0,0,0l-1.1-.3-1.4-.3-4.2-1c-.2,0-.3-.2-.2-.4,0-.2.2-.3.4-.2l4.2,1,1.4.3,1.1.3c.2,0,.3.2.2.4,0,.1-.2.2-.3.2Z"/>
  <path class="st1" d="M88.6,69.7c0,0-.1,0-.2,0-.1-.1-.1-.3,0-.4l4.3-5c.1-.1.3-.1.4,0,.1.1.1.3,0,.4l-4.3,5c0,0-.1.1-.2.1Z"/>
  <path class="st2" d="M33.2,11.1"/>
  <path class="st1" d="M83.3,68.1c-.7,0-1.2.6-1.2,1.2s.6,1.2,1.2,1.2,1.2-.6,1.2-1.2-.6-1.2-1.2-1.2ZM83.3,70c-.3,0-.6-.3-.6-.6s.3-.6.6-.6.6.3.6.6-.3.6-.6.6Z"/>
  <path class="st1" d="M88.5,76.8c-.7,0-1.2.6-1.2,1.2s.6,1.2,1.2,1.2,1.2-.6,1.2-1.2-.6-1.2-1.2-1.2ZM88.5,78.7c-.3,0-.6-.3-.6-.6s.3-.6.6-.6.6.3.6.6-.3.6-.6.6Z"/>
  <path class="st1" d="M92.3,70.8c-.7,0-1.2.6-1.2,1.2s.6,1.2,1.2,1.2,1.2-.6,1.2-1.2-.6-1.2-1.2-1.2ZM92.3,72.7c-.3,0-.6-.3-.6-.6s.3-.6.6-.6.6.3.6.6-.3.6-.6.6Z"/>
  <path class="st1" d="M102.7,9.6h-31.9C66.3,3.7,60.6.9,53,.9s-13,2.8-17.5,8.7H3.6c-1.5,0-2.6,1.2-2.6,2.6v68.3c0,1.1.7,2.4,1.6,3l48.8,34.3c.5.4,1.2.5,1.8.5s1.3-.2,1.8-.5l48.9-34.3c.9-.6,1.6-1.9,1.6-3V12.3c0-1.5-1.2-2.6-2.6-2.6ZM102.4,12.6v37.9h-20.2V12.6h20.2ZM27.1,12.6h9.9l.4-.6c4-5.6,8.8-8.1,15.5-8.1s11.9,2.6,15.9,8.1l.4.6h10v45.2c0,.2-.2.6-.4.7l-11.3,8.3c-4.1-3.1-9.2-4.9-14.7-4.9s-10.3,1.7-14.4,4.7l-11.2-8.2c-.1-.1-.4-.5-.4-.7V12.6ZM24.2,12.6v37.9H3.9V12.6h20.3ZM4.3,81.2c-.1,0-.3-.5-.3-.6v-27.2h20.3v4.2c0,1.1.6,2.4,1.5,3l10.6,7.8c-4.8,4.5-7.9,10.9-7.9,18s2.3,11.9,6.1,16.2l-30.3-21.3ZM53.2,115.5c0,0-.2,0-.2,0l-9-6.3c2.8,1.1,5.8,1.7,9,1.7s6.6-.7,9.6-2l-9.4,6.6ZM53,107.9c-11.9,0-21.6-9.7-21.6-21.6s9.7-21.6,21.6-21.6,21.6,9.7,21.6,21.6-9.7,21.6-21.6,21.6ZM102.1,81.2l-31.2,21.9c4.1-4.4,6.6-10.3,6.6-16.7s-2.9-13.3-7.6-17.7l10.7-7.9c.9-.6,1.5-1.9,1.5-3v-4.4h20.2v27.2c0,.2-.2.5-.3.6Z"/>
  <g>
    <path class="st0" d="M24.6,139.4c0-.5,0-.6-.3-.6h-.2s0,1.1,0,1.1h.1c.4,0,.4,0,.5-.5Z"/>
    <path class="st0" d="M18.5,140h-.3s0,1.2,0,1.2h.3c.3,0,.3,0,.3-.6,0-.5,0-.6-.3-.6Z"/>
    <path class="st0" d="M18.5,138.5h-.2s0,1.1,0,1.1h.3c.3,0,.3,0,.3-.6,0-.4,0-.5-.3-.5Z"/>
    <path class="st0" d="M48.6,127.6h-.5s.1,2.4.1,2.4h.5c.7,0,.7-.2.7-1.3,0-1.1-.1-1.2-.8-1.2Z"/>
    <polygon class="st0" points="15.3 138.8 15.1 140.4 15.7 140.4 15.3 138.8 15.3 138.8"/>
    <polygon class="st0" points="94.4 138.9 94.4 138.9 94 140.5 94.6 140.6 94.4 138.9"/>
    <path class="st0" d="M90.6,139.2c0-.5,0-.6-.3-.6h-.2s0,1.1,0,1.1h.2c.3,0,.4,0,.4-.5Z"/>
    <path class="st0" d="M83.4,141.1c0,.3.2.4.4.4.2,0,.3-.2.3-.5v-1.8c-.2-.3-.3-.5-.5-.5-.2,0-.3.2-.3.5v1.8Z"/>
    <path class="st0" d="M21.3,141.3c.2,0,.3-.1.4-.4v-1.8c.1-.3,0-.5-.2-.5-.2,0-.3.1-.4.5v1.8c-.1.3,0,.5.2.5Z"/>
    <path class="st1" d="M102.1,145.9l-2.1-9c0-.3-.2-.5-.5-.6-.1,0-3.7-1.4-10.7-1.8-2.8-.2-5.9,0-9.3.7v-3.8c0-.3-.2-.6-.4-.7-.4-.3-10.1-7.1-26.2-7.1s-25.4,6.7-25.8,7c-.2.2-.4.5-.4.8v3.8c-3.3-.6-6.3-.8-9.1-.6-6.9.4-10.5,1.8-10.7,1.8-.3,0-.4.3-.5.6l-2.1,9c0,.3,0,.6.2.8.2.2.5.3.8.2,0,0,7.2-2.2,13.6-1.7,6.5.5,12.4,2,12.5,2,0,0,.1,0,.2,0,.2,0,.4,0,.5-.2.2-.2.3-.4.3-.7v-5.2c4.1-1.7,11.1-3.9,20.4-3.9s16.8,2.1,21,3.8v5.3c0,.3,0,.5.3.7.1.1.3.2.5.2s.1,0,.2,0c0,0,5.9-1.5,12.5-2,6.5-.5,13.5,1.7,13.6,1.7.3,0,.6,0,.8-.2.2-.2.3-.5.2-.8ZM19.2,143.5c-.7,0-1.4,0-2.1,0-4.4,0-8.7,1-10.7,1.5l1.7-7.2c1.1-.4,4.4-1.3,9.8-1.6,2.7-.1,5.7,0,9,.7,0,0,0,0,0,0v5.8c0,.3.3.6.6.8.1,0,.3.1.4.1s.4,0,.5-.2c0,0,.9-.6,2.6-1.4v3.4c-2.1-.5-6.7-1.5-11.7-1.8ZM53,135.4c-12.6,0-21.1,3.8-24.3,5.5v-9.2c1.9-1.2,10.8-6.4,24.3-6.4s22.8,5.3,24.7,6.5v8.9c-3.1-1.7-11.6-5.3-24.7-5.3ZM87.3,143.5c-5,.4-9.6,1.4-11.7,1.8v-3.6c1.7.8,2.6,1.3,2.6,1.3.3.2.7.2.9,0,.3-.2.5-.5.5-.8v-5.5c0,0,0,0,0,0,3.3-.6,6.4-.8,9.1-.7,5.4.3,8.7,1.2,9.8,1.6l1.7,7.2c-2.5-.6-7.8-1.8-12.9-1.4Z"/>
    <path class="st1" d="M41.8,141.8v1.4c.5-.2,1-.5,1.5-.8v4.6h1.7v-6.2h-1.4c-.5.4-1.1.8-1.8,1Z"/>
    <path class="st1" d="M63.3,140.8h-2l-2.6,3.8v1.2h2.9v1.2h1.7v-1.2h.9v-1.2h-.9v-3.8ZM61.6,144.6h-1.5l1.4-2.3h0v2.3Z"/>
    <path class="st1" d="M50.7,143.7h0c.7-.1,1.4-.7,1.4-1.5,0-1.3-1.4-1.6-2.5-1.6s-2.5.3-2.5,1.6.7,1.3,1.5,1.4h0c-.9.1-1.7.7-1.7,1.6s1.4,1.8,2.5,1.8,2.9-.3,2.9-1.8-.7-1.5-1.6-1.6ZM49.6,141.6c.5,0,.8.3.8.8s-.3.8-.8.8-.8-.3-.8-.8.3-.8.8-.8ZM49.6,145.9c-.5,0-1-.3-1-.8s.4-.8,1-.8,1,.3,1,.8-.4.8-1,.8Z"/>
    <path class="st1" d="M56.1,142.7c-.7,0-1.1.2-1.5.8h0s.1-1.6.1-1.6h2.9v-1.2h-4.5v3.6c-.1,0,1.6,0,1.6,0,0-.3.3-.5.7-.5.6,0,.8.4.8,1s-.2,1.1-.8,1.1-.8-.3-.8-.7h-1.7c0,1.6,1.4,1.9,2.7,1.9s2.4-.9,2.4-2.3-.7-2.1-1.9-2.1Z"/>
    <path class="st1" d="M55.4,126.6c-1.1,0-1.7.4-1.7,1.6,0,1,.5,1.6,1.1,2.3,1,1.1,1,1.3,1,1.9,0,.5-.2.8-.7.8-.4,0-.6-.3-.5-.8v-.6s-1,0-1,0v.9c0,.9.5,1.3,1.4,1.4,1.2,0,1.7-.6,1.7-1.7,0-.9-.1-1.2-1.1-2.3-.9-1-1-1.3-.9-1.8,0-.6.2-.8.6-.8.4,0,.6.3.5.7v.6s.9,0,.9,0v-.7c0-.5,0-.8-.2-.9-.2-.2-.6-.4-1.2-.5Z"/>
    <rect class="st1" x="43.2" y="127.2" width="1" height="7.3" transform="translate(-13.5 5.3) rotate(-6)"/>
    <path class="st1" d="M48.7,126.8h-1.7c0,0,.4,7.4.4,7.4h1c0,0-.2-3.2-.2-3.2h.7c1.4-.1,1.6-.5,1.5-2.2,0-1.7-.4-2-1.7-2ZM48.8,130h-.5s-.1-2.4-.1-2.4h.5c.7,0,.8,0,.8,1.1,0,1.1,0,1.2-.7,1.2Z"/>
    <polygon class="st1" points="59.3 134.2 62 134.5 62.1 133.7 60.4 133.5 60.6 131 62.3 131.2 62.3 130.4 60.7 130.2 60.9 127.9 62.7 128.1 62.7 127.3 60 127 59.3 134.2"/>
    <polygon class="st1" points="86.6 141.6 86.5 141.2 85.7 141.3 85.6 138.3 85.1 138.3 85.3 141.7 86.6 141.6"/>
    <polygon class="st1" points="92.1 141.7 92.6 141.7 92.7 138.7 93.3 138.7 93.3 138.3 91.7 138.2 91.7 138.6 92.3 138.7 92.1 141.7"/>
    <path class="st1" d="M88,141.6c.6,0,.8-.4.8-.8v-2.6c0,0-.6,0-.6,0v2.7c.1.2,0,.4-.2.4-.2,0-.3-.1-.3-.3v-2.7c-.1,0-.6,0-.6,0v2.6c.1.4.3.8.9.8Z"/>
    <path class="st1" d="M93.7,141.8l.2-.9h.7c0,0,0,.9,0,.9h.5s-.4-3.4-.4-3.4h-.5s-1,3.3-1,3.3h.5ZM94.4,138.9h0s.2,1.7.2,1.7h-.6s.4-1.7.4-1.7Z"/>
    <path class="st1" d="M96.5,142c.6,0,.8-.2.8-.8,0-.4,0-.6-.4-1.1-.4-.5-.4-.6-.4-.9,0-.3.1-.4.3-.3.2,0,.3.1.2.3v.3s.4,0,.4,0v-.3c0-.2,0-.4,0-.4-.1-.1-.3-.2-.5-.2-.5,0-.8.2-.8.7,0,.5.2.8.5,1.1.4.5.4.6.4.9,0,.2,0,.4-.3.4-.2,0-.3-.2-.2-.4v-.3s-.4,0-.4,0v.4c0,.4.2.6.6.7Z"/>
    <path class="st1" d="M90,140.1h.3c.6,0,.8-.1.8-.9,0-.8,0-1-.7-1h-.8s-.1,3.4-.1,3.4h.5s0-1.5,0-1.5ZM90,138.6h.2c.3,0,.4,0,.3.6,0,.5,0,.6-.4.6h-.2s0-1.1,0-1.1Z"/>
    <path class="st1" d="M82.9,141.1c0,.5.3.8.9.8.6,0,.8-.5.7-1v-1.7c-.2-.5-.4-.8-1-.8-.6,0-.8.5-.7,1v1.7ZM83.5,138.8c.2,0,.3.1.4.5v1.8c.2.3,0,.5-.2.5-.2,0-.3-.1-.4-.4v-1.8c-.2-.3,0-.5.1-.5Z"/>
    <polygon class="st1" points="81.8 142 82.2 138.5 81.7 138.6 81.5 141.3 81.5 141.3 80.7 138.7 80.2 138.7 81.3 142.1 81.8 142"/>
    <polygon class="st1" points="12.5 141.5 12.3 138.5 11.8 138.5 12.1 141.9 13.4 141.8 13.3 141.4 12.5 141.5"/>
    <path class="st1" d="M18.6,138.1h-.8s-.1,3.4-.1,3.4h.7c.7,0,.8-.2.8-.9,0-.6,0-.7-.4-.8h0c.3,0,.4-.1.5-.8,0-.6,0-.8-.7-.8ZM18.8,140.6c0,.5,0,.6-.3.6h-.3s0-1.2,0-1.2h.3c.3,0,.3,0,.3.6ZM18.8,139c0,.6,0,.6-.3.6h-.3s0-1.1,0-1.1h.2c.3,0,.4.1.3.5Z"/>
    <path class="st1" d="M15,138.3l-.6,3.4h.5s.1-.9.1-.9h.7s.2.8.2.8h.5s-.9-3.4-.9-3.4h-.5ZM15.1,140.4l.2-1.7h0s.4,1.6.4,1.6h-.6Z"/>
    <path class="st1" d="M24,140.3h.2c.3,0,.4.1.3.4v.8c0,.1,0,.2,0,.3h.4c0-.1,0-.3,0-.4v-.7c0-.3,0-.5-.3-.6h0c.4,0,.5-.3.5-.8,0-.7,0-.9-.7-1h-.7c0,0-.3,3.4-.3,3.4h.5s.1-1.4.1-1.4ZM24.1,138.8h.2c.3,0,.3,0,.3.6,0,.5,0,.6-.5.5h-.1s0-1.1,0-1.1Z"/>
    <path class="st1" d="M21.3,141.7c.6,0,.8-.4.8-.9v-1.7c.1-.5,0-.9-.7-.9-.6,0-.8.4-.8.9v1.7c-.1.5,0,.9.7.9ZM21.1,139.1c0-.3.1-.5.4-.5.2,0,.3.2.3.5v1.8c-.1.3-.2.4-.4.4-.2,0-.3-.2-.3-.5v-1.8Z"/>
  </g>
  <path class="st1" d="M69.7,56c-.1.3,0,.6.4.7.4.1.7,0,.8-.5.1-.3,0-.5-.2-1-.2-.5-.2-.6-.2-.8,0-.2.2-.3.3-.2.1,0,.2.2.1.3v.2c0,0,.3.1.3.1v-.3c.1-.2.1-.3,0-.4,0-.1-.2-.2-.4-.3-.4-.1-.7,0-.8.4-.1.4,0,.6.2,1,.3.5.3.6.2.8,0,.2-.1.3-.3.2-.1,0-.2-.2-.1-.4v-.2c0,0-.3-.1-.3-.1v.3ZM70.1,53.7h-.4c0,0-.5,2.1-.5,2.1,0,.2-.1.3-.3.2-.2,0-.2-.2-.2-.3l.5-2.2h-.4c0,0-.5,2-.5,2,0,.3,0,.7.5.8.5.1.7-.2.8-.5l.5-2.1ZM65.9,55.6h.3c0,0,.5-2.4.5-2.4h0s0,2.6,0,2.6h.4c0,0,.9-2.3.9-2.3h0s-.5,2.5-.5,2.5h.4c0,0,.5-2.7.5-2.7h-.6c0-.1-.8,1.9-.8,1.9h0s0-2.2,0-2.2h-.6c0-.1-.5,2.6-.5,2.6ZM65.3,53.1h0s0,1.4,0,1.4h-.5c0,0,.4-1.4.4-1.4ZM64.1,55.3h.4c0,0,.2-.6.2-.6h.6c0,0,0,.8,0,.8h.4c0,0-.1-2.8-.1-2.8h-.4c0,0-1,2.6-1,2.6ZM64.3,52.5h-.4s-.3,2.2-.3,2.2c0,.2-.1.3-.3.3-.2,0-.3-.1-.2-.3l.3-2.2h-.4s-.3,2.1-.3,2.1c0,.3,0,.7.6.7.5,0,.7-.2.7-.6l.3-2.2ZM61.8,52.5h.2c.2,0,.3.1.3.4,0,.5,0,.5-.3.5h-.2s0-.9,0-.9ZM61.7,53.7h.3c.2,0,.2.1.2.5,0,.4,0,.5-.3.5h-.2s.1-1,.1-1ZM61.2,55h.6c.6.1.7,0,.7-.7,0-.5,0-.6-.3-.7h0c.3,0,.4,0,.4-.6,0-.5,0-.7-.5-.7h-.7c0,0-.3,2.7-.3,2.7ZM60.5,54.9h.4s.3-2.8.3-2.8h-.4s-.3,2.8-.3,2.8ZM59.6,52.4h.2c.2,0,.3,0,.2.5,0,.4,0,.5-.4.4h-.1s0-.9,0-.9ZM59,54.8h.4s.1-1.2.1-1.2h.1c.3,0,.3.1.3.4v.6c0,.1,0,.2,0,.3h.4c0,0,0-.2,0-.3v-.6c0-.3,0-.4-.3-.5h0c.3,0,.4-.2.4-.6,0-.6,0-.8-.6-.8h-.6c0,0-.2,2.8-.2,2.8ZM57.7,52.2h.5s-.2,2.5-.2,2.5h.4s.2-2.5.2-2.5h.5s0-.3,0-.3h-1.3c0,0,0,.2,0,.2ZM56.4,54.6h1.1c0,0,0-.3,0-.3h-.7s0-1,0-1h.6s0-.3,0-.3h-.6s0-.9,0-.9h.7s0-.3,0-.3h-1.1c0,0-.2,2.8-.2,2.8ZM55.4,52.1h.2c.2,0,.3,0,.2.5,0,.4,0,.5-.4.5h-.1s0-.9,0-.9ZM54.9,54.6h.4s0-1.2,0-1.2h.1c.3,0,.3,0,.3.4v.6c0,.1,0,.2,0,.3h.4c0-.1,0-.2,0-.3v-.6c0-.3,0-.4-.3-.4h0c.3,0,.4-.3.4-.6,0-.6,0-.8-.6-.8h-.6s-.1,2.8-.1,2.8ZM52.6,54.5h.6c.6,0,.8-.2.8-.9v-.8c0-.8,0-1-.6-1h-.6s0,2.8,0,2.8ZM53,52h.2c.3,0,.4.2.4.6v1c0,.5,0,.6-.4.6h-.2s0-2.2,0-2.2ZM51.9,54.5h.4s-.1-2.8-.1-2.8h-.4s.1,2.8.1,2.8ZM51.5,51.7h-.4s.1,2.3.1,2.3c0,.2,0,.3-.3.3-.2,0-.3,0-.3-.3v-2.2c-.1,0-.5,0-.5,0v2.2c.1.3.3.7.8.6.5,0,.6-.4.6-.7v-2.2ZM48.6,54c0,.4.2.7.7.7.2,0,.6,0,.9,0v-.3c-.2,0-.3,0-.4,0h0c0-.1.1-.4.1-.6v-1.3c-.1-.4-.3-.7-.8-.7-.5,0-.6.4-.6.8v1.4ZM48.9,52.6c0-.3,0-.4.2-.4.2,0,.3.1.3.4v1.5c.1.2,0,.4-.2.4-.2,0-.3-.1-.3-.4v-1.5ZM46.3,54.2c0,.4.2.7.7.6.5,0,.6-.4.6-.8v-1.4c-.2-.4-.3-.7-.9-.6-.5,0-.6.4-.6.8v1.4ZM46.5,52.8c0-.3,0-.4.2-.4.2,0,.3.1.3.4v1.5c.2.2,0,.4-.1.4-.2,0-.3-.1-.3-.3v-1.5ZM44.6,52.6h.5s.3,2.4.3,2.4h.4s-.3-2.5-.3-2.5h.5s0-.4,0-.4h-1.3c0,.1,0,.5,0,.5ZM43.4,55.2h.3s-.3-2.4-.3-2.4h0s.8,2.3.8,2.3h.6c0,0-.3-2.9-.3-2.9h-.4s.3,2.4.3,2.4h0s-.7-2.3-.7-2.3h-.5c0,0,.3,2.9.3,2.9ZM42,53h0s.4,1.3.4,1.3h-.5c0,0,0-1.3,0-1.3ZM41.6,55.5h.4c0,0,0-.8,0-.8h.6c0,0,.2.6.2.6h.4c0,0-1-2.8-1-2.8h-.4c0,0-.2,2.9-.2,2.9ZM40.1,53.2h.5c0,0,.4,2.4.4,2.4h.4c0,0-.4-2.5-.4-2.5h.5c0,0,0-.4,0-.4l-1.3.2v.3ZM38.3,55.4c0,.4.3.7.8.6.5-.1.6-.5.5-.9l-.3-1.4c0-.4-.3-.7-.8-.6-.5.1-.6.5-.5.9l.3,1.4ZM38.4,53.9c0-.3,0-.4.2-.5.2,0,.3,0,.4.3l.3,1.5c0,.2,0,.4-.2.4-.2,0-.3,0-.3-.3l-.3-1.5ZM36.8,53.9h.2c.2-.1.3,0,.4.3.1.4,0,.5-.2.6h0s-.2-.9-.2-.9ZM37,56.4h.4c0,0-.3-1.3-.3-1.3h.1c.3,0,.3,0,.4.2l.2.6c0,.1,0,.2.1.2h.4c0-.2,0-.3-.1-.4v-.6c-.2-.3-.3-.4-.6-.3h0c.3-.2.3-.4.2-.7-.1-.6-.2-.7-.8-.6h-.6c0,.1.7,2.9.7,2.9ZM35.5,56.9h.4c0-.1-.3-1.3-.3-1.3h.2c.5-.2.6-.4.4-1-.2-.6-.3-.7-.8-.6l-.6.2.8,2.7ZM35.2,54.4h.2c.3-.1.3,0,.4.3.1.4.1.5-.1.5h-.2c0,0-.3-.8-.3-.8Z"/>
</svg>