<?xml version="1.0" encoding="UTF-8"?>
<svg id="Layer_1" xmlns="http://www.w3.org/2000/svg" xmlns:xlink="http://www.w3.org/1999/xlink" version="1.1" viewBox="0 0 30 30">
  <!-- Generator: Adobe Illustrator 29.3.1, SVG Export Plug-In . SVG Version: 2.1.0 Build 151)  -->
  <defs>
    <style>
      .st0 {
        fill: none;
      }

      .st1 {
        fill: #212d43;
      }

      .st2 {
        clip-path: url(#clippath);
      }
    </style>
    <clipPath id="clippath">
      <rect class="st0" x=".7" y=".7" width="28.7" height="28.7"/>
    </clipPath>
  </defs>
  <g class="st2">
    <path class="st1" d="M1.8,15c0,7.3,5.9,13.2,13.2,13.2,7.3,0,13.2-5.9,13.2-13.2,0-7.3-5.9-13.2-13.2-13.2-7.3,0-13.2,5.9-13.2,13.2M29.3,15c0,7.9-6.4,14.3-14.4,14.3-7.9,0-14.3-6.5-14.3-14.4C.7,7.1,7.1.7,15,.7c7.9,0,14.3,6.4,14.3,14.4"/>
    <path class="st1" d="M18.9,6.4v3c-.6,0-1.2,0-1.7,0-.7,0-.9.2-.9.9,0,.4,0,.8,0,1.2h2.7c-.1,1.2-.2,2.3-.3,3.4h-2.5v8.5h-3.4v-8.5h-1.7v-3.4h1.7c0-.4,0-.9,0-1.3,0-.5,0-1,.2-1.5.3-1.3,1.2-2.1,2.5-2.3,1.2-.1,2.4-.1,3.6-.1"/>
  </g>
</svg>