<?xml version="1.0" encoding="UTF-8"?><svg id="Layer_1" xmlns="http://www.w3.org/2000/svg" viewBox="0 0 30 30"><defs><style>.cls-1{fill:#212d43;}</style></defs><path class="cls-1" d="M15,.93c-7.76,0-14.06,6.29-14.07,14.05-.01,7.74,6.29,14.08,14.01,14.08,7.81,0,14.13-6.28,14.13-14.05,0-7.78-6.3-14.08-14.07-14.08ZM18.59,15h-2.48v8.36h-3.33v-8.34h-1.68v-3.36h1.64c0-.44-.02-.84,0-1.24.03-.48.04-.98.16-1.44.33-1.25,1.14-2.08,2.42-2.23,1.15-.14,2.33-.1,3.52-.14v2.91c-.58,0-1.13,0-1.68,0-.69,0-.91.23-.92.92,0,.39,0,.78,0,1.21h2.66c-.1,1.13-.2,2.22-.31,3.36Z"/></svg>