<?xml version="1.0" encoding="UTF-8"?>
<svg id="Layer_1" xmlns="http://www.w3.org/2000/svg" xmlns:xlink="http://www.w3.org/1999/xlink" version="1.1" viewBox="0 0 30 30">
  <!-- Generator: Adobe Illustrator 29.3.1, SVG Export Plug-In . SVG Version: 2.1.0 Build 151)  -->
  <defs>
    <style>
      .st0 {
        fill: none;
      }

      .st1 {
        fill: #212d43;
      }

      .st2 {
        clip-path: url(#clippath);
      }
    </style>
    <clipPath id="clippath">
      <rect class="st0" x=".7" y=".7" width="28.7" height="28.7"/>
    </clipPath>
  </defs>
  <g class="st2">
    <path class="st1" d="M1.8,15c0,7.3,5.9,13.2,13.2,13.2,7.3,0,13.2-5.9,13.2-13.2,0-7.3-5.9-13.2-13.2-13.2-7.3,0-13.2,5.9-13.2,13.2M29.3,15c0,7.9-6.4,14.3-14.4,14.3-7.9,0-14.3-6.5-14.3-14.4C.7,7.1,7.1.7,15,.7c7.9,0,14.3,6.4,14.3,14.4"/>
    <path class="st1" d="M12.8,8.9c-.9,0-2,0-2.8.6-1.3.9-1.2,2.4-1.2,3.8,0,1.4,0,2.8,0,4.1,0,.9,0,1.8.6,2.6.8,1,1.8,1,3,1.1,1.4,0,2.8,0,4.1,0,1.4,0,2.9,0,3.8-1.2.6-.8.5-1.8.6-2.7,0-1.5,0-2.9,0-4.4,0-1.2,0-2.4-1-3.2-.8-.7-1.9-.7-2.9-.7-1.4,0-2.9,0-4.3,0M13.5,7.5c1,0,2,0,3,0,1.8,0,3.5,0,4.8,1.4,1.2,1.3,1.1,2.9,1.1,4.5,0,1,0,2,0,3,0,1.9,0,3.7-1.5,5-1.1.9-2.4.9-3.8,1-1.4,0-2.9,0-4.3,0-1.4,0-2.8,0-3.9-1.1-1.3-1.2-1.3-2.6-1.4-4.2,0-1.4,0-2.9,0-4.3,0-1.4,0-2.6,1-3.8,1.3-1.6,3.1-1.5,5-1.5"/>
    <path class="st1" d="M14.7,12.5c-1.3.1-2.3,1.3-2.2,2.6.1,2,2.4,3.1,4,1.8,1.9-1.5.7-4.6-1.8-4.4M14.8,11.1c3.1-.2,5.1,3.2,3.4,5.9-1.5,2.4-4.9,2.4-6.4,0-1.6-2.5,0-5.8,3-5.9"/>
    <path class="st1" d="M18.8,10.1c.9-.1,1.4,1,.7,1.6-.5.4-1.2.2-1.4-.4-.2-.5.2-1.1.7-1.2"/>
  </g>
</svg>