<?xml version="1.0" encoding="UTF-8"?><svg id="Layer_1" xmlns="http://www.w3.org/2000/svg" viewBox="0 0 30 30"><defs><style>.cls-1{fill:#212d43;}</style></defs><path class="cls-1" d="M14.7,12.14c-1.49.12-2.64,1.49-2.56,2.97.12,2.27,2.79,3.5,4.58,2.07,2.2-1.75.81-5.26-2.03-5.04Z"/><path class="cls-1" d="M15,.66c-7.91,0-14.33,6.41-14.34,14.33-.01,7.89,6.41,14.35,14.28,14.36,7.96,0,14.4-6.4,14.4-14.33,0-7.93-6.42-14.36-14.34-14.36ZM21.71,22.32c-1.27,1.04-2.73,1.07-4.29,1.1-1.62.04-3.27.04-4.89,0-1.64-.04-3.16-.08-4.45-1.24-1.46-1.31-1.53-2.94-1.57-4.78-.04-1.63-.04-3.28,0-4.91.04-1.56.07-3.01,1.1-4.28,1.46-1.8,3.56-1.73,5.68-1.75,1.14-.02,2.29,0,3.43.01,2.03.03,3.98-.07,5.47,1.56,1.33,1.46,1.24,3.31,1.26,5.15.02,1.13.03,2.27.02,3.4-.03,2.13.04,4.26-1.76,5.72Z"/><path class="cls-1" d="M20.77,8.8c-.91-.77-2.18-.75-3.3-.78-1.62-.04-3.3-.05-4.92-.01-1.05.02-2.29.02-3.18.65-1.44,1.01-1.31,2.79-1.34,4.36-.03,1.57-.04,3.16.02,4.73.03,1.02.04,2.08.71,2.92.89,1.13,2.1,1.17,3.43,1.22,1.57.05,3.16.04,4.73.02,1.57-.03,3.35.11,4.36-1.34.63-.9.61-2.06.63-3.11.04-1.65.04-3.33,0-4.99-.03-1.37-.01-2.71-1.14-3.67ZM18.67,17.27c-1.68,2.68-5.59,2.73-7.33.08-1.86-2.82.08-6.59,3.43-6.76,3.5-.18,5.77,3.7,3.9,6.67ZM20.14,11.22c-.55.45-1.4.19-1.61-.48-.18-.58.2-1.25.81-1.32,1.05-.13,1.6,1.15.8,1.8Z"/></svg>