<?xml version="1.0" encoding="UTF-8"?><svg id="Layer_1" xmlns="http://www.w3.org/2000/svg" viewBox="0 0 30 30"><defs><style>.cls-1{fill:#212d43;}</style></defs><path class="cls-1" d="M15,.66c-7.91,0-14.33,6.41-14.34,14.33-.01,7.89,6.41,14.35,14.28,14.36,7.96,0,14.4-6.4,14.4-14.33,0-7.93-6.42-14.36-14.34-14.36ZM23.42,22.03h-3.39v-6.09c0-.36-.35-1.1-.63-1.34-1.1-.96-2.98.03-2.98,1.39v6.04h-3.39v-10.22h3.39v1.37c.13.03.09-.02.13-.07.77-.99,1.46-1.52,2.8-1.57,2.46-.1,3.91,1.62,4.07,3.97v6.53ZM11.12,11.8v10.22h-3.39v-10.22h3.39ZM9.26,6.85c2.68-.25,2.84,3.48.25,3.54-2.42.06-2.68-3.31-.25-3.54Z"/></svg>