<?xml version="1.0" encoding="UTF-8"?>
<svg id="Layer_1" xmlns="http://www.w3.org/2000/svg" version="1.1" viewBox="0 0 180 48.7">
  <!-- Generator: Adobe Illustrator 29.3.1, SVG Export Plug-In . SVG Version: 2.1.0 Build 151)  -->
  <defs>
    <style>
      .st0 {
        fill: #212d44;
      }
    </style>
  </defs>
  <g>
    <g>
      <path class="st0" d="M54,19.7h-8.8v-.4l1.6-.5c.4-.1.4-.3.4-.9V4.5c0-.6,0-.8-.4-.9l-1.6-.5v-.4h7.9c2.7,0,6.1.3,6.1,3.6s-2.4,3.5-3.7,3.9h0c2.4.1,4.9,1.5,4.9,4.2s-1.6,5.3-6.4,5.3ZM51.9,3.7h-1.3v6.2h1.5c1.4,0,3.6-.5,3.6-3.2s-1.8-3-3.8-3ZM52.5,11.1h-1.8v6.5c0,.7.4.8.8.8h1.3c1.9,0,3.9-.7,3.9-3.7s-1.9-3.7-4.1-3.7Z"/>
      <path class="st0" d="M67.5,20c-3.7,0-5.8-3-5.8-6.6s2.2-7.1,6.3-7.1,4.9,2.6,4.9,5.5v.5h-8.7c0,3.6,2.5,5.3,4.9,5.3s2.6-.4,3.5-1l.3.5c-1.5,1.7-3,3-5.5,3ZM66.9,7.5c-1.8,0-2.8,1.9-2.8,3.6h3s2.5-.2,2.5-.2c.1-1.7-.9-3.4-2.8-3.4Z"/>
      <path class="st0" d="M74,19.7v-.4l1.5-.5c.3-.1.4-.3.4-.8V3.2c0-.5,0-.7-.5-.8l-1.5-.3v-.4l4.8-.7h.2v17c0,.6,0,.7.3.8l1.5.5v.4h-6.7Z"/>
      <path class="st0" d="M91.2,2.8l-.5,1.3h-.4c-.5-.8-1.5-1.5-2.5-1.5-1.6,0-2.3,1.2-2.3,2.7v1.8h3.5v1.4h-3.4v9.5c0,.5,0,.7.4.8l2.1.5v.4h-7.2v-.4l1.4-.5c.3-.1.4-.3.4-.8v-9.5h-1.8v-1.4h1.8v-.7c.1-2.6,3.2-5.5,6.6-5.5s2.2,0,2.2,1,0,.6-.2.9Z"/>
      <path class="st0" d="M97.4,19.9h-.2c0-.1-.2-1.7-.2-1.7h-.2c-1.2,1-2.4,1.8-4.2,1.8s-3.4-1.2-3.4-3.2c0-3,2.3-3.9,7.4-5v-1.3c0-2-1.3-2.7-2.9-2.7s-1.5.4-1.5,1.1v1.2l-.2.2h-1.2c-.6,0-.8-.4-.8-.8,0-.7.6-1.4,1.2-1.9,1-.9,2.5-1.4,3.9-1.4,3.1,0,4.4,1.8,4.4,4.8v6.5c.2.5.2.7.6.8l1.5.3v.4l-4.4.6ZM96.7,12.9c-3.5.6-4.3,1.7-4.3,3s.9,2.1,2.1,2.1,1.7-.3,2.2-.7v-4.4Z"/>
      <path class="st0" d="M105.8,19.9c-1,0-2.5-.2-3.4-.7v-3.5h.8l.3,1.3c.1.5.1.8.5,1,.4.3,1.2.5,1.9.5,1.1,0,2.3-.6,2.3-1.9s-1.7-2.1-3.1-2.8c-1.6-.8-2.9-1.8-2.9-3.7s2.1-3.9,4.5-3.9,2,.1,3,.6v3.1h-.8l-.3-1.2c0-.3-.2-.5-.4-.7-.5-.4-1.2-.6-1.9-.6-1.1,0-1.9.6-1.9,1.6s1.4,1.7,2.9,2.4c1.8.9,3.1,1.9,3.1,4s-2,4.3-4.7,4.3Z"/>
      <path class="st0" d="M116,19.9c-2.2,0-3.4-1.6-3.4-3.9v-7.7h-1.8v-1.4h1.9v-2.6l2.9-1.2v3.9h3.4v1.4h-3.4v7.1c0,1.5.7,2.6,2,2.6s1.3-.3,1.6-.6l.4.5c-.9.9-2.2,1.9-3.8,1.9Z"/>
    </g>
    <g>
      <path class="st0" d="M56.7,42.6v-.4l1.6-.5c.4-.1.4-.3.4-.9v-6.5h-8.1v6.5c0,.6,0,.8.4.9l1.6.5v.4h-7.4v-.4l1.6-.5c.4-.1.4-.3.4-.9v-13.3c0-.6,0-.8-.4-.9l-1.6-.5v-.4h7.4v.4l-1.6.5c-.3.1-.4.3-.4.9v5.4h8.1v-5.4c0-.6,0-.8-.4-.9l-1.6-.5v-.4h7.4v.4l-1.6.5c-.3.1-.4.3-.4.9v13.3c0,.6,0,.8.4.9l1.6.5v.4h-7.4Z"/>
      <path class="st0" d="M64.9,42.6v-.4l1.5-.5c.3-.1.4-.3.4-.8v-9.3c0-.5,0-.7-.5-.8l-1.5-.3v-.4l4.8-.7h.2v11.5c0,.5,0,.7.3.8l1.5.5v.4h-6.7ZM68.2,27.3c-1.2,0-1.8-.7-1.8-1.7s.6-1.7,1.9-1.7,1.8.7,1.8,1.6-.8,1.8-1.9,1.8Z"/>
      <path class="st0" d="M82.6,31.4c.3.4.4,1.1.4,1.8,0,2.6-2.3,4.2-5.1,4.2s-1.6-.1-2.2-.3l-.7.5c-.4.3-.7.7-.7,1.1,0,.8.8,1.3,2.2,1.3h3.5c2.2,0,4.1.8,4.1,3.2s-3.6,4.7-6.6,4.7-5.5-.5-5.5-3,.9-2,2.5-2.6h0c-1.4-.3-2.3-1.3-2.3-2.4s.8-1.9,1.6-2.5l1.1-.8c-1.1-.7-1.7-1.8-1.7-3.2,0-2.5,2.1-4.2,5.1-4.2s2.5.4,3.1.8h3.3v1.4h-2ZM79.6,42.5h-4c-.7.2-1.4.8-1.4,1.7,0,1.6,2,2.3,3.9,2.3s3.7-.8,3.7-2.3-1-1.7-2.3-1.7ZM77.9,30.2c-1.4,0-1.9,1.3-1.9,2.6s.6,3.6,2.3,3.6,1.9-1.3,1.9-2.6c0-1.3-.7-3.7-2.3-3.7Z"/>
      <path class="st0" d="M92.7,42.6v-.4l1.5-.5c.3-.1.3-.3.3-.8v-6.7c0-1.7-1-2.8-2.7-2.8s-1.7.3-2.4.9v8.6c0,.6,0,.7.3.8l1.5.5v.4h-6.7v-.4l1.5-.5c.3-.1.4-.3.4-.8v-14.8c0-.5,0-.7-.5-.8l-1.5-.3v-.4l4.8-.7h.2v7.3h0c1.4-1.2,2.7-1.6,4.2-1.6,2.5,0,3.8,1.7,3.8,3.9v7.4c0,.6,0,.7.4.8l1.5.5v.4h-6.7Z"/>
      <path class="st0" d="M110.7,43c-1.5,0-3.2-.3-4.4-.9v-4h.9l.4,1.8c.1.5.3.7.8,1,.6.4,1.7.6,2.6.6,1.7,0,3.4-1,3.4-2.9s-1.5-2.6-2.8-3.2l-1.6-.8c-1.9-.9-3.7-2.1-3.7-4.5s2.6-5,5.9-5,2.8,0,4.3.7v3.6h-.8l-.4-1.6c-.1-.5-.3-.7-.8-1-.7-.3-1.5-.5-2.3-.5-1.3,0-2.9.7-2.9,2.3s1.4,2.3,2.9,3l1.5.8c2,1,3.7,2.3,3.7,4.7,0,3.8-3.2,5.7-6.6,5.7Z"/>
      <path class="st0" d="M124,43c-3.2,0-5.3-3.1-5.3-6.5s2.7-7.1,6.6-7.1,3.2.3,3.2,1.3-.1.7-.3,1l-.6,1.4h-.4c-.4-1.2-1.3-2.3-2.8-2.3s-2.9,2.2-2.9,4.3c0,3.2,1.5,5.5,4,5.5s2.2-.5,2.9-1l.4.5c-1.2,1.4-2.6,3-4.9,3Z"/>
      <path class="st0" d="M137.7,42.6v-.4l1.5-.5c.3-.1.3-.3.3-.8v-6.7c0-1.7-1-2.8-2.7-2.8s-1.7.3-2.4.9v8.6c0,.6,0,.7.3.8l1.5.5v.4h-6.7v-.4l1.5-.5c.3-.1.4-.3.4-.8v-14.8c0-.5,0-.7-.5-.8l-1.5-.3v-.4l4.8-.7h.2v7.3h0c1.4-1.2,2.7-1.6,4.2-1.6,2.5,0,3.8,1.7,3.8,3.9v7.4c0,.6,0,.7.4.8l1.5.5v.4h-6.7Z"/>
      <path class="st0" d="M151,43c-4,0-6.3-2.6-6.3-6.6s2.4-7.2,6.7-7.2,6.4,2.8,6.4,6.6-2.7,7.2-6.8,7.2ZM150.8,30.3c-2.1,0-2.8,2.2-2.8,4.6s.8,7.1,3.5,7.1,2.9-2.3,2.9-4.7-.9-7-3.7-7Z"/>
      <path class="st0" d="M165.5,43c-4,0-6.3-2.6-6.3-6.6s2.4-7.2,6.7-7.2,6.4,2.8,6.4,6.6-2.7,7.2-6.8,7.2ZM165.2,30.3c-2.1,0-2.8,2.2-2.8,4.6s.8,7.1,3.5,7.1,2.9-2.3,2.9-4.7-.9-7-3.7-7Z"/>
      <path class="st0" d="M172.9,42.6v-.4l1.5-.5c.3-.1.4-.3.4-.8v-14.8c0-.5,0-.7-.5-.8l-1.5-.3v-.4l4.8-.7h.2v17c0,.6,0,.7.3.8l1.5.5v.4h-6.7Z"/>
    </g>
  </g>
  <g>
    <path class="st0" d="M4.5,11.4h-.1s0,0,0,0v-.3s0,0,0,0l-.7-.2s0,0,0,0h.9s0,0,0,0v.6ZM4.9,13.8h.3s0-2.3,0-2.3c0,0-.2,0-.4-.1-.3-.2-.1-.8-.1-.8,0,0,0,0,0,0h-2.3s0,0,0,0v.8s0,0,0,0h1.1s0,0,0,0l-.5.8s0,0,0,0l.3.2s0,0,0,0l.4-.5s0,0,0,0c0,0,.1.1.3.3.2.2.5.2.5.2,0,0,0,0,0,0v1.2s0,0,0,0M6.8,11.1c.2-.5,0-1.1,0-1.1,0,0,0,0,0,0,0,0,.3.4.2,1-.2.9-.8,1-.8,1,0,0,0,0,0,0,0,0,.3-.2.5-.8M6.6,7.8c0,.2-.2.4-.4.4s-.4-.2-.4-.4.2-.4.4-.4.4.2.4.4M6.9,7.7s0,0,0,0c0,0-.4-.4-.5-.5,0-.1.1-.3.1-.3,0,0,0,0,0,0l-.3-.2s0,0,0,0l-1,1.4s0,0,0,0c0,0,1.1.4,1.3,1.6.2,1.2-.6,1.8-.9,1.8,0,0-.2,0-.3,0v2.3s1,0,1,0c0,0,0,0,0,0v-.2h-.7s0,0,0,0v-1s0,0,0,0c0,0,1.2-.3,1.4-1.2.3-1.1-.5-2.7-.5-2.9s.2-.6.2-.6"/>
    <polygon class="st0" points="2.7 14.6 7 14.6 6.6 14 3.1 14.1 2.7 14.6"/>
    <polygon class="st0" points="3.2 13.8 3.4 13.6 4.6 13.6 4.6 13.8 3.2 13.8"/>
    <polygon class="st0" points="3.5 13.4 4.6 13.4 4.6 13.1 3.6 13.1 3.5 13.4"/>
    <path class="st0" d="M6.2,7.9c0,0,.1,0,.1-.1s0-.1-.1-.1-.1,0-.1.1,0,.1.1.1"/>
    <path class="st0" d="M3.9,7.7l-.2.3s0,0,0,0l1.2.8s0,0,0,0l.2-.3s0,0,0,0l-1.3-.8Z"/>
    <path class="st0" d="M4.6,8.8h-.1c0,0,0,0,0,0l-.3-.2s0,0,0,0h-.1c0-.1,0-.1-.1,0h0c0,.1,0,.2,0,.2h0s-.6,1-.6,1c0,0,0,0,0,.1l.3.2s0,0,.1,0l.6-.9h0c0,0,0,0,.1,0h0c0-.1,0-.2,0-.2"/>
    <path class="st0" d="M4.4,7.9l.5.3s0,0,0,0l1.7-2.5s0,0,0,0l-.4-.3s0,0,0,0l-1.7,2.5Z"/>
    <path class="st0" d="M8.8,23.6c0,0,0,.1-.1.1s-.1,0-.1-.1,0-.1.1-.1.1,0,.1.1M8.1,23.6c0,0,0,.1-.1.1s-.1,0-.1-.1,0-.1.1-.1.1,0,.1.1M7.4,23.6c0,0,0,.1-.1.1s-.1,0-.1-.1,0-.1.1-.1.1,0,.1.1M6.4,23.6c0,0,0,.1-.1.1s-.1,0-.1-.1,0-.1.1-.1.1,0,.1.1M5.3,23.5c0,0,0,.1-.1.1s-.1,0-.1-.1,0-.1.1-.1.1,0,.1.1M4.2,23.2c0,0,0,.1-.1.1s-.1,0-.1-.1,0-.1.1-.1.1,0,.1.1M9.8,24.2s-.3-.2-.4-.2c-.3.1-.5.1-.5.1,0,0,0,0,0,0l.5-.9s0,0,0,0c0,0-2.7,0-3.3-.1-.6,0-1.8-.2-2.4-.6,0,0-.2,0-.2,0,0,0,0,0,0,0l.5,1.7s0,0,0,0c0,0,.5,0,.5-.2,0,0,0,.3.3.3.2,0,.2,0,.3,0,.2-.1.1-.1.2-.1,0,0,.2.2.4.1.2,0,.3,0,.3,0,0,0,0,0,0,0,0,0,0,.3.3.3.3,0,.4,0,.5,0,.1,0,.2-.1.2-.1,0,0,.1.1.4.1.4,0,.4-.1.4-.1s0,.1.3.1.3,0,.3,0c0,0,0,.1.3.1.2,0,.3,0,.3,0,0,0,0,0,0,0,0,0,.1,0,.3,0,.1,0,.2,0,.2,0"/>
    <path class="st0" d="M3.2,22.4s-1,.2-.9.4c.2.3.8,1.1.8,1.1,0,0,0,.1,0,.1s-.5-.1-.5-.1c0,0,.2,0,.2.1,0,.1,0,.1,0,.1,0,0,.4,0,.7,0,.3,0,.5,0,.5,0l-.6-1.8Z"/>
    <path class="st0" d="M8.5,23h-.2v-.4h.2s0,.4,0,.4ZM7.8,23h-.3v-.4h.3s0,.4,0,.4ZM7,22.9h-.3v-.5h.3s0,.5,0,.5ZM6.1,22.8h-.4v-.6h.3c0,0,0,.6,0,.6ZM5.1,22.7h-.4v-.6h.3c0,0,0,.6,0,.6ZM9,22.7s0,0,0,0l-4.8-.8s0,0,0,0v.6s0,0,0,0c0,0,1.3.3,2.4.4,1.1,0,2.4,0,2.4,0,0,0,0,0,0,0v-.3Z"/>
    <path class="st0" d="M2.7,22.4h.5c0-.1.1-.2.3-.1.1,0,.4.2.4.2v-.7h-1.2s0,.6,0,.6Z"/>
    <path class="st0" d="M2.9,21.6h0c0,.1,0,.1,0,.1h.8s0,0,0,0h0c0,0,0-.1,0-.1h-.9Z"/>
    <path class="st0" d="M4.1,21.6h0c0,.1,0,.1,0,.1l4.8.8s0,0,0,0h0c0,0,0,0,0,0l-4.8-.8Z"/>
    <path class="st0" d="M7.8,21.9s0,0,0,0,0,0,0,0v-.9s0,0,0,0,0,0,0,0v.9ZM7.9,22.1v-1.2s-.3-.3-.6-.3c-.3,0-.6.1-.6.1v1.2s1.2.2,1.2.2Z"/>
    <path class="st0" d="M6.1,21.6s0,0,0,0,0,0,0,0v-1s0,0,0,0,0,0,0,0v1ZM6.3,21.8v-1.4s-.3-.3-.7-.4c-.4,0-.7.1-.7.1v1.3s1.4.3,1.4.3Z"/>
    <path class="st0" d="M8.5,21.4s0,0,0,0l.7.4s0,0,0,0h-.5c0,0,0,0,0,0v.5s0,0,0,0c0,0,0,0,0,0v-.8Z"/>
    <path class="st0" d="M3.1,20.1s0,0,0,0l.3,1.4h.1s0,0,0,0l-.3-1.3h-.1Z"/>
    <path class="st0" d="M29.4,6.5c.3,0,.3-.2.3-.4-.1.1-.3.2-.3.4"/>
    <path class="st0" d="M29.2,6.9c0-.2,0-.3-.1-.4,0,.3,0,.3.1.4"/>
    <path class="st0" d="M29.5,5.9c.2-.1.2-.3.1-.5,0,.1-.1.3-.1.5"/>
    <path class="st0" d="M29.4,5.9c-.1.2-.1.2,0,.4,0-.1,0-.2,0-.4"/>
    <path class="st0" d="M29.8,5.8c0,.2,0,.3-.2.3,0-.1,0-.2.2-.3"/>
    <path class="st0" d="M29.6,6.5c-.1,0-.2,0-.2.2.2,0,.2,0,.2-.2"/>
    <path class="st0" d="M29.3,6.2c0,.3,0,.3,0,.4q0-.2,0-.4"/>
    <path class="st0" d="M29.6,6.7q-.3.2-.3.4c.2,0,.3-.1.3-.4"/>
    <path class="st0" d="M29.6,7.1q-.3.1-.4.3c.2,0,.3,0,.4-.3"/>
    <path class="st0" d="M29,6.8c0,.2,0,.3.1.4.1-.2,0-.3-.1-.4"/>
    <path class="st0" d="M30,6.9c.3,0,.4,0,.4-.3-.1,0-.3.1-.4.3"/>
    <path class="st0" d="M29.7,7.3c0-.1,0-.3,0-.4-.2.3-.2.3,0,.4"/>
    <path class="st0" d="M30.3,6.4c.2,0,.3-.2.2-.4-.1.1-.2.2-.2.4"/>
    <path class="st0" d="M30.2,6.3c-.2.2-.2.2,0,.4,0,0,.1-.2,0-.4"/>
    <path class="st0" d="M30.6,6.4c0,.2-.1.2-.3.2,0-.1.2-.2.3-.2"/>
    <path class="st0" d="M30.2,7c-.1,0-.2,0-.3.2.2,0,.2,0,.3-.2"/>
    <path class="st0" d="M30,6.6c-.1.2-.1.2,0,.4q.1-.2,0-.4"/>
    <path class="st0" d="M30.2,7.2q-.3,0-.4.2c.2,0,.3,0,.4-.2"/>
    <path class="st0" d="M30,7.6q-.3,0-.5.1c.2,0,.3,0,.5-.1"/>
    <path class="st0" d="M29.5,7.1c-.1.2-.1.3,0,.5.2-.2,0-.3,0-.5"/>
    <path class="st0" d="M30.8,6.9c.3,0,.4,0,.4-.3-.1,0-.3.1-.4.3"/>
    <path class="st0" d="M30.5,7.3c0-.1,0-.3,0-.4-.2.3-.2.3,0,.4"/>
    <path class="st0" d="M31.1,6.4c.2,0,.3-.2.2-.4-.1.1-.2.2-.2.4"/>
    <path class="st0" d="M31,6.3c-.2.2-.2.2,0,.4,0,0,.1-.2,0-.4"/>
    <path class="st0" d="M31.3,6.4c0,.2-.1.2-.3.2,0-.1.2-.2.3-.2"/>
    <path class="st0" d="M31,7c-.1,0-.2,0-.3.2.2,0,.2,0,.3-.2"/>
    <path class="st0" d="M30.7,6.6c-.1.2-.1.2,0,.4q.1-.2,0-.4"/>
    <path class="st0" d="M30.9,7.2q-.3,0-.4.2c.2,0,.3,0,.4-.2"/>
    <path class="st0" d="M30.8,7.5q-.3,0-.5.1c.2,0,.3,0,.5-.1"/>
    <path class="st0" d="M30.3,7.1c-.1.2-.1.3,0,.5.2-.2,0-.3,0-.5"/>
    <path class="st0" d="M31.5,7.1c.3,0,.4,0,.5-.2-.2,0-.3,0-.5.2"/>
    <path class="st0" d="M31.2,7.5c.1-.1.1-.3,0-.4-.2.2-.2.3,0,.4"/>
    <path class="st0" d="M31.9,6.7c.2,0,.3-.2.3-.4-.1,0-.2.2-.3.4"/>
    <path class="st0" d="M31.8,6.6c-.2.1-.2.2-.1.3.1,0,.1-.2.1-.3"/>
    <path class="st0" d="M32.1,6.7c-.1.2-.1.2-.3.2,0-.1.2-.1.3-.2"/>
    <path class="st0" d="M31.7,7.2c-.1,0-.2,0-.3.1.2,0,.2,0,.3-.1"/>
    <path class="st0" d="M31.5,6.8c-.2.2-.2.2-.1.4q.1-.1.1-.4"/>
    <path class="st0" d="M31.6,7.5q-.3,0-.5.2c.2,0,.3,0,.5-.2"/>
    <path class="st0" d="M31.4,7.7q-.3,0-.5,0c.2,0,.3.1.5,0"/>
    <path class="st0" d="M31,7.2c-.1.2-.2.3,0,.5.2-.1.1-.3,0-.5"/>
    <path class="st0" d="M31.8,8c.3.1.4.1.5,0-.2,0-.3,0-.5,0"/>
    <path class="st0" d="M31.3,8.2c.1,0,.2-.2.2-.4-.3.2-.3.2-.2.4"/>
    <path class="st0" d="M32.2,7.7c.2,0,.3,0,.4-.2-.1,0-.3,0-.4.2"/>
    <path class="st0" d="M32.2,7.5c-.2,0-.2,0-.2.3.1,0,.2-.1.2-.3"/>
    <path class="st0" d="M32.5,7.7c-.2.2-.2.2-.4,0,.1,0,.2,0,.4,0"/>
    <path class="st0" d="M31.9,8.1c-.1,0-.2,0-.3,0,.1.1.1.1.3,0"/>
    <path class="st0" d="M31.9,7.7c-.2.1-.2.1-.3.3q.2,0,.3-.3"/>
    <path class="st0" d="M31.7,8.3q-.3,0-.5,0c.2,0,.3.1.5,0"/>
    <path class="st0" d="M31.4,8.5q-.3-.2-.5-.1c.1.1.3.2.5.1"/>
    <path class="st0" d="M31.2,7.9c-.2.1-.3.2-.2.4.2,0,.2-.2.2-.4"/>
    <path class="st0" d="M31.5,9c.2.2.3.2.5,0-.2,0-.3-.1-.5,0"/>
    <path class="st0" d="M31.1,9.1c.2,0,.2-.2.3-.3-.3.1-.3.1-.3.3"/>
    <path class="st0" d="M32.1,8.8c.2,0,.3,0,.4-.2-.2,0-.3,0-.4.2"/>
    <path class="st0" d="M32,8.7c-.2,0-.3,0-.3.2.1,0,.2-.1.3-.2"/>
    <path class="st0" d="M32.3,8.9c-.2.1-.2.1-.4,0,.1,0,.2,0,.4,0"/>
    <path class="st0" d="M31.6,9.2c-.1,0-.2-.1-.3,0,.1.1.1.1.3,0"/>
    <path class="st0" d="M31.7,8.7c-.2,0-.3,0-.3.3q.2,0,.3-.3"/>
    <path class="st0" d="M31.4,9.3q-.3-.1-.5,0c.1.1.3.2.5,0"/>
    <path class="st0" d="M31.2,9.5q-.3-.2-.5-.2c.1.2.2.2.5.2"/>
    <path class="st0" d="M31,8.9c-.2,0-.3.2-.3.4.2,0,.2-.2.3-.4"/>
    <path class="st0" d="M18.7,23.2c0,0,0,0,0-.1-.2-.6-.4-1.1-1-1.4-.2-.1-.5-.2-.8-.2-.3,0-.6,0-.9,0-.4,0-.7.1-1.1.2-.1,0-.1,0-.1.2,0,.1,0,.3,0,.4,0,.1,0,.1.1.1,0,0,0,0,0,0,.3,0,.4.1.5.4,0,.2,0,.3,0,.5,0,.6,0,1.3,0,1.9,0,.2,0,.2.2.2.2,0,.4.1.6.2,0,0,.1,0,.1,0,.2,0,.3,0,.5,0,.1,0,.2,0,.3.1.2.1.2.3.3.5.1.3.2.7.3,1,.1.8.2,1.6.2,2.4,0,.4,0,.8-.1,1.2,0,.3-.2.5-.4.7-.2.2-.4.2-.6.2-.2,0-.3-.2-.4-.5,0-.3,0-.5,0-.8,0-.5,0-.9,0-1.4s0-.8,0-1.2c0-.2,0-.2-.2-.2-.2,0-.4-.1-.6-.2,0,0,0,0-.1,0,0,0,0,.2,0,.2,0,1,0,2,0,3,0,.2,0,.5-.1.7,0,.2-.2.4-.5.4,0,0,0,0,0,0-.1,0-.1,0-.1.2,0,0,0,.2,0,.3,0,.2,0,.2.2.2.8,0,1.7,0,2.5,0,.3,0,.5-.1.7-.3.2-.2.4-.4.5-.6.3-.6.4-1.2.5-1.8,0-.8,0-1.5-.1-2.3-.1-.6-.2-1.1-.5-1.7,0-.2-.2-.4-.3-.5,0,0,0,0,0-.1,0,0,0,0,0,0,0,0,0,0,0,0,.3-.1.5-.4.6-.7,0-.1,0-.2-.1-.2-.2,0-.3,0-.5-.1,0,0-.2,0-.3,0,0,.1,0,.2,0,.4,0,.4-.3.6-.7.6-.1,0-.3,0-.4,0-.2,0-.2,0-.2-.2v-1.3c0-.3,0-.6,0-.9,0-.2,0-.2.2-.2.2,0,.3,0,.5,0,.3,0,.5.2.6.5,0,0,0,.1,0,.2q0,.2.2.2c.1,0,.3,0,.4,0,0,0,.1,0,.2,0"/>
    <path class="st0" d="M13.9,23.6c0,0-.1,0-.2,0-.2.1-.5.2-.7.4-.2.1-.4.3-.6.5-.2.4-.3.8,0,1.2,0,.1.2.2.3.3.3.3.6.4,1,.6.5.2,1,.4,1.5.5.8.2,1.7.4,2.5.6,0,0,0,0,.1,0,0,0,0-.2,0-.3,0-.4-.1-.9-.3-1.3,0-.1-.1-.2-.3-.2-.6-.1-1.2-.3-1.7-.4-.4,0-.7-.2-1-.4-.2,0-.4-.2-.5-.4-.2-.2-.2-.4,0-.6,0,0,0,0,0-.1,0-.2,0-.4,0-.6"/>
    <path class="st0" d="M19,26.5s0,0,0,0c0,0,0,0,0,.1,0,.4.2.9.2,1.3,0,.4,0,.3.3.4.2.1.4.2.6.4.3.2.3.5.2.8,0,0,0,0,0,.1,0,.2,0,.5,0,.7,0,0,0,.1.1,0,.5-.2,1-.5,1.3-.9.4-.5.5-1.2,0-1.7-.3-.3-.6-.6-1-.8-.5-.3-1.1-.5-1.7-.7,0,0-.1,0-.2,0"/>
    <path class="st0" d="M14.2,27c0,.1,0,.2,0,.2,0,1,0,1.9,0,2.9,0,.2,0,.4,0,.5,0,.1,0,.2-.2.2,0,0,0,0,0,.1,0,0,0,.1,0,.2,0,.1,0,.2.2.2.3,0,.6,0,.9,0s.3,0,.3-.3c0,0,0-.1,0-.1-.1,0-.2-.1-.2-.2,0,0,0-.1,0-.2,0-.2,0-.5,0-.7,0-.8,0-1.6,0-2.3s0-.1,0-.2c0,0,0-.1,0-.1-.1,0-.3,0-.5-.2"/>
    <path class="st0" d="M12.2,28.7c0,0,0,.1,0,.1,0,.3.1.6.2.9,0,.4.2.7.3,1.1,0,.1,0,.1.2.1.1,0,.2,0,.3,0,0,0,.1,0,.2,0,.1,0,.3-.1.4-.1s.2,0,.2-.2c0-.2,0-.4,0-.5,0-.2,0-.3-.2-.4-.2-.2-.5-.4-.6-.6-.1-.3-.3-.3-.6-.3-.1,0-.3,0-.4,0"/>
    <path class="st0" d="M20.1,26.7v-.2c0-.8,0-1.6,0-2.4,0-.2,0-.3,0-.5,0,0,0-.2.2-.2.1,0,.1,0,.1-.2,0,0,0,0,0-.1,0-.1,0-.1-.2-.1-.4,0-.7,0-1.1,0s0,0,0,0c0,0,0,0,0,0,0,.1,0,.2,0,.4.2,0,.3.2.3.4,0,.1,0,.2,0,.3,0,.7,0,1.5,0,2.2,0,0,0,.1,0,.2,0,0,0,0,0,.1.2,0,.3.1.5.2"/>
    <path class="st0" d="M19.1,31c0,0,0,.2,0,.3,0,.2,0,.2.2.2.3,0,.6,0,.9,0s.4,0,.3-.4c0,0,0-.1-.1-.1-.1,0-.2-.1-.2-.2,0-.1,0-.3,0-.4,0-.4,0-.8,0-1.2,0,0,0-.1,0-.2-.1-.2-.3-.3-.5-.4,0,0,0,.1,0,.2,0,.5,0,1,0,1.5,0,0,0,.2,0,.3,0,.2,0,.4-.3.4"/>
    <path class="st0" d="M14.7,25.2c0,0,0-.1,0-.2,0-.2,0-.4,0-.7,0-.2,0-.4,0-.6,0-.1,0-.2.2-.3.1,0,.1,0,.1-.2,0,0,0,0,0-.1,0-.2,0-.2-.2-.2-.3,0-.7,0-1,0,0,0,0,0-.1,0,0,0,0,.2,0,.3,0,0,0,.1,0,.1.2,0,.2.2.3.4,0,.2,0,.3,0,.5,0,.2,0,.4,0,.6s0,.1,0,.2c.1,0,.3.2.5.2"/>
    <path class="st0" d="M20.2,24.6h0c0,0,0,.2,0,.3,0,0,0,.1,0,.2,0,0,.1.2.2.2,0,0,.1,0,.2,0,.2,0,.4,0,.6,0,.1,0,.2,0,.1-.2-.1-.5-.2-1.1-.3-1.6,0-.1-.2-.2-.3,0,0,0-.1,0-.2,0-.1,0-.2,0-.2.1,0,0,0,.1,0,.2,0,.2,0,.5,0,.7"/>
    <path class="st0" d="M19.3,24.2c0-.2,0-.4,0-.5,0,0,0-.1-.2-.2,0,0-.1,0-.1,0,0-.1-.1-.1-.2-.1,0,0-.2,0-.3,0-.5,0-1,0-1.5-.1-.4,0-.3,0-.3.3,0,.1,0,.1.1.2.2,0,.4,0,.6,0,.5,0,.9,0,1.3.2.2,0,.4.1.7.2"/>
    <path class="st0" d="M17.8,30.5c0,0-.1,0-.2,0-.3,0-.6,0-.9,0,0,0,0,0,0,0,0,0-.1,0,0,.1,0,0,0,.2,0,.3,0,.1,0,.2.2.2.2,0,.5,0,.7,0,0,0,.1,0,.1,0,0-.2.1-.3.1-.5"/>
    <path class="st0" d="M15.3,30.9c0-.1,0-.2,0-.3,0,0,0-.1,0-.1-.1,0-.2,0-.4,0,0,.1,0,.2,0,.4,0,0,0,.2.2.2,0,0,.1,0,.2,0"/>
    <path class="st0" d="M19.1,30.8c0-.1,0-.3,0-.4,0,0,0-.1,0-.1,0,0,.1,0,.2,0,0,.1,0,.3,0,.4,0,.1,0,.2-.1.2,0,0,0,0,0,0"/>
    <path class="st0" d="M15.3,23.4c0,0,0,.2-.2.2-.2,0-.3.1-.2.4.1,0,.2,0,.3,0,0,0,0,0,0-.1,0-.1,0-.3,0-.4"/>
    <path class="st0" d="M21.1,8.4c-.2,0-.5,0-.7,0,0,0-.1,0-.1.1,0,0,0,.1,0,.2,0,0,0,.1,0,.1,0-.1,0-.2,0-.3.3,0,.5.1.7,0,0,0,0-.1,0-.2,0,0,0,0,0,0,.1,0,.2,0,.4,0,0,0,0,0,0,0-.1-.2-.3-.3-.5-.2,0,0,.1.1,0,.2"/>
    <path class="st0" d="M22.4,8.6c0,.2,0,.3-.1.5,0,.1-.2.2-.4.3,0,0,0,0,.1,0,0,0,0,0,.1,0,0,.2-.2.3-.4.3-.2,0-.2,0-.2.1,0,.1,0,.3-.1.4-.2,0-.4-.2-.6-.1,0,0,.1,0,.2,0,0,0,.2,0,.3,0,.1,0,.2.1,0,.3-.1.2-.5.5-.9.4,0,0,0,0-.1,0,0,.2,0,.3-.1.4,0,0-.1,0-.2,0-.1,0-.2,0-.2.1,0,.2-.2.4-.4.6-.1,0-.1.2,0,.3,0,0,0,0,0,0,0,.1-.1.2,0,.4,0,0,.1-.1.1-.2,0,0,0-.1,0-.2,0-.2.2-.3.3-.2.1,0,.2,0,.3-.1,0,0,0,0,.1-.2,0-.2.3-.3.5-.3.1,0,.3,0,.4,0,.1.1.3.2.4.3.3.2.6.5.8.9,0,0,0,0,0,.1-.2,0-.2-.2-.4-.2,0,0,0,0,0,0,0,0,0,0,0,0,.3.2.5.5.5.9,0,.2,0,.5,0,.7,0,.3-.2.6-.5.8-.2.2-.5.2-.8,0,0,0,0,0-.1,0,.4.2.8.2,1.2,0,0,0,.1,0,.2-.1.2-.2.4-.4.4-.7,0-.4,0-.8-.2-1.2-.2-.5-.6-.9-1-1.2-.3-.2-.4-.5-.3-.8,0-.1,0-.2.1-.4,0,0-.1-.1-.2-.2,0,0,0,0,0,0,0,0,.1,0,.2,0,.1,0,.2.1.3.2,0,0,.1,0,.2,0,0-.1.2-.2.3-.4,0,0,0,0,0-.1,0,0,0-.1,0-.2,0,0,.1,0,.2,0,0,0,0,0,0,0,0-.1,0-.2,0-.3.1-.1.1-.1,0-.3,0,0,0-.1,0-.2,0,0,0-.1,0-.2,0,0,0-.2,0-.2,0-.2,0-.2-.1-.2-.1,0-.2-.1-.1-.3,0,0,0,0,0,0,0,0,0,0-.1,0-.2,0-.3,0-.3-.2,0,0,0-.1-.1-.2,0,0,0-.1-.1-.2,0,.2,0,.3-.1.5.1,0,.3.1.4.2.1,0,.2.2.4.3,0,.1,0,.3.1.4-.2.2-.2.4,0,.5,0,0-.2,0-.2.2,0,0,0,.2,0,.2-.1,0-.3,0-.4.1.2-.2.3-.4.3-.7,0-.3,0-.5,0-.8"/>
    <path class="st0" d="M11.8,7.7s0,0,0,0c0,.2,0,.4,0,.6,0,0,0,.2,0,.3-.1.4-.1.7.1,1.1,0,0,0,0,0,0,0,0,0,.1-.1.2.2,0,.3,0,.4.2.1,0,.2.2.3.3,0,0,.1,0,.2-.1,0,0,0,0,0,0-.1.1-.1.2,0,.4,0,0,0,.2.1.2,0,0,0,.1,0,.2-.1.3-.2.6-.5.8,0,0,0,0,.1,0,.1,0,.2,0,.3.1.1,0,.3,0,.5,0,0,0-.2,0-.2-.1.1,0,.2,0,.4,0,.1,0,.2,0,.3-.2,0,0-.1,0-.2,0-.1,0-.3,0-.4,0-.2,0-.2-.3,0-.5.2-.3.6-.2.8,0,0,0,0,0,0,0,0,.2.2.2.3.2.1,0,.2,0,.3.2,0,.1,0,.3,0,.4,0,.2,0,.2.2.2,0,0,0-.2,0-.2,0,0,0-.2,0-.2,0,0,0-.1,0-.2,0,0-.1-.1-.2-.1,0,0-.2,0-.2-.2,0,0,0,0,0,0,0,0-.1-.1-.1-.2,0-.2-.2-.3-.4-.4-.2,0-.3,0-.5,0,0,0-.2,0-.2,0-.2-.2-.2-.8.2-.9.1,0,.2,0,.3-.1,0,0,0,0,0,0,0,0,0,0,0,0,0,0-.1,0-.2,0-.2,0-.4.1-.6.2,0,0,0,0-.1,0,0-.1,0-.2.2-.2.2,0,.3-.2.3-.4-.2,0-.3-.1-.4-.3.1,0,.3,0,.4,0,.1,0,.3,0,.4,0,0-.1,0-.2-.1-.3-.2,0-.5,0-.7,0,.1,0,.2,0,.3,0,.2,0,.2,0,.3,0,0,0-.1,0-.2,0-.2,0-.4,0-.7,0-.2,0-.4,0-.5-.1,0,0,0,0,0,0,0,0,0,.2,0,.2,0,0,0,0,0,.1,0,.1,0,.1.2.1,0,0,.2,0,.3,0,0,0,.2,0,.3.1,0,0-.1,0-.2,0-.1,0-.1,0-.2,0,0,.2-.2.3-.4.2,0,0-.1,0-.1-.2,0,0,0-.1.2-.1,0,0,0,0,.2,0-.1,0-.2,0-.3-.1-.2-.1-.4-.4-.3-.7,0,0,0-.1,0-.2,0,0,0-.1,0-.2,0,0,0,0,.1,0-.1-.2-.2-.3-.3-.5"/>
    <path class="st0" d="M15.4,7.5c0,0-.1,0-.2,0-.2,0-.4-.2-.5-.3-.1-.1-.2-.3-.2-.5,0-.3.1-.5.3-.6,0,0,0,0,.1,0-.2-.2-.3-.1-.5,0,0-.2,0-.5-.2-.6-.2.1-.2.4-.2.6,0,0-.1,0-.2,0-.2,0-.4-.1-.7-.2-.3,0-.6,0-.9,0,0,0-.2,0-.2.2,0,.1,0,.3,0,.4,0,0,0,0,0,0,0-.2,0-.3.2-.3,0,0,.2,0,.3,0,.1,0,.3,0,.4,0,.3,0,.7.2.9.5,0,0,0,0,0,0,0-.1.1-.2.2-.3,0,0,0,0,.2,0,0,0,0,0,.1,0,0,.1,0,.2-.1.4,0,0,0,.1-.2,0,0,0,0,0-.1,0,.2.3.3.6.5.8.1.1.2.2.4.3.1,0,.4,0,.5-.1,0,0,0,0,0,0"/>
    <path class="st0" d="M21.3,13.5c-.2.2-.3.3-.4.6.1,0,.1.1.1.2,0,.3.1.4.3.6,0,0,.1,0,.2,0,0,0,0,0,0,0-.4-.3-.4-.9,0-1.2,0,0,.2,0,.2,0,.2,0,.3.2.4.4,0,.2.2.3,0,.5,0,0,0,0,0,0,0,0,0-.2,0-.2,0-.2,0-.5-.2-.7-.1-.2-.3-.4-.6-.5s-.4-.3-.7-.4c-.2-.1-.4-.4-.4-.6,0,0,0,0,0-.1-.1,0-.2,0-.3.2,0,0,0,0,0,.1,0,0-.1,0-.1.1,0,0,0,.1,0,.2.1.2.3.3.5.5.2.1.4.2.6.4,0,0,.1,0,.2,0"/>
    <path class="st0" d="M22.5,12.3c0,.2,0,.3.3.4,0,0,0,0,0,0,0,.1,0,.2.1.3,0,0,.1.2.1.3,0,.2,0,.3.2.3,0,0,0,0,0,0-.1,0-.1.1-.1.3,0,.1,0,.2.2.3-.1,0-.2.1-.2.2,0,.2,0,.2.2.2,0,0,0,0-.1,0,0,0-.1,0-.2.1,0,0,0,.2,0,.2,0,0-.2,0-.2,0,0,0,0,0-.2.1,0,0,0,0,.1.1,0,0,0,0,0,0,0,0,.2,0,.2,0,0,0,0-.1.1-.1,0,0,.1,0,.2,0,0,0,0,0,0,0,0-.1,0-.1.1-.2,0,0,0,0,.1-.1.1-.1.1-.2,0-.3,0,0,0,0,0,0,0,0,.1,0,.2-.2,0,0,.1-.1.1-.2,0,0-.1,0-.2,0,0,0,0,0,0-.1,0,0,0,0,0-.1,0,0,0,0,0-.1,0,0-.1,0-.2-.1-.1-.1-.2-.2,0-.3,0,0,0,0,0-.1,0,0-.1,0-.1,0-.2,0-.2,0-.2-.3,0,0,0-.2,0-.3,0,0,0,0-.1,0,0,0-.1,0-.1,0-.1,0-.1,0-.1-.2,0,0,0-.1,0-.2,0,0-.1,0-.2,0-.2,0-.2,0-.2-.2,0,0,0,0,0,0,0,0,0-.1,0-.1-.1,0-.1,0,0-.2,0,0,0,0,0,0,0,0-.2,0-.2-.2,0-.1.1-.2.2-.3,0,0-.2-.1-.3-.2,0,0,0,0,0,0,0,0,0,.1,0,.2-.1,0-.2.1-.2.3,0,.2.2.1.3.2,0,0,0,.2,0,.2,0,0,0,0,0,0,0,0,0,0,0,0,.2,0,.2,0,.2.2,0,.1,0,.2.2.2,0,0,0,0,.1,0"/>
    <path class="st0" d="M14.8,14.3c.1-.1.1-.4,0-.5,0,0-.1,0-.2,0,0,0-.2.1-.3.2,0,0-.1,0-.2,0,0,0,0-.1-.2-.2,0,0,0-.1,0-.2,0-.1,0-.3,0-.4,0-.2-.1-.4-.3-.5,0,0,0,0-.1,0,0,0,.2-.2.2-.3,0,0,.2-.2.1-.3,0,0-.2.2-.2.3-.1.1-.3.2-.5.3,0,0,0,0-.1,0-.2,0-.2.1-.2.3,0,.2,0,.4-.2.5,0,0,0,0,0,0,0,0,.1,0,.1,0,.1,0,.2-.2.3-.3,0-.1.1-.2.2-.3.1,0,.2,0,.3,0,.1.1.2.3.2.5,0,.1,0,.3,0,.4,0,0,0,.1,0,.2.1,0,.2.3.3.4,0,.1.2.1.3,0,0,0,0,0,.1,0,.2-.1.2,0,.3,0,0,0,0,0,0,.2"/>
    <path class="st0" d="M11.2,15.6s0,0,0,0c0,0-.1,0-.2,0-.2,0-.2,0-.3-.2,0,0,0-.1,0-.2,0-.1,0-.2,0-.3.2-.2.3-.4.5-.6.2-.2.2-.3.2-.6,0-.2,0-.4,0-.6,0-.3,0-.6.3-.9,0,0,0,0,0-.1,0,0-.1,0-.2,0,0,0,0,0,0,0-.1.1-.2.2-.4.4-.2.2-.2.5-.1.7,0,.1,0,.3.1.4,0,.2,0,.4-.1.5-.1.1-.3.2-.4.3,0,0-.2.1-.3.2,0,0,0,.1,0,.2.1.2.2.4.2.6,0,.1,0,.2.2.2.1,0,.2,0,.4,0"/>
    <path class="st0" d="M18.5,7.8c-.2,0-.3,0-.5,0,0,0-.2,0-.3-.1.3,0,.6,0,.7.2M18.7,7.6c0-.1-.2-.1-.3-.1-.2,0-.4,0-.5,0-.2,0-.5,0-.7,0-.2,0-.2,0-.2.2.2,0,.4.2.6.2.1,0,.3.1.5.2,0,0,.1,0,.2,0,0,0,0,.1,0,.2,0,0,0,0,0,.1.1,0,.1-.2.1-.2,0,0,0-.2,0-.3,0,0,0,0,0,0,.1,0,.2.1.2.2s0,.2.1.3c0-.1,0-.1,0-.2,0,0,0-.1,0-.2,0-.2,0-.4-.1-.6"/>
    <path class="st0" d="M19.7,6.4c.2.1.3.4,0,.5,0,0-.1.1-.2.2,0,.2,0,.2-.2,0,0,0,0,0,0,0,0,0-.1.1-.2.2,0,0-.1,0-.2.2,0,0,0,0,.1,0,.3,0,.6,0,.7-.3,0-.1.1-.2.2-.1.1,0,.2,0,.4,0,0,0,.1,0,.2,0,0-.2,0-.3-.2-.4-.1,0-.2,0-.2-.2,0-.3-.2-.5-.4-.7-.1,0-.2,0-.2.1,0,0,0,.2,0,.3,0,0,0,0,0,.2-.1,0-.3,0-.4,0,0,0,.2.2.3.3,0,0,.1-.1.2-.1,0,0,0,0,.1-.1,0,0,0,0,0-.2"/>
    <path class="st0" d="M17.6,9.2h0s0,0,0,0c.2,0,.4,0,.6.1.1,0,.2,0,.4,0,0-.1,0-.2-.2-.3-.2-.1-.4-.2-.6-.2-.4,0-.8,0-1.2,0-.2,0-.4.1-.6.2,0,0-.1,0,0,.1,0,0,0,.1.2.1.2,0,.3,0,.5-.2,0,0,.2-.1.3-.1.3,0,.6,0,.9,0,0,0,.1,0,.1.1,0,0-.2,0-.3,0"/>
    <path class="st0" d="M10.9,13s0,0,0,0c0,0-.1,0-.2,0-.2,0-.3-.2-.2-.4,0-.1,0-.2.1-.4,0-.2.2-.4.3-.6.2-.4.2-.8,0-1.3,0-.2-.2-.3-.4-.3,0,0-.1,0-.2,0,0,0,0,0,0,.1.1.2.2.4.3.6,0,.1,0,.2,0,.3,0,.2,0,.4,0,.6,0,.2-.2.4-.3.5,0,.1,0,.3-.1.4,0,.1,0,.2.1.3.1,0,.3.1.4.2,0,0,0,0,0,0"/>
    <path class="st0" d="M20.2,6.6c0,0,.1,0,.2-.1,0,0,.2,0,.3,0,.4,0,.8,0,1-.5,0-.2.2-.2.4-.2,0,0,.2,0,.3.1,0,0,0,0,.1,0,0-.1,0-.2,0-.3-.2-.2-.4-.2-.6-.1,0,0-.2,0-.3,0-.1,0-.3,0-.4,0,0,0-.1,0-.2.2.3,0,.4,0,.4.2-.1.1-.4,0-.5.1,0,.2,0,.2-.2.2-.1,0-.2,0-.3,0-.2,0-.2,0-.2-.2,0,0,0,0,0,0,0,0,0,0-.1,0,0,.2,0,.3.1.5"/>
    <path class="st0" d="M17.7,6.7c0,0,0-.1,0-.2.1-.3,0-.6-.2-.9,0,0-.1-.1-.2-.2,0-.1-.2-.2-.3-.2,0,0,0,0-.1,0-.2,0-.3.2-.3.3,0,.3.1.5.4.6,0,0,.1,0,.2,0,0,0,.1,0,0,.1,0,0,0,.1-.1.1-.1,0-.2,0-.2-.2,0,0,0,0,0,0,0,.1,0,.2,0,.3,0,.1.3.2.4,0,.1,0,.2-.2.1-.3,0,0,0-.1,0-.2,0,0-.2-.2-.3-.2,0,0-.2,0-.2-.2,0,0,0-.1,0-.2,0,0,.2-.1.3-.1.1,0,.1,0,.2,0,0,.1.2.2.2.4,0,.1.1.2.1.4,0,.2,0,.4-.2.5-.1,0-.3.1-.4,0,.1.2.3.2.5,0,0,0,.1,0,.2,0,0,0,.1,0,.2,0,0,0-.1,0-.2,0"/>
    <path class="st0" d="M17.2,3.6c0,.1,0,.2.1.2.2,0,.2.3.2.4,0,0,0,.2,0,.3,0,0,0,0,0,.1q0,0,.2-.3c0,.2-.1.4-.3.4,0,0,0,0,0-.1,0,0,0,0-.1,0-.1.1-.1.1-.3,0-.1,0-.1-.1-.1-.2,0,0,.1,0,.2,0,0,0,0,0,.1,0,0,0-.1-.1-.2-.2q-.1,0-.2,0v.3s0,0,0,0c.2,0,.4.2.6.3,0,0,.2,0,.2,0,0,0,.2-.1.3-.2,0-.1,0-.2.1-.3,0,0,0-.1,0-.2,0,0,0-.1,0-.2,0,0-.2,0-.2-.1,0,0,0-.1,0-.2,0,0-.2,0-.2,0,0,0,0-.1-.1-.2,0,0,0,0-.1.1,0,0,0,0-.1-.1"/>
    <path class="st0" d="M20.5,9.7c0,.2-.1.3-.1.4,0,0,0,.2-.2.2-.1,0-.2.1-.3.2-.4.3-.5.7-.4,1.2,0,0,0,0,0,0,0-.1.1-.3.3-.3,0,0,0,0,0-.1,0,0,0-.2,0-.3,0-.1.2-.2.3-.3,0,0,0,0,0,0-.1,0-.2,0-.4,0,0,0,.1,0,.2-.1,0,0,.1,0,.2,0,.2,0,.2-.2.2-.3,0-.1,0-.2,0-.4"/>
    <path class="st0" d="M20.9,9.1c-.1,0-.3,0-.4,0,0,0,0,0,0,.1,0,0,.1,0,.2,0,.2,0,.3,0,.5,0,.1,0,.2,0,.3,0-.2.1-.5.1-.7.2,0,0,0,0,0,0,0,.1,0,.2.2,0,0,0,0,0,.2,0,0,0,.2,0,.2.2,0,0,0,0,0,0,0-.1,0-.2.1-.3,0,0,0,0,.1-.1,0-.1,0-.1,0-.2,0,0-.2,0-.3,0-.2,0-.3,0-.5,0,0,0,0,0,.1,0"/>
    <path class="st0" d="M13.6,8.4c0-.1,0-.2,0-.4-.2,0-.4,0-.6,0,0,0,0,0,0-.1-.1,0-.2,0-.3,0-.2,0-.3,0-.3-.2,0,0,0-.1,0-.3-.1.2-.1.3,0,.5,0,0,0,.2,0,.2,0,0,0,0,0,0,.1,0,.3,0,.4,0,.2,0,.3,0,.5,0,.3,0,.3,0,.5.2"/>
    <path class="st0" d="M11.4,15.6c0-.2-.2-.3-.2-.4,0,0,0,0,0,0,0-.1.1-.2.3-.3,0,0,.1,0,.2-.1.4-.3.6-.6.9-1,0,0,0,0,0-.1,0,0,0,0,0,0,0,0,0,0-.1,0-.2.2-.3.4-.5.6-.2.2-.3.3-.6.4,0,0,0,0-.1,0,0,0-.1.2-.2.3,0,.1,0,.2,0,.3.1,0,.2.2.3.3"/>
    <path class="st0" d="M15.8,8s0,0,0,0c0,0,0,0,.1,0,.1,0,.2.2.3.3,0,0,0,.1,0,.2,0,.2,0,.2.2.1.3,0,.5-.1.8-.1,0,0,0,0,0,0,0,0,0,0,0,0-.2,0-.4,0-.5,0-.1,0-.2,0-.3-.1,0,0-.1-.2-.2-.2,0,0,0,0,0,0,.1,0,.3,0,.3-.1-.2,0-.5,0-.7,0"/>
    <path class="st0" d="M14.4,11.1s0,0,0,0c0,0,0,0,0-.1,0-.3,0-.5,0-.8,0,0,0-.1,0-.2-.1-.1-.3-.2-.4-.3,0,0,0,0,0,0,0,0,0,0,0,0,.2.2.4.4.3.8-.1,0-.2,0-.3-.1,0,0,0,0,0,0,0,0,0,0,.1.1.2.2.4.3.4.6"/>
    <path class="st0" d="M17.4,7.9s0,0,0,0c0,.2,0,.3.1.5,0,.2.1.2.3.2,0-.2.2-.3.3-.5-.3,0-.5,0-.7-.2"/>
    <path class="st0" d="M13.1,13.4s0,0,0,0c0,0,.1.1.2.2.1.2.2.3,0,.5,0,0,0,.1,0,.2,0,0,.1,0,.2,0,.1,0,.2,0,.3,0,0,0,0,0,0,0,0-.1-.2-.1-.3-.2,0,0-.1,0-.1-.1,0-.3-.2-.5-.4-.7,0,0,0,0-.1,0"/>
    <path class="st0" d="M21.1,13.5c-.3,0-.4.4-.4.8,0,.4.3.8.6.8,0,0,0,0,0,0,0,0-.2-.1-.2-.2-.2-.3-.2-.7,0-1.1,0,0,0,0,0-.1,0,0,0,0,0,0"/>
    <path class="st0" d="M16.9,7.4c-.1,0-.2,0-.3,0-.1,0-.3,0-.4.2,0,0,0,.1,0,.2.2.1.4,0,.5,0,0,0,0-.2.1-.3"/>
    <path class="st0" d="M16.8,4.2c0-.1.3-.1.3-.3-.2.1-.4.2-.5.3,0,.1.1.2.2.2.1,0,.3,0,.4,0,0,0,0,0,.1,0,0,0,.1,0,.1-.2,0,0,0-.1,0-.1,0,0,0,.1-.1.1-.1,0-.3,0-.4,0s0,0,0,0"/>
    <path class="st0" d="M16.6,4.9c-.2,0-.2,0-.2-.2,0-.1-.1-.2-.2-.3,0-.1-.4-.2-.6-.1,0,0,0,0,0,0,0,0,0,0,0,0,0,0,0,0,.1,0,.1,0,.3,0,.3.2,0,0,0,.2.2.2,0,0,0,.1.1.2,0,0,.1,0,.2,0"/>
    <path class="st0" d="M16.7,5.2s0,0,0,0c0,0-.1,0-.2,0-.1,0-.2,0-.3,0,0,0-.1-.2-.2-.2,0,0,0,0-.1,0,0,0,0,0,0,0,0,0,0,0,0,0,.2.1.3.3.4.5,0,0,0,0,.1,0,0,0,.2,0,.3-.1,0,0,0,0,0,0"/>
    <path class="st0" d="M15.7,7.7c-.1,0-.2,0-.3,0,0,0-.2,0-.2.1,0,0,0,.2,0,.2,0,0,.1,0,.2,0,.1,0,.2-.2.2-.3"/>
    <path class="st0" d="M16.2,7.5c-.2,0-.4.2-.4.4,0,0,.2,0,.3,0,0,0,0,0,0,0,0,0,0-.2,0-.2"/>
    <path class="st0" d="M10.5,11.7c.1-.2,0-.6,0-.8,0,0,0,.2,0,.3,0,.2,0,.3.1.5"/>
    <path class="st0" d="M23.1,11.5c0,.1,0,.2,0,.3,0,0,0,.2,0,.2,0,0,0,0,.2,0,0-.1,0-.2,0-.3,0-.1,0-.2-.2-.3"/>
    <path class="st0" d="M23.6,12c0,0,.1.1.2.2,0,0,.1,0,.2,0,0,0,.2-.1.2-.2,0,0,0,0,0,0-.1,0-.2,0-.3,0,0,0-.1,0-.2,0"/>
    <path class="st0" d="M23.5,12c.1,0,.2,0,.2-.1,0-.2,0-.3-.2-.4,0,0,0,.2,0,.2,0,0,0,.2,0,.3"/>
    <path class="st0" d="M21.8,8.9c0-.2,0-.3.2-.3,0,0,0,0,0,0-.2,0-.3,0-.4,0,0,0,0,.1,0,.2,0,0,0,.1.2.1"/>
    <path class="st0" d="M18.3,7.2c0,.1,0,.1.1.2,0,0,.2,0,.3,0,0,0,0,0,0,0,0,0,0,0,0,0-.1,0-.2,0-.3,0"/>
    <path class="st0" d="M15.5,7.3c.1.2.2.2.5,0,0-.1-.2-.1-.5,0"/>
    <path class="st0" d="M18.1,5.1c0,.1-.1.2,0,.4,0,.1,0,.2,0,.2,0,0,0,0,0,0,0,0,0,0,0,0,.1,0,.3-.2.2-.3,0-.1,0-.3,0-.4"/>
    <path class="st0" d="M18.1,5.7c0,0,0,.1,0,.1.1,0,.3.1.4.2,0-.1,0-.2-.1-.2,0,0-.1,0-.2,0,0,0,0,0-.1,0"/>
    <path class="st0" d="M17.8,7.2c0,.2.2.2.4.1,0,0,0-.1,0-.1-.1,0-.2,0-.3,0"/>
    <path class="st0" d="M16.1,7.2c.1.2.2.2.5,0-.1-.2-.3,0-.5,0"/>
    <path class="st0" d="M13.4,9.2s0,0,0,0c0,0,.1,0,.2,0,0,0,0,.1.1.2,0-.1,0-.3,0-.4-.1,0-.2,0-.4.1"/>
    <path class="st0" d="M16.7,7.2c0,0,0,0,0,.1,0,0,0,0,0,0,.1,0,.2,0,.4,0-.2-.2-.3-.1-.5-.2"/>
    <path class="st0" d="M14.6,14.4c0,0,0,0,0,0,0,0,0,0,0,0,0,0,0,0,0,0,0,0,0,0,0,.1,0,0,0,0,0,.1,0,0,0,0,.1,0,0,0,0,0,0-.1"/>
    <path class="st0" d="M15.8,9.3c0,0,0-.1,0-.2,0,0,0,0,0,0,0,0,0,0,0,0,0,0,0,.1,0,.2,0,0,0,0,.2,0"/>
    <path class="st0" d="M23.5,12.2c0,.2.2.3.3.3-.1-.2-.2-.3-.3-.3"/>
    <path class="st0" d="M10.3,10.3c0,0,0,.2.1.2,0,0,0,.2,0,.2,0-.2,0-.4-.2-.5"/>
    <path class="st0" d="M18.4,5.2c0,0,0,.2,0,.2,0,0,0,.1-.1.2.2,0,.3-.2.2-.4"/>
    <path class="st0" d="M23,12.5c0,0,.2,0,.3,0,0,0,0,0,0-.1-.1,0-.2.1-.3.2"/>
    <path class="st0" d="M22.8,12.3c.2,0,.3,0,.3-.2-.1,0-.2,0-.3.2"/>
    <path class="st0" d="M17.6,5.2c0,0-.1.1-.1.2.1,0,.1,0,.1-.2"/>
    <path class="st0" d="M17.8,5.4c-.1,0-.2.1,0,.2,0,0,0-.1,0-.2"/>
    <path class="st0" d="M18,6.2c0,0-.1,0-.2,0,0,0,0,0,0,0,0,0,0,0,0-.1"/>
    <path class="st0" d="M18,6.5s0,0,0,0c0,0,0,0-.1,0,0,0,0,0,0,0,0,0,0,0,.1,0,0,0,0,0,0,0"/>
    <path class="st0" d="M17.6,7.3c0-.1-.1-.1-.2,0,0,0,.1,0,.2,0"/>
    <path class="st0" d="M17.9,5.9c0,0-.1,0,0,.2q0,0,0-.2"/>
    <path class="st0" d="M21.7,8s0,0,0,0c0,0-.1,0-.2,0,0,0,0,0,0,0,0,0,.1,0,.2,0"/>
    <path class="st0" d="M21.3,8.7c0,0,.1,0,.1-.1s0,0-.1,0-.1,0-.1,0,0,.1.1.1"/>
    <path class="st0" d="M12.6,8.6c0,0,.1,0,.1-.1s0,0-.1,0-.1,0-.1,0,0,.1.1.1"/>
    <path class="st0" d="M27,12s0,0,0,0h0s0,0,0,0l1.9-2.6s0,0,0,0h0s0,0,0,0l-1.9,2.6Z"/>
    <path class="st0" d="M29.6,8.5s0,0,0,0h0s0,0,0,0l.6-.8s0,0,0,0h0s0,0,0,0l-.6.8Z"/>
    <path class="st0" d="M29.9,8.8s0,0,0,0h0s0,0,0,0l.8-.9s0,0,0,0h0c0,0,0,0,0,0l-.8.9Z"/>
    <path class="st0" d="M30.3,9.5s0,0,0,0h0c0,0,0,0,0,0l.3-.2s0,0,0,0h0c0,0,0,0,0,0l-.3.2Z"/>
    <rect class="st0" x="30.1" y="8.7" width="1" height=".1" rx="0" ry="0" transform="translate(2.7 24.2) rotate(-45)"/>
    <path class="st0" d="M29.1,8.2s0,0,0,0h0s0,0,0,0l.3-.4s0,0,0,0h0s0,0,0,0l-.3.4Z"/>
    <path class="st0" d="M27.1,12.3s0,0,0,0h0s0,0,0,0l2.1-2.6s0,0,0,0h0s0,0,0,0l-2.1,2.6Z"/>
    <path class="st0" d="M27.1,12.7s0,0,0,0h0c0,0,0,0,0,0l2.3-2.7s0,0,0,0h0c0,0,0,0,0,0l-2.3,2.7Z"/>
    <path class="st0" d="M29.5,10.4s0,0,0,0,0,0,0,0l-2.5,3s0,0,0,0h0c0,0,0,0,0,0l2.4-2.8v-.2Z"/>
    <path class="st0" d="M26.8,11.7s0,0,0,0h0s0,0,0,0l1.8-2.6s0,0,0,0h0s0,0,0,0l-1.8,2.6Z"/>
    <path class="st0" d="M29.1,7.4s0,0,0,0l-.5,1.2-2,3h0c0,0,0,0,0,0l2-2.9h0s0,0,0,0l.5-1.3h0Z"/>
    <path class="st0" d="M26.5,12.4c0,0,0,0,0,0s0,0,0,0,0,0,0,0,0,0,0,0"/>
    <path class="st0" d="M26.6,12.8c0,0,0,0,0,0s0,0,0,0,0,0,0,0,0,0,0,0"/>
    <path class="st0" d="M26.9,12.7c0,0,0,0,0,0s0,0,0,0,0,0,0,0,0,0,0,0"/>
    <path class="st0" d="M26.8,12.3c0,0,0,0,0,0s0,0,0,0,0,0,0,0,0,0,0,0"/>
    <path class="st0" d="M26.6,12c0,0,0,0,0,0s0,0,0,0,0,0,0,0,0,0,0,0"/>
    <path class="st0" d="M26.8,13.1c0,0,0,0,0,0s0,0,0,0,0,0,0,0,0,0,0,0"/>
    <path class="st0" d="M30.4,12.6c0,.4-.1.9-.5,1-.2,0-.2.2-.2.3,0,.1,0,.3,0,.4,0,.2,0,.4-.3.5,0,0-.2,0-.3,0-.2,0-.5,0-.7,0,0,0,0,0-.1,0-.2,0-.3-.2-.2-.4,0-.2,0-.4,0-.7,0-.2,0-.5,0-.7,0-.2,0-.3.1-.4,0,0,.1-.2.2-.3,0,0,0,.2,0,.2,0,.5.2.8.6,1.1,0,0,.1,0,.2.2,0,0,.1.8,0,.8-.2,0-1,.2-1.3,0,0,0,0-.7,0-.7,0-.1,0-.4,0-.5.1,0,0-.2,0-.3,0,0,.2.3.2.2,0,0-.1,0-.1,0,0,.1,0,.3,0,.4,0,.2,0,.4,0,.7,0,.1,0,.1,0,.2.3.1.5,0,.8,0,0,0,.3,0,.4,0,.1,0,.2-.3.2-.4,0-.1,0-.3,0-.4,0-.1,0-.2-.1-.2-.4-.2-.6-.5-.7-.9-.1-.3-.1-.5,0-.8.1-.2.2-.4.4-.6.1,0,.3-.2.4-.2,0,0,0,0,0,0,0-.3,0-.5,0-.8,0,0,0,0,0-.1,0-.2,0-.3-.2-.4-.3-.2-.5-.5-.6-.9,0-.1,0-.3,0-.4,0,0,.1,0,.2,0,.2.2.4.3.7.5.1,0,.2.2.2.3,0,.3.1.5.2.8,0,0,0,.2.1.3.2.3.3.7.2,1v1.1Z"/>
    <path class="st0" d="M28.5,8.9c0-.1,0-.3,0-.4-.1,0-.4-.1-.5,0,0,.1,0,.4.2.5.1,0,.3,0,.4,0"/>
    <path class="st0" d="M28.1,9.4c0-.1,0-.3,0-.3-.1,0-.3,0-.4,0,0,.1,0,.3.1.4.1,0,.3,0,.3,0"/>
    <path class="st0" d="M17.1,15.4l-2-1s-.2-.1-.2-.4v-4.3c0-.2.1-.3.3-.3h3.8c.2,0,.3.1.3.3v4.3c0,.2-.2.4-.2.4l-2,1ZM15.2,9.6s0,0,0,0v4.3c0,.1.1.2.1.2l1.9,1,1.9-1s.1,0,.1-.2v-4.3s0,0,0,0h-3.8Z"/>
    <rect class="st0" x="15.1" y="12.1" width="4.1" height=".2"/>
    <polygon class="st0" points="17.1 12.3 15.6 9.6 15.8 9.5 17.1 11.9 18.3 9.5 18.5 9.6 17.1 12.3"/>
    <path class="st0" d="M15.5,11.8s.3,0,.5-.2c.2-.1.4-.4.4-.4,0,0-.3,0-.5.2-.2.1-.4.4-.4.4M15.4,10.9s0,0,0-.1c0,0,.1,0,.1,0,0,0,.2,0,.3,0,.1.1.3.2.5.3,0,0,0,0,0,0,0,0-.1.3-.4.5-.3.2-.6.3-.6.2,0,0,0,0,0,0,0-.2,0-.4,0-.6,0-.2,0-.3,0-.4"/>
    <path class="st0" d="M15.6,11.7s0,0,.1,0c0,0,0,0,0-.1,0,0,0,0,0,0,0,0-.1.1-.2.1"/>
    <path class="st0" d="M16.6,10.7h.2s0,0,0,0c0,0,0,0,0,0s0,0,0,0,0,0,0,0h.1s0,0,0,0c0,0-.1-.1-.1-.3s0-.1-.1-.1c0,0,0,0,0,0,0,0,0,0,0,0s0,0,0,0,0,0,0,0c0,0-.1,0-.1.1,0,.2,0,.2-.1.3,0,0,0,0,0,0"/>
    <path class="st0" d="M16.3,10.1h.2s0,0,0,0c0,0,0,0,0,0s0,0,0,0,0,0,0,0h.1s0,0,0,0c0,0-.1-.1-.1-.3s0-.1-.1-.1c0,0,0,0,0,0,0,0,0,0,0,0s0,0,0,0,0,0,0,0c0,0-.1,0-.1.1,0,.2,0,.2-.1.3,0,0,0,0,0,0"/>
    <path class="st0" d="M17.2,10.7h.2s0,0,0,0c0,0,0,0,0,0s0,0,0,0,0,0,0,0h.1s0,0,0,0c0,0-.1-.1-.1-.3s0-.1-.1-.1c0,0,0,0,0,0,0,0,0,0,0,0s0,0,0,0,0,0,0,0c0,0-.1,0-.1.1,0,.2,0,.2-.1.3,0,0,0,0,0,0"/>
    <path class="st0" d="M16.9,10.1h.2s0,0,0,0c0,0,0,0,0,0s0,0,0,0,0,0,0,0h.1s0,0,0,0c0,0-.1-.1-.1-.3s0-.1-.1-.1c0,0,0,0,0,0,0,0,0,0,0,0s0,0,0,0,0,0,0,0c0,0-.1,0-.1.1,0,.2,0,.2-.1.3,0,0,0,0,0,0"/>
    <path class="st0" d="M16.9,11.2h.2s0,0,0,0c0,0,0,0,0,0s0,0,0,0,0,0,0,0h.1s0,0,0,0c0,0-.1-.1-.1-.3s0-.1-.1-.1c0,0,0,0,0,0,0,0,0,0,0,0s0,0,0,0,0,0,0,0c0,0-.1,0-.1.1,0,.2,0,.2-.1.3,0,0,0,0,0,0"/>
    <path class="st0" d="M17.5,10.1h.2s0,0,0,0c0,0,0,0,0,0s0,0,0,0,0,0,0,0h.1s0,0,0,0c0,0-.1-.1-.1-.3s0-.1-.1-.1c0,0,0,0,0,0,0,0,0,0,0,0s0,0,0,0,0,0,0,0c0,0-.1,0-.1.1,0,.2,0,.2-.1.3,0,0,0,0,0,0"/>
    <path class="st0" d="M10.7,19.4s0,0,0,0c0,0,0,0,0,0,0,0-.2-.4-.4-.6-.3-.3-.7-.3-.7-.3,0,0,0,0,0,0,0,0,0,0,0-.1,0,0,.4-.3,1.1-.5v.2c-.4.1-.6.2-.8.3.1,0,.3.1.5.3.2.2.3.4.4.6.1,0,.5-.2.7-.2.1,0,.2,0,.3,0v-.5c0,0,.1,0,.1,0v.6c0,0,0,0,0,0,0,0,0,0,0,0,0,0,0,0-.3,0-.3,0-.7.2-.7.2,0,0,0,0,0,0"/>
    <path class="st0" d="M23.5,19.4s0,0,0,0c0,0-.4-.2-.7-.2-.3,0-.3,0-.3,0,0,0,0,0,0,0,0,0,0,0,0,0v-.6c0,0,.3,0,.3,0v.5s0,0,.2,0c.2,0,.5.1.7.2,0-.1.2-.4.4-.6.2-.2.4-.3.5-.3-.2,0-.5-.2-.9-.3v-.2c.8.2,1.2.5,1.2.5,0,0,0,0,0,.1,0,0,0,0,0,0s-.3,0-.7.3c-.2.2-.4.6-.4.6,0,0,0,0,0,0,0,0,0,0,0,0"/>
    <path class="st0" d="M11.2,18.4s0,0,0,0c0,0,0,0,0,0l-.4-1.4c0,0,0-.1,0-.1,0,0,3.2-.9,6.3-.9s6.3.9,6.3.9c0,0,0,0,0,0,0,0,0,0,0,0l-.4,1.3s0,0-.1,0c0,0-2.7-.7-5.9-.7s-5.8.8-5.8.8c0,0,0,0,0,0M10.9,17l.3,1.2c.5-.1,2.9-.8,5.8-.8s5.3.6,5.8.7l.4-1.1c-.6-.1-3.5-.9-6.2-.9s-5.6.7-6.1.9"/>
    <path class="st0" d="M17.9,12.5c.2.2.3.3.4,0"/>
    <path class="st0" d="M19.6,15.5s-.1,0-.1,0c-.2-.1-.4-.2-.5-.3,0,0-.2,0-.2,0,.2-.1.3,0,.4,0,.1,0,.3.1.4.2,0,0,0,0,0,0,0,0,.6,0,.7,0-.2,0-.4-.2-.6-.1,0,0-.1,0-.1,0,0,0,0,0,0,0,0,0,0,0,0,0,0,0,.1,0,.2,0,0,0,.1,0,.2,0,.2,0,.4.2.6.3,0,0,.1,0,.2,0,.2,0,.3,0,.5,0,0,0,0,0,.1,0,0,0,0,0,0,0,0,0,0,0,0,.1,0,0,0,0-.1,0"/>
    <path class="st0" d="M15.2,13.4c0,0,0-.1,0-.2.3-.3.7-.5,1.1-.6,0,0,.2,0,.3,0,0,0,.1,0,.2,0,0,.1,0,.2,0,.3.2,0,.3-.1.5,0-.1,0-.3,0-.4,0-.1,0-.2.1-.4.2,0-.1,0-.3.1-.4,0,0-.2,0-.2,0-.2,0-.4.2-.6.3-.2.1-.3.2-.5.3,0,0,0,0,0,0"/>
    <path class="st0" d="M15.9,14.3c0,0,.2,0,.3,0,0,0,.1,0,.2,0,.1,0,.3,0,.4,0,0,0-.2.2-.2.2,0,0-.2,0-.3,0-.1,0-.3-.1-.4-.2"/>
    <path class="st0" d="M17,14.4c0,0,.2,0,.3,0,0,0,.1,0,.2,0,.1,0,.3,0,.4,0,0,0-.2.2-.2.2,0,0-.2,0-.3,0-.1,0-.3-.1-.4-.2"/>
    <path class="st0" d="M16.7,14.7c0,0,.2,0,.3,0,0,0,.1,0,.2,0,0,0,.2,0,.3,0,0,0-.1.1-.2.1,0,0-.2,0-.2,0-.1,0-.3-.1-.4-.1"/>
    <path class="st0" d="M17,13c-.3.1-.4.7-.2.8"/>
    <path class="st0" d="M18.3,13.6c-.2,0-.3.5-.1.6"/>
    <path class="st0" d="M18.1,12.7c-.4.2-.6,1-.2,1.2"/>
    <path class="st0" d="M17.6,12.7c-.4.2-.6,1-.2,1.2"/>
    <path class="st0" d="M16.3,13.7c0,0-.1,0-.2-.1,0,0-.1,0-.2,0,0,0,.1,0,.2,0,.2,0,.2,0,.3,0,0,0,.1-.2.2-.2,0,0,0,0,0,0"/>
    <path class="st0" d="M15.7,13.6s.2.4.6.5c.3,0,.9,0,1.1,0s.9,0,.9,0v-.2s-1.2,0-1.3,0c0,0-.2,0-.5,0-.4,0-.8-.4-.8-.4"/>
    <path class="st0" d="M31.2,20h-4.7c0,0,0,0,0,0s0,0,0,0h4.7c0,0,0,0,0,0s0,0,0,0"/>
    <path class="st0" d="M30.8,25.6h-4.8c0,0,0,0,0,0s0,0,0,0h4.8c0,0,0,0,0,0s0,0,0,0"/>
    <path class="st0" d="M30.5,25.6c0,0,0,0,0,0v-2.1c0,0,0,0,0,0s0,0,0,0v2.1c0,0,0,0,0,0"/>
    <path class="st0" d="M27,23.4s0,0,0,0l-1-1s0,0,0,0v-.9c0,0,0,0,0,0h0c0,0,0,0,0,0v.9s1,1,1,1c0,0,0,0,0,.1,0,0,0,0,0,0"/>
    <path class="st0" d="M30,23.2s0,0,0,0c0,0,0,0,0-.1l.6-.6v-.3s-4.3-.5-4.3-.5c0,0,0,0,0-.1,0,0,0,0,.1,0l4.4.5s0,0,0,0v.4s0,0,0,0l-.6.6s0,0,0,0"/>
    <path class="st0" d="M28.1,23c0,0,0,0,0,0v-3c0,0,0,0,0,0s0,0,0,0v3c0,0,0,0,0,0"/>
    <rect class="st0" x="27.1" y="19.9" width=".2" height="5.6" transform="translate(-.1 .1) rotate(-.3)"/>
    <rect class="st0" x="29.7" y="19.9" width=".2" height="5.6"/>
    <path class="st0" d="M29.7,23.2h-2.2c0,0,0,0,0-.1,0,0,0,0,0,0h2.2c0,0,0,0,0,.1,0,0,0,0,0,0"/>
    <path class="st0" d="M28.1,24.3c0,0,0,0,0,0v-.9c0,0,0,0,0,0s0,0,0,0v.9c0,0,0,0,0,0"/>
    <path class="st0" d="M28.6,24.6s0,0,0,0c0,0,0-.1,0-.1h.9c0-.1.1,0,.1,0,0,0,0,.1,0,.1h-.9c0,.1,0,.1,0,.1"/>
    <path class="st0" d="M30,24.4s0,0,0,0c0,0,0-.1,0-.1h.3c0,0,.1,0,.1,0,0,0,0,.1,0,.1h-.3c0,0,0,0,0,0"/>
    <path class="st0" d="M30.3,24.3s0,0,0,0h-.3c0,0-.4-.2-.4-.2l-1.3-.3c0,0,0,0,0-.1,0,0,0,0,.1,0l1.3.3h.4c0,0,.3.2.3.2,0,0,0,0,0,.1,0,0,0,0,0,0"/>
    <path class="st0" d="M28.2,22s0,0,0,0c0,0,0,0,0-.1l1.3-1.6s0,0,.1,0c0,0,0,0,0,.1l-1.3,1.6s0,0,0,0"/>
    <path class="st0" d="M26.5,22.3c-.2,0-.4-.2-.4-.4s.2-.4.4-.4.4.2.4.4-.2.4-.4.4M26.5,21.7c-.1,0-.2,0-.2.2s0,.2.2.2.2,0,.2-.2,0-.2-.2-.2"/>
    <path class="st0" d="M28.1,25c-.2,0-.4-.2-.4-.4s.2-.4.4-.4.4.2.4.4-.2.4-.4.4M28.1,24.4c-.1,0-.2,0-.2.2s0,.2.2.2.2,0,.2-.2,0-.2-.2-.2"/>
    <path class="st0" d="M29.3,23.1c-.2,0-.4-.2-.4-.4s.2-.4.4-.4.4.2.4.4-.2.4-.4.4M29.3,22.5c-.1,0-.2,0-.2.2s0,.2.2.2.2,0,.2-.2,0-.2-.2-.2"/>
    <path class="st0" d="M17,34.9c-4.2,0-7.7-3.4-7.7-7.7s3.4-7.7,7.7-7.7,7.7,3.4,7.7,7.7-3.4,7.7-7.7,7.7M17,20.4c-3.7,0-6.8,3-6.8,6.8s3,6.8,6.8,6.8,6.8-3,6.8-6.8-3-6.8-6.8-6.8"/>
    <rect class="st0" x="1.3" y="16" width="7.2" height=".9"/>
    <rect class="st0" x="25.9" y="16" width="7.1" height=".9"/>
    <path class="st0" d="M12.3,21.9l-3.8-2.8c-.3-.2-.5-.6-.5-.9V3.6h.9v14.6c0,0,0,.2.1.2l3.8,2.8-.5.7Z"/>
    <path class="st0" d="M21.9,21.9l-.5-.7,3.8-2.8s.1-.2.1-.2V3.7h.9v14.6c0,.3-.2.7-.5.9l-3.8,2.8Z"/>
    <path class="st0" d="M17.1,37.2c-.2,0-.4,0-.6-.2L1.2,26.3c-.3-.2-.5-.6-.5-1V4c0-.5.4-.8.8-.8h10c1.4-1.9,3.1-2.7,5.5-2.7s4.2.9,5.6,2.7h10c.5,0,.8.4.8.8v21.4c0,.4-.2.8-.5,1l-15.3,10.7c-.2.1-.4.2-.6.2M1.7,4.1v21.3c0,0,0,.2.1.2l15.3,10.7s0,0,0,0l15.3-10.7s.1-.1.1-.2V4.1h-10.4v-.2c-1.4-1.7-2.9-2.5-5.1-2.5s-3.6.8-4.9,2.5v.2H1.7Z"/>
    <path class="st0" d="M10.4,46s-1.9-.5-4-.6c-2.1-.2-4.4.5-4.4.5l.7-2.8s1.1-.4,3.3-.6c1,0,2,0,2.9.2v-.2c-.8-.1-1.8-.3-2.9-.2-2.2.1-3.3.5-3.3.6,0,0,0,0,0,.1l-.7,2.8c0,0,0,.1,0,.2,0,0,.1,0,.2,0,0,0,2.3-.7,4.3-.5,2,.2,3.9.6,3.9.6,0,0,0,0,0,0,0,0,0,0,0,0,0,0,0,0,0-.1v-1.6c0,0-.1,0-.2,0v1.5Z"/>
    <path class="st0" d="M10.2,45.8c-.5-.1-2.1-.5-3.8-.6-.2,0-.4,0-.7,0-1.5,0-2.9.3-3.5.5l.6-2.5c.3,0,1.3-.4,3.1-.5,1,0,2,0,2.8.2v-.2c-.8-.1-1.8-.3-2.9-.2-2.2.1-3.3.6-3.3.6l-.7,2.8s2.3-.7,4.4-.5c2.1.2,3.9.6,3.9.6v-1.5c0,0-.1,0-.2,0v1.2Z"/>
    <path class="st0" d="M32.3,45.8l-.7-2.8c0,0,0,0,0-.1,0,0-1.2-.4-3.3-.6-1,0-2.1,0-2.9.2v.2c.8-.1,1.9-.3,2.9-.2,2.2.1,3.3.6,3.3.6l.7,2.8s-2.3-.7-4.4-.5c-2.1.2-4,.6-4,.6v-1.6s0,0-.1,0v1.6c0,0,0,0,0,.1,0,0,0,0,0,0s0,0,0,0c0,0,1.9-.5,3.9-.6,2-.2,4.3.5,4.3.5,0,0,.1,0,.2,0,0,0,0,0,0-.2"/>
    <path class="st0" d="M28.2,42.7c1.8,0,2.8.4,3.1.5l.6,2.5c-.7-.2-2.4-.6-4.1-.5-1.7.1-3.2.5-3.8.6v-1.3s0,0-.2,0v1.6s1.8-.5,3.9-.6c2.1-.2,4.4.5,4.4.5l-.7-2.8s-1.1-.4-3.3-.6c-1,0-2.1,0-2.9.2v.2c.8-.1,1.9-.3,2.9-.2"/>
    <path class="st0" d="M9.1,41.2s3-2.1,7.9-2.1,8,2.2,8,2.2v1.3c.1,0,.2,0,.3,0v-1.3c0,0,0-.2-.1-.2-.1,0-3.2-2.2-8.2-2.2s-8,2.1-8.1,2.2c0,0-.1.1-.1.2v1.3c.1,0,.2,0,.3,0v-1.4Z"/>
    <path class="st0" d="M17,42.8c-3,0-5.2.7-6.5,1.2v.3c1.3-.5,3.5-1.3,6.5-1.3s5.4.7,6.7,1.2v-.3c-1.3-.5-3.6-1.2-6.7-1.2"/>
    <path class="st0" d="M9.1,42.8v-.2c0,0-.2,0-.3,0v.2c.1,0,.2,0,.3,0"/>
    <path class="st0" d="M9.1,42.8v-.2c0,0-.2,0-.3,0v.2c.1,0,.2,0,.3,0"/>
    <path class="st0" d="M10.4,44.2v.3c0,0,.1,0,.2,0v-.3c0,0-.1,0-.2,0"/>
    <path class="st0" d="M10.4,44.2v.3c0,0,.1,0,.2,0v-.3c0,0-.1,0-.2,0"/>
    <path class="st0" d="M9.1,42.9v-.2c0,0-.2,0-.3,0v.2c.1,0,.2,0,.3,0"/>
    <path class="st0" d="M9.1,42.9v-.2c0,0-.2,0-.3,0v.2c.1,0,.2,0,.3,0"/>
    <path class="st0" d="M10.2,44.5c0,0,.1,0,.2,0v-.3c0,0-.1,0-.2,0v.3Z"/>
    <path class="st0" d="M10.2,44.5c0,0,.1,0,.2,0v-.3c0,0-.1,0-.2,0v.3Z"/>
    <path class="st0" d="M24,44.5c.6.3.9.5.9.5,0,0,.2,0,.3,0,0,0,.2-.2.2-.3v-1.8c-.1,0-.2,0-.3,0v-.2s0-.2,0-.2v-1.3s-3.1-2.2-8-2.2-7.9,2.1-7.9,2.1v1.4s0,.2,0,.2v.2c0,0-.2,0-.3,0v1.9c0,.1,0,.2.2.3,0,0,0,0,.1,0s.1,0,.2,0c0,0,.3-.2.9-.5v-.3s.1,0,.2,0c0,0,.1,0,.2,0,1.3-.6,3.6-1.2,6.5-1.2s5.3.7,6.7,1.2c0,0,.1,0,.2,0,0,0,.1,0,.2,0v.3ZM17,42.6c-3.9,0-6.6,1.2-7.6,1.7v-2.9c.6-.4,3.4-2,7.6-2s7.1,1.7,7.7,2v2.8c-1-.5-3.6-1.7-7.7-1.7"/>
    <path class="st0" d="M25.1,42.8c0,0,.2,0,.3,0v-.2c-.1,0-.2,0-.3,0v.2Z"/>
    <path class="st0" d="M25.1,42.8c0,0,.2,0,.3,0v-.2c-.1,0-.2,0-.3,0v.2Z"/>
    <path class="st0" d="M23.9,44.1c0,0-.1,0-.2,0v.3c0,0,.1,0,.2,0v-.3Z"/>
    <path class="st0" d="M23.9,44.1c0,0-.1,0-.2,0v.3c0,0,.1,0,.2,0v-.3Z"/>
    <path class="st0" d="M24,44.2c0,0-.1,0-.2,0v.3c0,0,.1,0,.2,0v-.3Z"/>
    <path class="st0" d="M24,44.2c0,0-.1,0-.2,0v.3c0,0,.1,0,.2,0v-.3Z"/>
    <path class="st0" d="M25.1,42.9c0,0,.2,0,.3,0v-.2c-.1,0-.2,0-.3,0v.2Z"/>
    <path class="st0" d="M25.1,42.9c0,0,.2,0,.3,0v-.2c-.1,0-.2,0-.3,0v.2Z"/>
    <path class="st0" d="M13.5,44.5v.4c.2,0,.3-.1.5-.2v1.4h.5v-1.9h-.4c-.2.1-.4.2-.6.3"/>
    <path class="st0" d="M20.3,44.2h-.6l-.8,1.2v.4h.9v.4h.5v-.4h.3v-.4h-.3v-1.2ZM19.7,45.4h-.5l.5-.7h0v.7Z"/>
    <path class="st0" d="M16.3,45.2h0c.2,0,.4-.2.4-.5,0-.4-.4-.5-.8-.5s-.8,0-.8.5.2.4.5.5h0c-.3,0-.5.2-.5.5s.5.6.8.6.9,0,.9-.6-.2-.5-.5-.5M16,44.5c.2,0,.3,0,.3.2s-.1.2-.3.2-.3,0-.3-.2.1-.2.3-.2M16,45.8c-.2,0-.3,0-.3-.3s.1-.3.3-.3.3,0,.3.3-.1.3-.3.3"/>
    <path class="st0" d="M18,44.8c-.2,0-.3,0-.5.2h0s0-.5,0-.5h.9v-.4h-1.4v1.1s.5,0,.5,0c0-.1.1-.2.2-.2.2,0,.3.1.3.3s0,.3-.3.3-.2,0-.2-.2h-.5c0,.5.4.6.8.6s.7-.3.7-.7-.2-.6-.6-.6"/>
    <path class="st0" d="M17.8,39.8c-.3,0-.5.1-.5.5,0,.3.1.5.3.7.3.3.3.4.3.6,0,.1,0,.3-.2.3-.1,0-.2-.1-.2-.3v-.2s-.3,0-.3,0v.3c0,.3.2.4.5.4.4,0,.5-.2.5-.5,0-.3,0-.4-.3-.7-.3-.3-.3-.4-.3-.6,0-.2,0-.2.2-.2.1,0,.2,0,.2.2v.2s.3,0,.3,0v-.2c0-.2,0-.2,0-.3,0,0-.2-.1-.4-.1"/>
    <rect class="st0" x="14" y="40" width=".3" height="2.3" transform="translate(-4.2 1.7) rotate(-6)"/>
    <path class="st0" d="M15.7,39.8h-.5s.1,2.3.1,2.3h.3s0-1,0-1h.2c.4,0,.5-.2.5-.7,0-.5-.1-.6-.5-.6M15.7,40.9h-.2s0-.7,0-.7h.2c.2,0,.2,0,.3.4,0,.3,0,.4-.2.4"/>
    <polygon class="st0" points="19 42.2 19.9 42.3 19.9 42 19.3 42 19.4 41.2 19.9 41.2 20 41 19.4 40.9 19.5 40.2 20.1 40.3 20.1 40 19.2 39.9 19 42.2"/>
    <polygon class="st0" points="27.5 44.5 27.5 44.4 27.3 44.4 27.2 43.4 27.1 43.5 27.1 44.5 27.5 44.5"/>
    <polygon class="st0" points="29.3 44.5 29.4 44.5 29.5 43.6 29.6 43.6 29.7 43.5 29.1 43.4 29.1 43.6 29.3 43.6 29.3 44.5"/>
    <path class="st0" d="M28,44.5c.2,0,.2-.1.2-.3v-.8s-.2,0-.2,0v.9c0,0,0,.1,0,.1,0,0-.1,0-.1-.1v-.9s-.2,0-.2,0v.8c0,.1,0,.2.3.2"/>
    <path class="st0" d="M29.8,44.5v-.3c0,0,.3,0,.3,0v.3s.2,0,.2,0v-1.1c-.1,0-.3,0-.3,0l-.3,1h.1ZM30,43.6h0v.5c0,0-.1,0-.1,0v-.5Z"/>
    <path class="st0" d="M30.6,44.6c.2,0,.2,0,.3-.2,0-.1,0-.2-.1-.3-.1-.2-.1-.2-.1-.3,0,0,0-.1,0-.1,0,0,0,0,0,.1h0c0,0,.1,0,.1,0h0c0-.2,0-.2,0-.2,0,0,0,0-.2,0-.2,0-.2,0-.3.2,0,.1,0,.2.1.3.1.2.1.2.1.3,0,0,0,.1-.1.1,0,0,0,0,0-.1h0c0,0-.1-.1-.1-.1h0c0,.3,0,.3.2.3"/>
    <path class="st0" d="M28.6,44h0c.2,0,.2,0,.3-.3,0-.2,0-.3-.2-.3h-.2s0,1.1,0,1.1h.1s0-.5,0-.5ZM28.6,43.5h0c.1,0,.1,0,.1.2,0,.2,0,.2-.1.2h0s0-.4,0-.4Z"/>
    <path class="st0" d="M26.4,44.3c0,.2,0,.3.3.2.2,0,.2-.2.2-.3v-.5c0-.2-.1-.3-.3-.2-.2,0-.2.2-.2.3v.5ZM26.6,43.6c0,0,.1,0,.1.1v.6c0,0,0,.1,0,.1,0,0-.1,0-.1-.1v-.6c0-.1,0-.2,0-.2"/>
    <polygon class="st0" points="26 44.6 26.2 43.5 26 43.5 25.9 44.4 25.9 44.4 25.7 43.6 25.6 43.6 25.9 44.6 26 44.6"/>
    <polygon class="st0" points="4.4 44.5 4.3 43.5 4.1 43.5 4.2 44.6 4.6 44.6 4.6 44.4 4.4 44.5"/>
    <path class="st0" d="M6.3,43.4h-.3s0,1.1,0,1.1h.2c.2,0,.2,0,.3-.3,0-.2,0-.2-.1-.2h0c.1,0,.1,0,.1-.3,0-.2,0-.3-.2-.3M6.3,44.2c0,.2,0,.2-.1.2h0s0-.4,0-.4h0c0,0,0,0,0,.2M6.3,43.7c0,.2,0,.2-.1.2h0s0-.3,0-.3h0c0,0,.1,0,.1.2"/>
    <path class="st0" d="M5.1,43.4l-.2,1.1h.1s0-.3,0-.3h.2s0,.3,0,.3h.1s-.3-1.1-.3-1.1h-.2ZM5.2,44.1v-.5h0v.5c.1,0,0,0,0,0Z"/>
    <path class="st0" d="M8,44.1h0c0,0,.1,0,.1.1v.2s0,0,0,0h.1s0,0,0-.1v-.2c0-.1,0-.2-.1-.2h0c.1,0,.1,0,.2-.2,0-.2,0-.3-.2-.3h-.2s0,1,0,1h.1s0-.5,0-.5ZM8,43.6h0c0,0,0,0,0,.2,0,.2,0,.2-.1.2h0s0-.4,0-.4Z"/>
    <path class="st0" d="M7.1,44.5c.2,0,.3-.1.3-.3v-.5c0-.2,0-.3-.2-.3-.2,0-.3.1-.3.3v.5c0,.2,0,.3.2.3M7,43.7c0-.1,0-.2.1-.1,0,0,.1,0,0,.2v.6c0,0,0,.1-.1.1,0,0,0,0,0-.1v-.6Z"/>
    <path class="st0" d="M22.3,17.7c0,.1,0,.2.1.2.1,0,.2,0,.3-.1,0-.1,0-.1,0-.3,0-.1,0-.2,0-.2,0,0,0,0,0,0,0,0,0,0,0,0h0c0,0,.1.1.1.1h0c0-.1,0-.2,0-.2,0,0,0,0-.1,0-.1,0-.2,0-.3.1,0,.1,0,.2,0,.3,0,.2,0,.2,0,.3,0,0,0,0-.1,0,0,0,0,0,0-.1h0c0,0-.1-.1-.1-.1h0ZM22.4,17h-.1s-.2.7-.2.7c0,0,0,0-.1,0,0,0,0,0,0-.1l.2-.7h-.1s-.2.6-.2.6c0,0,0,.2.2.3.2,0,.2,0,.3-.2l.2-.7ZM21.1,17.6h.1s.2-.8.2-.8h0s0,.8,0,.8h.1s.3-.7.3-.7h0l-.2.8h.1s.2-.8.2-.8h-.2s-.2.6-.2.6h0s0-.7,0-.7h-.2s-.2.8-.2.8ZM20.9,16.8h0v.4s-.1,0-.1,0v-.4ZM20.5,17.5h.1s0-.2,0-.2h.2s0,.3,0,.3h.1s0-.9,0-.9h-.1s-.3.8-.3.8ZM20.6,16.6h-.1s0,.7,0,.7c0,0,0,0,0,0,0,0,0,0,0-.1v-.7c0,0,0,0,0,0v.7c0,.1,0,.2,0,.2.2,0,.2,0,.2-.2v-.7ZM19.8,16.6h0c0,0,0,0,0,.1,0,.1,0,.2,0,.1h0s0-.3,0-.3ZM19.8,17h0c0,0,0,0,0,.2,0,.1,0,.2,0,.2h0s0-.3,0-.3ZM19.6,17.4h.2c.2,0,.2,0,.2-.2,0-.1,0-.2,0-.2h0c0,0,.1,0,.1-.2,0-.2,0-.2-.2-.2h-.2s0,.9,0,.9ZM19.4,17.4h.1s0-.9,0-.9h-.1s0,.9,0,.9ZM19.1,16.6h0c0,0,0,0,0,.2,0,.1,0,.1-.1.1h0s0-.3,0-.3ZM18.9,17.3h.1s0-.4,0-.4h0c0,0,0,0,0,.1v.2s0,0,0,0h.1s0,0,0-.1v-.2c0,0,0-.1,0-.1h0c.1,0,.1,0,.1-.2,0-.2,0-.2-.2-.3h-.2s0,.9,0,.9ZM18.5,16.5h.1s0,.8,0,.8h.1s0-.8,0-.8h.1s0,0,0,0h-.4s0,0,0,0ZM18.1,17.3h.3s0,0,0,0h-.2s0-.3,0-.3h.2s0,0,0,0h-.2s0-.3,0-.3h.2s0,0,0,0h-.3s0,.9,0,.9ZM17.8,16.5h0c0,0,0,0,0,.1,0,.1,0,.2-.1.1h0s0-.3,0-.3ZM17.6,17.2h.1s0-.4,0-.4h0c0,0,0,0,0,.1v.2s0,0,0,0h.1s0,0,0-.1v-.2c0,0,0-.1,0-.1h0c.1,0,.1,0,.1-.2,0-.2,0-.2-.2-.2h-.2s0,.9,0,.9ZM16.9,17.2h.2c.2,0,.2,0,.2-.3v-.3c0-.3,0-.3-.2-.3h-.2s0,.9,0,.9ZM17,16.4h0c.1,0,.1,0,.1.2v.3c0,.2,0,.2-.1.2h0s0-.7,0-.7ZM16.7,17.2h.1s0-.9,0-.9h-.1s0,.9,0,.9ZM16.6,16.4h-.1s0,.7,0,.7c0,0,0,0,0,0,0,0,0,0,0,0v-.7s-.2,0-.2,0v.7c0,.1,0,.2.3.2.2,0,.2-.1.2-.2v-.7ZM15.7,17.1c0,.1,0,.2.2.2,0,0,.2,0,.3,0h0c0,0,0,0-.1,0h0s0-.1,0-.2v-.4c0-.1,0-.2-.2-.2-.2,0-.2.1-.2.2v.4ZM15.7,16.6c0,0,0-.1,0-.1,0,0,0,0,0,.1v.5c0,0,0,.1,0,.1,0,0,0,0,0-.1v-.5ZM14.9,17.1c0,.1,0,.2.2.2.2,0,.2-.1.2-.2v-.4c0-.1-.1-.2-.3-.2-.2,0-.2.1-.2.2v.4ZM15,16.7c0,0,0-.1,0-.1,0,0,0,0,0,.1v.5c0,0,0,.1,0,.1,0,0,0,0,0-.1v-.5ZM14.4,16.6h.1s0,.8,0,.8h.1s0-.8,0-.8h.1s0-.1,0-.1h-.4s0,.1,0,.1ZM14,17.5h.1s0-.8,0-.8h0l.2.7h.2s-.1-.9-.1-.9h-.1s0,.7,0,.7h0l-.2-.7h-.2s.1.9.1.9ZM13.6,16.8h0s.1.4.1.4h-.2s0-.4,0-.4ZM13.5,17.5h.1s0-.2,0-.2h.2s0,.2,0,.2h.1s-.3-.9-.3-.9h-.1s0,.9,0,.9ZM13,16.8h.1s.1.7.1.7h.1s-.1-.8-.1-.8h.1s0-.1,0-.1h-.4c0,0,0,.2,0,.2ZM12.4,17.5c0,.1,0,.2.2.2.2,0,.2-.1.2-.3v-.4c-.1-.1-.2-.2-.3-.2-.2,0-.2.1-.2.3v.4ZM12.5,17c0,0,0-.1,0-.1,0,0,0,0,.1.1v.5c.1,0,0,.1,0,.1,0,0,0,0-.1,0v-.5ZM12,17h0c0,0,0,0,.1.1,0,.1,0,.1,0,.2h0s0-.3,0-.3ZM12,17.8h.1s0-.4,0-.4h0c0,0,0,0,.1,0v.2c0,0,0,0,0,0h.1c0,0,0-.1,0-.1v-.2c0,0-.1-.1-.2-.1h0c0,0,0-.1,0-.2,0-.2,0-.2-.2-.2h-.2s.2.9.2.9ZM11.6,18h.1s-.1-.4-.1-.4h0c.2,0,.2-.1.1-.3,0-.2-.1-.2-.3-.2h-.2c0,0,.3.9.3.9ZM11.5,17.2h0c0,0,0,0,.1,0s0,.1,0,.2h0s0-.3,0-.3Z"/>
  </g>
</svg>