<?xml version="1.0" encoding="UTF-8"?>
<svg id="Layer_1" xmlns="http://www.w3.org/2000/svg" version="1.1" viewBox="0 0 30 30">
  <!-- Generator: Adobe Illustrator 29.3.1, SVG Export Plug-In . SVG Version: 2.1.0 Build 151)  -->
  <defs>
    <style>
      .st0 {
        fill: none;
        stroke: #212d43;
        stroke-miterlimit: 10;
      }
    </style>
  </defs>
  <path class="st0" d="M21.7,21.9c.4-.6.6-1.1.7-1.7,0-.3-.1-.6-.4-.7l-3.4-1.6c-.2-.1-.5,0-.7.2-.1.2-.3.4-.4.6-.6.7-1.6.9-2.3.4-.6-.4-1.3-.9-2.1-1.7-.8-.8-1.3-1.4-1.7-2.1-.5-.8-.3-1.7.4-2.3.2-.1.4-.3.6-.4.2-.2.3-.4.2-.7l-1.6-3.4c-.1-.3-.4-.4-.7-.4-.5,0-1.1.3-1.7.7-2.9,2.2-1.1,7.1,2.4,10.7,3.6,3.6,8.5,5.3,10.7,2.4Z"/>
  <circle class="st0" cx="15" cy="15.5" r="13.6"/>
</svg>