<?xml version="1.0" encoding="UTF-8"?><svg id="Layer_1" xmlns="http://www.w3.org/2000/svg" viewBox="0 0 30 30"><defs><style>.cls-1{fill:#212d43;}</style></defs><path class="cls-1" d="M14.99,1.91C7.5,1.91,1.42,7.98,1.42,15.48s6.08,13.57,13.57,13.57,13.57-6.08,13.57-13.57S22.49,1.91,14.99,1.91ZM21.69,21.93c-2.23,2.88-7.14,1.11-10.7-2.45-3.56-3.56-5.33-8.47-2.45-10.7.56-.37,1.11-.61,1.66-.66.3-.03.6.13.73.41l1.58,3.39c.11.24.04.53-.17.69-.19.14-.37.29-.55.44-.68.57-.85,1.55-.39,2.31.37.61.86,1.26,1.66,2.06.8.8,1.45,1.29,2.06,1.66.76.46,1.75.29,2.31-.39.15-.18.29-.36.44-.55.16-.21.45-.28.69-.17l3.39,1.58c.28.13.44.42.41.73-.06.55-.29,1.1-.66,1.66Z"/></svg>