<?xml version="1.0" encoding="UTF-8"?>
<svg id="Layer_1" xmlns="http://www.w3.org/2000/svg" xmlns:xlink="http://www.w3.org/1999/xlink" version="1.1" viewBox="0 0 30 30">
  <!-- Generator: Adobe Illustrator 29.3.1, SVG Export Plug-In . SVG Version: 2.1.0 Build 151)  -->
  <defs>
    <style>
      .st0 {
        fill: none;
      }

      .st1 {
        fill: #212d43;
      }

      .st2 {
        clip-path: url(#clippath);
      }
    </style>
    <clipPath id="clippath">
      <rect class="st0" x=".7" y=".7" width="28.7" height="28.7"/>
    </clipPath>
  </defs>
  <g class="st2">
    <path class="st1" d="M1.8,15c0,7.3,5.9,13.2,13.2,13.2,7.3,0,13.2-5.9,13.2-13.2,0-7.3-5.9-13.2-13.2-13.2-7.3,0-13.2,5.9-13.2,13.2M29.3,15c0,7.9-6.4,14.3-14.4,14.3-7.9,0-14.3-6.5-14.3-14.4C.7,7.1,7.1.7,15,.7c7.9,0,14.3,6.4,14.3,14.4"/>
    <path class="st1" d="M20.8,20.3l-1,1s0,0,0,0l-3.7-3.7c-.5-.5-1.4-.3-1.7.3l-1.5,3.5s0,0,0,0c0,0,0,0,0,0l-5.1-13.1s0,0,0,0c0,0,0,0,0,0l13.1,5.1s0,0,0,0c0,0,0,0,0,0l-3.5,1.5c-.7.3-.8,1.2-.3,1.7l3.7,3.7s0,0,0,0h0ZM17.9,15.8s0,0,0,0l3.5-1.5c.8-.3.8-1.6,0-1.9l-13.1-5.1c-.4-.1-.8,0-1.1.2s-.4.7-.2,1.1l5.1,13.1c.3.9,1.6.9,1.9,0l1.5-3.5s0,0,0,0l3.7,3.7c.4.4,1.1.4,1.5,0l1-1c.2-.2.3-.5.3-.7s-.1-.5-.3-.7l-3.7-3.7h0Z"/>
  </g>
</svg>