<?xml version="1.0" encoding="UTF-8"?><svg id="Layer_1" xmlns="http://www.w3.org/2000/svg" viewBox="0 0 30 30"><defs><style>.cls-1{fill:#212d43;}</style></defs><path class="cls-1" d="M15,.66c-7.91,0-14.33,6.41-14.34,14.33-.01,7.89,6.41,14.35,14.28,14.36,7.96,0,14.4-6.4,14.4-14.33,0-7.93-6.42-14.36-14.34-14.36ZM17.87,15.84h0s3.65,3.65,3.65,3.65c.19.19.3.45.3.73s-.11.53-.3.73l-1.03,1.03c-.39.39-1.06.39-1.45,0l-3.65-3.65s-.08-.02-.09.02l-1.47,3.49c-.33.84-1.6.82-1.9-.03l-5.05-13.14c-.15-.38-.06-.8.23-1.09s.71-.38,1.09-.23l13.14,5.05c.85.3.87,1.58.03,1.9l-3.49,1.47s-.05.07-.02.09Z"/></svg>